<?xml version="1.0" standalone="no"?>
<!DOCTYPE svg PUBLIC "-//W3C//DTD SVG 1.1//EN" "http://www.w3.org/Graphics/SVG/1.1/DTD/svg11.dtd" >
<svg xmlns="http://www.w3.org/2000/svg">
<metadata></metadata>
<defs>
<font id="agilisregular" horiz-adv-x="1628" >
<font-face units-per-em="2048" ascent="1536" descent="-512" />
<missing-glyph horiz-adv-x="409" />
<glyph unicode="&#xfb01;" horiz-adv-x="1335" d="M113 76l155 37v798l-155 37l14 76h141v76q0 93 26 173.5t77 143.5t134 99t189 36q40 0 93.5 -8t115 -26.5t112 -44t84.5 -65.5t34 -87q0 -62 -26.5 -89.5t-90.5 -27.5q-62 0 -89.5 28t-27.5 89q0 58 25 86q-82 47 -211 47q-37 0 -70 -4.5t-59.5 -14t-46 -18.5t-38 -23 t-27.5 -21t-22 -20l-14 -14v-315h502q79 0 120.5 -42.5t41.5 -113.5v-598q0 -29 -3 -58t-6 -46.5t-6.5 -34t-3.5 -18.5l193 -35l-14 -78h-467l-15 76l156 37v655q0 50 6.5 101t11.5 61l-516 -17v-643q0 -29 -2.5 -58t-5.5 -46.5t-6.5 -34t-3.5 -18.5l192 -35l-14 -78h-469z " />
<glyph unicode="&#xfb02;" horiz-adv-x="1343" d="M113 76l155 37v798l-155 37l14 76h141v137q0 188 95.5 289.5t289.5 101.5q96 0 226 -36q117 40 229 26v-1272q0 -29 -2.5 -58t-5.5 -46.5t-6.5 -34t-3.5 -18.5l192 -35l-14 -78h-469l-15 76l156 37v1155q0 58 6 108q-126 78 -254 78q-173 0 -256 -53v-377h160l14 -78 l-174 -33v-643q0 -29 -2.5 -58t-5.5 -46.5t-6.5 -34t-3.5 -18.5l192 -35l-14 -78h-469z" />
<glyph horiz-adv-x="0" />
<glyph horiz-adv-x="682" />
<glyph unicode=" "  horiz-adv-x="409" />
<glyph unicode="&#x09;" horiz-adv-x="409" />
<glyph unicode="&#xa0;" horiz-adv-x="409" />
<glyph unicode="!" horiz-adv-x="477" d="M139 104q0 58 25.5 83.5t83.5 25.5q59 0 83.5 -25t24.5 -84t-24 -83.5t-84 -24.5q-59 0 -84 25t-25 83zM160 1485h229l-131 -1112h-41z" />
<glyph unicode="&#x22;" horiz-adv-x="634" d="M115 1485l172 55l-23 -469h-104q-21 39 -33 169t-12 245zM373 1485l172 55l-23 -469h-104q-21 39 -33 169t-12 245z" />
<glyph unicode="#" horiz-adv-x="1656" d="M57 338v119h346l162 491h-323v119h362l135 408l117 -39l-123 -369h430l133 408l117 -39l-123 -369h316v-119h-353l-161 -493h329v-119h-368l-160 -490l-119 39l148 451l-426 2l-160 -492l-119 39l148 453h-308zM535 457l426 -2l161 493h-428z" />
<glyph unicode="$" horiz-adv-x="1175" d="M100 228.5q16 96.5 43 138.5q54 4 107 -19v-209q12 -6 44.5 -15t99.5 -19t138 -11v561q-165 70 -234 113q-196 122 -196 305q0 101 35 179.5t96.5 127.5t135.5 78t163 41v199h113v-189h25q107 0 204 -28.5t146 -67.5q20 -42 4 -138t-43 -138q-56 -4 -107 18v209 q-18 9 -84 24t-120 15h-25v-565q217 -91 323.5 -202t106.5 -257q0 -182 -116.5 -280.5t-313.5 -118.5v-168h-113v163q-154 1 -264 35.5t-164 79.5q-20 42 -4 138.5zM268 1028q40 -36 98.5 -66t165.5 -75v504q-272 -53 -264 -363zM645 98q165 13 229 64q23 67 25.5 121.5 t-11.5 97.5t-49 82t-80.5 70.5t-113.5 66.5v-502z" />
<glyph unicode="%" horiz-adv-x="1779" d="M109 1106q0 175 94.5 295.5t247.5 120.5q92 0 161.5 -42.5t110.5 -117.5q5 74 35.5 123.5t76 71.5t106 27t119 -4t122.5 -28l88 -26l-629 -1551l-166 82l653 1377q-66 37 -135.5 46t-125 -9t-86 -73t-19.5 -138q14 -72 14 -130q0 -114 -39.5 -209t-117.5 -153.5 t-179 -58.5q-151 0 -241 113t-90 284zM276 1114q0 -124 49 -209.5t130 -107.5q75 15 118 103.5t43 213.5q0 123 -50.5 210.5t-131.5 109.5q-74 -15 -116 -104.5t-42 -215.5zM999 369q0 175 94.5 295t247.5 120q152 0 239 -110t87 -281q0 -114 -39.5 -209t-117.5 -154 t-179 -59q-151 0 -241.5 113.5t-90.5 284.5zM1167 377q0 -124 49 -210t130 -108q75 15 118 104t43 214q0 123 -50.5 210t-131.5 109q-74 -15 -116 -104t-42 -215z" />
<glyph unicode="&#x26;" horiz-adv-x="1433" d="M111 362q-11 97 14.5 178t81.5 141.5t130 104.5t169 76q-31 7 -61.5 19t-67.5 36t-64.5 56t-46 82.5t-18.5 111.5q0 171 125 265t319 94q115 0 202.5 -20.5t182.5 -69.5l-33 -121q-105 40 -249.5 67.5t-257.5 24.5q-107 -92 -107 -258q0 -64 21 -116.5t54.5 -84t70 -50 t73.5 -24.5v-79q-91 -21 -197.5 -58t-146.5 -73q-14 -60 -19.5 -121.5t-1.5 -129.5t27 -126t62 -106t108 -75.5t160 -27.5q179 0 287.5 92.5t89.5 267.5q-15 156 -141 156q-44 0 -72 -21v-196l-105 -17q-23 21 -40 65.5t-17 100.5q0 39 18 74.5t43 60.5t69 49.5t77.5 38.5 t88 30.5t81.5 23.5t76 18v228l37 22q32 -50 50 -99.5t12 -105t-48 -92.5q-17 -15 -49.5 -32.5t-84 -41.5t-75.5 -36q96 3 162 -59.5t76 -168.5q11 -108 -29.5 -197t-117.5 -146.5t-177.5 -88.5t-210.5 -31q-236 0 -373.5 105t-156.5 284z" />
<glyph unicode="'" horiz-adv-x="376" d="M115 1485l172 55l-23 -469h-104q-21 39 -33 169t-12 245z" />
<glyph unicode="(" horiz-adv-x="569" d="M102 606q0 269 84.5 481.5t219.5 337.5l61 -55q-88 -122 -144.5 -318t-56.5 -446t56.5 -446t144.5 -318l-61 -55q-135 125 -219.5 337.5t-84.5 481.5z" />
<glyph unicode=")" horiz-adv-x="569" d="M102 -158q88 122 144.5 318t56.5 446t-56.5 446t-144.5 318l62 55q135 -125 219 -337.5t84 -481.5t-84 -481.5t-219 -337.5z" />
<glyph unicode="*" horiz-adv-x="907" d="M119 1180l45 135l260 -127l-41 280h139l-37 -284l260 135l46 -135l-291 -54l209 -215l-113 -81l-143 260l-142 -263l-114 82l206 215z" />
<glyph unicode="+" horiz-adv-x="976" d="M96 594v119h334v331h119v-331h330v-119h-330v-334h-119v334h-334z" />
<glyph unicode="," horiz-adv-x="479" d="M123 102q0 62 27.5 89.5t89.5 27.5q64 0 90 -27.5t26 -89.5v-12q-3 -129 -51 -240t-106 -176l-68 62l78 133v119q-46 6 -66 33t-20 81z" />
<glyph unicode="-" horiz-adv-x="976" d="M96 510v119h783v-119h-783z" />
<glyph unicode="." horiz-adv-x="479" d="M123 102q0 62 27.5 89.5t89.5 27.5q64 0 90 -27.5t26 -89.5t-26 -89t-90 -27q-62 0 -89.5 27.5t-27.5 88.5z" />
<glyph unicode="/" horiz-adv-x="966" d="M123 2l616 1557l105 -41l-617 -1557z" />
<glyph unicode="0" horiz-adv-x="1253" d="M123 721q0 235 66.5 418.5t186.5 285t275 101.5q218 0 348.5 -197t130.5 -536q0 -237 -66 -425t-187 -294.5t-277 -106.5q-215 0 -346 206.5t-131 547.5zM311 748q0 -284 91 -473.5t239 -223.5q93 24 161.5 119t105 244t36.5 334q0 282 -96 474.5t-244 223.5 q-136 -32 -214.5 -224t-78.5 -474z" />
<glyph unicode="1" horiz-adv-x="835" d="M57 1329q22 29 101 69t193 70.5t206 26.5v-1225q0 -29 -2.5 -58t-5.5 -46.5t-6.5 -34t-3.5 -18.5l204 -35l-14 -78h-500l-14 76l164 37v1220l-285 -100q-30 42 -37 96z" />
<glyph unicode="2" horiz-adv-x="1032" d="M76 1436q95 49 182.5 69.5t202.5 20.5q95 0 174 -24.5t140.5 -73.5t95.5 -130t34 -188q0 -268 -258 -553l-368 -412l647 39v-184h-826v78l435 561q188 242 188 457q0 76 -10 133t-29 92t-33 51.5t-35 34.5q-113 3 -257.5 -24.5t-249.5 -67.5z" />
<glyph unicode="3" horiz-adv-x="1044" d="M86 -6q100 0 195.5 22.5t177 67.5t143 106t96.5 143t35 175q0 96 -46 165.5t-115.5 100t-151.5 27.5v57q158 51 220 118.5t62 160.5q0 120 -32.5 197t-73.5 112q-172 5 -426 -107l-27 123q178 64 357 64q185 0 285 -88t100 -254q0 -135 -85 -218t-204 -94 q61 3 119.5 -20.5t107.5 -71t79 -127t30 -178.5q0 -126 -48 -226.5t-128.5 -165.5t-190.5 -107t-228.5 -57.5t-246.5 -10.5z" />
<glyph unicode="4" horiz-adv-x="1200" d="M102 334v57q0 206 130.5 548t283.5 587l82 -45l-358 -1037l444 25v424h178v-418l215 8v-149h-215v-334h-178v334h-582z" />
<glyph unicode="5" horiz-adv-x="1064" d="M106 -6q126 0 241.5 36.5t204.5 101t142.5 163t53.5 213.5q0 207 -148 305q-112 -4 -217.5 -34t-153.5 -60h-94v766h715v-178l-617 22v-489q116 61 283 61q186 0 308 -117t122 -309q0 -126 -47.5 -226.5t-127 -165.5t-188 -107t-226.5 -57.5t-246 -10.5z" />
<glyph unicode="6" horiz-adv-x="1103" d="M109 614q0 365 201 605.5t554 316.5l19 -63q-35 -10 -75.5 -27.5t-96 -50t-107.5 -73.5t-105.5 -102t-94 -131.5t-69 -165.5t-34.5 -200q80 67 150.5 101t173.5 34q109 0 196 -46t141 -143t54 -233q0 -93 -26 -174t-77.5 -145.5t-136.5 -102t-194 -37.5q-70 0 -134 18 t-127.5 63.5t-109 115.5t-74 183t-28.5 257zM299 610q1 -107 9 -182t29.5 -145t61.5 -122t103 -93q65 -9 115 -3.5t87 31t62.5 58.5t41 79.5t22 93t6.5 99.5q0 73 -21.5 138t-54.5 108.5t-67 71.5t-66 40q-60 -10 -163 -66t-165 -108z" />
<glyph unicode="7" horiz-adv-x="1036" d="M90 1309l2 176h862v-107l-434 -1044l-20 -359h-101q-53 280 93 656l262 678h-664z" />
<glyph unicode="8" horiz-adv-x="1089" d="M100 344q0 76 24 139t70 112.5t91 83t110 71.5l-16 10q-142 80 -203 165t-61 222q0 155 119 263t309 108q186 0 290.5 -98.5t104.5 -241.5q0 -68 -20 -123t-61 -99.5t-88 -77.5t-118 -71l41 -23q162 -90 230.5 -181.5t68.5 -219.5q0 -177 -129.5 -292.5t-318.5 -115.5 q-66 0 -128 12t-120 40.5t-100.5 70t-68.5 105t-26 141.5zM254 393q0 -78 25 -140.5t70 -104t100 -67.5t122 -40q100 11 169 93t69 204q0 101 -61 173.5t-201 152.5l-74 41q-122 -79 -170.5 -153t-48.5 -159zM287 1153q0 -82 49.5 -140.5t155.5 -117.5l83 -47 q107 66 163.5 136t56.5 161q0 126 -70 206.5t-184 104.5q-115 -10 -184.5 -97.5t-69.5 -205.5z" />
<glyph unicode="9" horiz-adv-x="1103" d="M86 1069q0 93 26 174t77.5 145.5t136.5 102t194 37.5q70 0 134 -18t127.5 -63.5t109 -115.5t74 -183t28.5 -257q0 -365 -201 -605.5t-554 -316.5l-19 64q35 10 75.5 27t96 50t107.5 73.5t105.5 101.5t94 131.5t69 165.5t34.5 200q-80 -67 -150.5 -101t-173.5 -34 q-109 0 -196 46t-141 143t-54 233zM266 1079q0 -73 21.5 -138t54.5 -108.5t67 -71.5t66 -40q60 10 163 66t165 108q-1 107 -9 182t-29.5 145.5t-61.5 122.5t-103 93q-65 9 -115 3.5t-87 -31t-62.5 -59t-41 -79.5t-22 -93t-6.5 -100z" />
<glyph unicode=":" horiz-adv-x="479" d="M123 102q0 62 27.5 89.5t89.5 27.5q64 0 90 -27.5t26 -89.5t-26 -89t-90 -27q-62 0 -89.5 27.5t-27.5 88.5zM123 926q0 61 27.5 88.5t89.5 27.5q64 0 90 -27t26 -89t-26 -89.5t-90 -27.5q-62 0 -89.5 27.5t-27.5 89.5z" />
<glyph unicode=";" horiz-adv-x="479" d="M123 102q0 62 27.5 89.5t89.5 27.5q64 0 90 -27.5t26 -89.5v-12q-3 -129 -51 -240t-106 -176l-68 62l78 133v119q-46 6 -66 33t-20 81zM123 926q0 61 27.5 88.5t89.5 27.5q64 0 90 -27t26 -89t-26 -89.5t-90 -27.5q-62 0 -89.5 27.5t-27.5 89.5z" />
<glyph unicode="&#x3c;" horiz-adv-x="884" d="M80 666l625 557l81 -90l-522 -467l522 -467l-77 -93z" />
<glyph unicode="=" horiz-adv-x="976" d="M96 432v117h783v-117h-783zM96 711v116h783v-116h-783z" />
<glyph unicode="&#x3e;" horiz-adv-x="884" d="M98 184l523 467l-523 467l80 90l627 -557l-631 -559z" />
<glyph unicode="?" horiz-adv-x="933" d="M63 1280q0 73 71 131t176 87.5t218 29.5q182 0 263 -95.5t81 -275.5q0 -72 -21 -136t-55 -112t-75 -93t-82.5 -87.5t-75.5 -85.5t-55 -96.5t-21 -112.5v-102h-98v100q0 70 16.5 130.5t43.5 104.5t59 85t64.5 81t59.5 82t43.5 98.5t16.5 121.5q0 117 -28 202.5t-68 118.5 q-190 -8 -344 -115v-208q-85 -8 -137 25.5t-52 121.5zM324 104q0 59 25 84t83 25q60 0 84.5 -25t24.5 -84t-24.5 -83.5t-84.5 -24.5q-58 0 -83 25t-25 83z" />
<glyph unicode="@" horiz-adv-x="1724" d="M82 475q0 228 106.5 412.5t292 288.5t412.5 104q344 0 545.5 -190.5t201.5 -518.5q0 -82 -17.5 -162t-46.5 -142.5t-55 -105.5t-53 -77q-110 -12 -246 15.5t-210 78.5q-110 -106 -285 -106q-143 0 -213 88.5t-70 230.5q0 82 19 165t57 157.5t90 132.5t122.5 92.5 t150.5 34.5q94 0 154.5 -46.5t90.5 -117.5q22 84 76 154l90 -33l-153 -711l282 -61q10 14 25 44t36 84t35.5 130t14.5 155q0 290 -171 459.5t-470 169.5q-192 0 -353.5 -91t-258.5 -258t-97 -376q0 -210 87.5 -369t245 -244t364.5 -85q114 0 224.5 31t194.5 88l41 -60 q-238 -141 -467 -141q-362 0 -577 212t-215 568zM614 383q0 -219 158 -219q64 0 123 31.5t100 83.5l95 423q-24 65 -72.5 125t-99.5 84q-139 -29 -221.5 -171.5t-82.5 -356.5z" />
<glyph unicode="A" horiz-adv-x="1474" d="M51 76l129 37l377 1118l70 160l-215 32l14 78h412l456 -1388l129 -37l-14 -76h-498l-14 78l195 35l-131 417h-539l-137 -417l227 -35l-14 -78h-432zM451 618h483l-236 754z" />
<glyph unicode="B" horiz-adv-x="1406" d="M92 1438q10 3 29 8q92 26 144 38t153.5 23t226.5 11q158 0 266.5 -29t171 -89t89 -140.5t26.5 -194.5q0 -125 -45.5 -190.5t-142.5 -112.5q131 -36 215 -134.5t84 -244.5q0 -82 -23.5 -147.5t-65 -111t-104.5 -76.5t-137.5 -47t-168.5 -21q-45 -2 -90 -2q-50 0 -101 2 q-98 6 -213 20h-259l-14 76l170 37v895q0 292 12 352l-206 -23zM492 86q170 -10 265 -10q45 0 73 2q160 14 220 101q48 69 48 198q0 106 -25 175.5t-66 104t-108 56.5q-213 -17 -407 -23v-604zM492 784q33 1 83 1.5t80 0.5t72 2.5t67 7t57.5 13.5t51 22t39 33.5t31 48 t17.5 64t7 82.5q0 289 -170 364q-51 3 -100 3q-125 0 -235 -17v-625z" />
<glyph unicode="C" horiz-adv-x="1427" d="M123 618q0 154 27 286.5t87.5 247.5t151 196t224 127.5t300.5 46.5q106 0 203.5 -30.5t147.5 -70.5q13 -23 13 -75q0 -34 -5 -78q-14 -114 -47 -152q-9 -1 -18 -1q-50 0 -95 20v237q-19 9 -79.5 23t-114.5 14q-144 0 -251 -38t-171 -99.5t-103.5 -155.5t-53 -190.5 t-13.5 -218.5q0 -181 46 -345.5t107 -232.5q115 -17 226 -17q285 0 550 113l50 -73q-116 -75 -272.5 -126t-332.5 -51q-284 0 -430.5 165.5t-146.5 477.5z" />
<glyph unicode="D" horiz-adv-x="1517" d="M94 1438q144 40 269.5 60t306.5 20q122 0 224.5 -25.5t176 -68t131 -103.5t93 -128t59 -144.5t32.5 -149.5t9 -147q0 -354 -203 -553t-600 -199h-442l-15 76l170 37v895q0 292 12 352l-206 -23zM477 94h219q236 0 368 162t132 463q0 116 -19 216.5t-51.5 170.5t-69 125 t-78.5 91.5t-71.5 56.5t-56.5 32q-65 3 -124 3q-130 0 -232 -15v-1077q0 -72 -17 -228z" />
<glyph unicode="E" horiz-adv-x="1331" d="M92 1432q267 53 594 53h512q11 -30 11 -86q0 -45 -7 -105q-15 -138 -47 -174h-10q-39 0 -84 19v237q-269 12 -418 12q-106 0 -151 -6v-600h288q53 0 111 -4q7 126 39 189l90 -15v-424l-82 -12q-16 22 -31 71t-16 101q-31 -2 -113 -2h-286v-416q0 -72 -21 -174 q63 -3 125 -3q23 1 46 1q84 2 240.5 6.5t204.5 5.5v256q45 19 84 19h11q32 -37 47 -183q7 -64 7 -111q0 -58 -11 -87h-1078l-14 76l170 37v862q0 128 4 239t8 129l-206 -12z" />
<glyph unicode="F" horiz-adv-x="1265" d="M88 1432q138 27 259 40t315 13h512q10 -29 10 -85q0 -46 -6 -110q-16 -142 -48 -178h-11q-40 0 -83 18v250q-128 6 -290 8h-63q-119 0 -196 -6v-632h228q37 0 110 -5q7 126 39 189l90 -14v-424l-82 -13q-16 22 -31 71t-16 101q-31 -2 -112 -2h-226v-383q0 -29 -2.5 -58 t-5.5 -46.5t-6.5 -34t-3.5 -18.5l207 -35l-14 -78h-519l-14 76l170 37v862q0 128 4 239t8 129l-207 -12z" />
<glyph unicode="G" horiz-adv-x="1460" d="M123 662q0 141 27 265.5t88 234.5t152.5 189t227 125t304.5 46q105 0 199 -30t145 -71q11 -22 11 -64q0 -32 -7 -76q-14 -102 -43 -140q-10 -1 -19 -1q-51 0 -94 19v213q-19 9 -80 23t-116 14q-144 0 -251 -38t-171 -99.5t-103.5 -155.5t-53 -190.5t-13.5 -218.5 q0 -173 58.5 -339.5t125.5 -240.5q130 -31 258 -31q52 0 104 5q180 18 289 92l-16 335l-326 9l-16 69q59 44 159 64q53 11 109 11q48 0 97 -9q107 -17 167 -76v-655q0 -142 -73.5 -204t-241.5 -65l-21 76q100 12 146 76v201q-161 -50 -328 -50q-694 0 -694 687z" />
<glyph unicode="H" horiz-adv-x="1789" d="M115 1407l14 78h518l15 -76l-170 -37v-538h806v380q0 29 3 58.5t6 47t6.5 34t3.5 18.5l-207 35l14 78h518l15 -76l-170 -37v-1102q0 -29 -3 -58t-6 -46.5t-6.5 -34t-3.5 -18.5l207 -35l-14 -78h-518l-15 76l170 37v622h-806v-465q0 -29 -3 -58t-6 -46.5t-6.5 -34 t-3.5 -18.5l207 -35l-14 -78h-519l-14 76l170 37v1101q0 29 3 58.5t6 47t6.5 34t3.5 18.5z" />
<glyph unicode="I" horiz-adv-x="794" d="M115 1407l14 78h518l15 -76l-170 -37v-1102q0 -29 -3 -58t-6 -46.5t-6.5 -34t-3.5 -18.5l207 -35l-14 -78h-519l-14 76l170 37v1101q0 29 3 58.5t6 47t6.5 34t3.5 18.5z" />
<glyph unicode="J" horiz-adv-x="985" d="M78 98l41 99q57 -31 187 -50q76 -11 153 -11q53 0 106 5v1073q0 29 3 58.5t6 47t6.5 34t3.5 18.5l-207 35l14 78h518l15 -76l-170 -37v-1018q0 -172 -90 -274.5t-269 -102.5q-103 0 -184.5 37t-132.5 84z" />
<glyph unicode="K" horiz-adv-x="1439" d="M115 1407l14 78h518l15 -76l-170 -37v-629l466 564l82 73l-161 27l14 78h416l14 -76l-156 -31l-491 -587l391 -523l90 -155l225 -33l-12 -80h-344l-534 727v-457q0 -29 -3 -58t-6 -46.5t-6.5 -34t-3.5 -18.5l207 -35l-14 -78h-519l-14 76l170 37v1101q0 29 3 58.5t6 47 t6.5 34t3.5 18.5z" />
<glyph unicode="L" horiz-adv-x="1202" d="M115 1407l14 78h518l15 -76l-170 -37v-1102q0 -88 -27 -188l547 29v245q44 20 90 20q8 0 16 -1q26 -40 39 -179q5 -53 5 -94q0 -66 -13 -102h-1002l-14 76l170 37v1101q0 29 3 58.5t6 47t6.5 34t3.5 18.5z" />
<glyph unicode="M" horiz-adv-x="2031" d="M152 1407l14 78h270l555 -1225l613 1225h243l15 -76l-170 -37v-1102q0 -29 -3 -58t-6 -46.5t-6.5 -34t-3.5 -18.5l207 -35l-14 -78h-518l-15 76l170 37v981l-57 -148l-475 -946h-68l-389 856l-76 229v-972l189 -35l-15 -78h-428l-14 76l170 37v1101q0 29 2.5 58.5t5.5 47 t6.5 34t3.5 18.5z" />
<glyph unicode="N" horiz-adv-x="1714" d="M154 1407l14 78h268l756 -971l139 -215v915q0 29 3 58.5t6 47t6.5 34t3.5 18.5l-207 35l14 78h428l14 -76l-169 -37v-1372h-80l-760 981l-150 240v-1108l189 -35l-15 -78h-428l-14 76l170 37v1101q0 29 2.5 58.5t5.5 47t6.5 34t3.5 18.5z" />
<glyph unicode="O" d="M123 727q0 163 48.5 309t136.5 257t223 176t298 65q162 0 291 -55.5t212.5 -154t128 -232.5t44.5 -293q0 -131 -29.5 -252.5t-90 -225.5t-145 -181t-201 -121t-251.5 -44q-164 0 -292.5 58t-209 160.5t-122 237.5t-41.5 296zM305 754q0 -287 141.5 -466t391.5 -214 q235 38 361 218t126 462q0 288 -150 471.5t-401 214.5q-229 -33 -349 -216t-120 -470z" />
<glyph unicode="P" horiz-adv-x="1331" d="M92 1438q101 28 159.5 41.5t170 26t244.5 12.5q158 0 268 -30.5t174.5 -92.5t92.5 -144.5t28 -195.5q0 -102 -28.5 -182t-81 -131.5t-120.5 -85.5q-69 -33 -153 -46q-81 -13 -165 -13q-3 1 -6 1q-87 0 -183 14v-342q0 -29 -3 -58t-6 -46.5t-6.5 -34t-3.5 -18.5l207 -35 l-14 -78h-519l-14 76l170 37v895q0 292 12 352l-206 -23zM492 705q142 -11 211 -11q20 0 34 1q171 10 239 115q54 84 54 239q0 293 -182 374q-58 3 -113 3q-131 0 -243 -17v-704z" />
<glyph unicode="Q" d="M123 731q0 225 84.5 406.5t246.5 289t375 107.5q162 0 291 -55.5t212.5 -154t128 -232.5t44.5 -293q0 -131 -29.5 -252.5t-90 -225.5t-145 -181t-201 -121t-251.5 -44h-75q205 -159 493 -251l105 180q54 -6 106 -39q1 -7 1 -14q0 -47 -32 -129q-38 -96 -73 -121 q-120 19 -239 54.5t-237 91t-223 125.5t-195.5 162t-156 196.5t-102.5 233t-37 267.5zM305 754q0 -214 88 -395.5t248 -323.5l55 6q170 20 291.5 76.5t195.5 149.5t108 212.5t34 274.5q0 288 -150 471.5t-401 214.5q-229 -33 -349 -216t-120 -470z" />
<glyph unicode="R" horiz-adv-x="1419" d="M90 1438q7 2 44.5 12.5t46 12.5t42.5 11t47 11t46 9t53.5 8.5t55 6t64.5 5.5t69 2.5t81 1.5q158 0 267.5 -30.5t172 -92.5t90 -144t27.5 -196q0 -308 -283 -387l258 -553l224 -35l-13 -80h-395l-29 156l-229 485q-24 -1 -50 -1q-87 0 -190 15v-385q0 -29 -2.5 -58 t-5.5 -46.5t-6.5 -34t-3.5 -18.5l207 -35l-14 -78h-519l-14 76l170 37v895q0 292 12 352l-207 -23zM489 752q172 -11 234 -11h16q142 5 200 76q58 72 58 232q0 296 -176 374q-51 3 -99 3q-124 0 -233 -17v-657z" />
<glyph unicode="S" horiz-adv-x="1175" d="M100 228q16 96 43 139q8 1 16 1q46 0 91 -20v-209q12 -6 46.5 -15.5t105 -19.5t143.5 -10q241 0 329 68q18 50 24 94q3 22 3 42q1 22 -3 40q-6 38 -19 68.5t-42 60.5t-59 54t-79.5 51.5t-95.5 50t-114 53.5q-51 23 -79.5 37t-69.5 34.5t-63 35t-51.5 35.5t-45 39 t-33 42.5t-26 50t-14 56.5t-5.5 67q0 97 33.5 174t88.5 125t130.5 80t153 44.5t162.5 12.5q107 0 204 -28.5t146 -67.5q11 -23 11 -63q0 -32 -7 -75q-16 -96 -43 -138q-9 -1 -17 -1q-47 0 -90 19v209q-18 9 -84 24t-120 15q-72 0 -130 -10.5t-111 -36.5t-89 -68 q-34 -41 -54 -107q-18 -60 -18 -137v-16q23 -20 49.5 -37t69.5 -38t69.5 -33t94.5 -41t100 -43q215 -93 319.5 -202.5t104.5 -254.5q0 -105 -40.5 -184t-113 -126.5t-167 -70.5t-209.5 -23q-158 0 -271.5 35t-169.5 80q-11 23 -11 63q0 32 7 75z" />
<glyph unicode="T" horiz-adv-x="1392" d="M45 1291q-7 63 -7 108q0 57 11 86h1292q11 -29 11 -86q0 -45 -7 -108q-15 -142 -47 -179h-11q-40 0 -83 18v246q-214 11 -327 11q-60 0 -91 -3v-1073q0 -72 -18 -198l233 -35l-14 -78h-571l-15 76l197 37v1101q0 79 14 170q-31 3 -91 3q-114 0 -335 -11v-246 q-43 -18 -83 -18h-11q-32 37 -47 179z" />
<glyph unicode="U" horiz-adv-x="1648" d="M94 1409l15 76h497l15 -78l-179 -37v-891q0 -96 32.5 -168.5t90 -115t128 -63.5t153.5 -21q148 0 258.5 66.5t171.5 180.5v1010l-160 41l14 76h412l14 -78l-178 -37v-862q0 -232 -151 -382.5t-379 -150.5q-594 0 -594 541v641q0 70 20 213z" />
<glyph unicode="V" horiz-adv-x="1472" d="M55 1409l15 76h497l15 -78l-209 -37l53 -125l287 -942l53 -219l57 219l303 936l56 131l-240 37l14 78h433l14 -76l-143 -39l-31 -131l-418 -1264h-174l-404 1244l-32 147z" />
<glyph unicode="W" horiz-adv-x="2150" d="M55 1409l15 76h497l15 -78l-199 -35l41 -133l254 -932l45 -203l47 205l250 893l-33 172l-147 33l14 78h498l14 -78l-205 -35l41 -123l248 -954l39 -191l43 187l278 944l48 137l-234 35l14 78h433l14 -76l-143 -37l-35 -164l-373 -1233h-174l-250 891l-41 176l-43 -176 l-256 -891h-174l-367 1248l-22 149z" />
<glyph unicode="X" horiz-adv-x="1488" d="M33 76l121 35l469 645l-441 624l-112 29l14 76h498l14 -78l-199 -35l103 -108l254 -398l286 426l76 80l-233 35l14 78h432l14 -76l-116 -29l-412 -571l496 -705l119 -28l-15 -76h-497l-15 78l199 35l-103 108l-317 461l-340 -489l-82 -80l234 -35l-15 -78h-432z" />
<glyph unicode="Y" horiz-adv-x="1464" d="M57 1409l15 76h497l15 -78l-199 -35l102 -108l318 -502l358 530l76 80l-233 35l14 78h432l14 -76l-96 -29l-530 -694v-416q0 -29 -3 -58t-6 -46.5t-6.5 -34t-3.5 -18.5l207 -35l-14 -78h-518l-15 76l170 37v581l-481 686z" />
<glyph unicode="Z" horiz-adv-x="1333" d="M127 1296q-7 60 -7 104q0 56 11 85h1022v-88l-709 -1178l-96 -127l719 12v261q43 18 83 18h11q32 -37 47 -184q7 -65 7 -111q0 -59 -11 -88h-1061v96l711 1192l86 109l-672 -19v-237q-45 -19 -84 -19h-10q-32 38 -47 174z" />
<glyph unicode="[" horiz-adv-x="507" d="M102 -209v1653h304v-98h-170v-1457h170v-98h-304z" />
<glyph unicode="\" horiz-adv-x="966" d="M123 1518l104 41l617 -1557l-105 -41z" />
<glyph unicode="]" horiz-adv-x="507" d="M102 -111h170v1457h-170v98h304v-1653h-304v98z" />
<glyph unicode="^" horiz-adv-x="790" d="M129 1204q40 33 73 89t51 98.5t52 75t82 32.5q40 0 69 -20t49 -54.5t37 -71.5t44.5 -80t60.5 -71l-102 -47l-158 188l-156 -188z" />
<glyph unicode="_" horiz-adv-x="1214" d="M96 0h1024v-119h-1024v119z" />
<glyph unicode="`" horiz-adv-x="653" d="M135 1466l117 76l250 -344l-103 -24z" />
<glyph unicode="a" horiz-adv-x="1110" d="M92 236q0 60 23 113.5t69 96.5t122.5 68t174.5 25q43 0 85 -5.5t65.5 -11.5t46 -13t24.5 -7v391q-81 21 -171 21q-45 0 -93 -5q-144 -16 -237 -69l-45 86q58 36 101 57.5t127 43.5t175 22q162 0 236.5 -113.5t74.5 -347.5v-107q0 -86 -3.5 -168.5t-7 -127t-5.5 -56.5h178 l17 -86q-80 -53 -189 -53q-117 0 -151 82q-124 -97 -320 -97q-297 0 -297 261zM276 225q0 -41 9 -75.5t18 -47.5q56 -16 129 -16q34 0 72 4q120 10 198 51v271q-79 34 -192 34q-110 0 -172 -54.5t-62 -166.5z" />
<glyph unicode="b" horiz-adv-x="1204" d="M31 1516q88 36 209 36q62 0 133 -10v-678q32 41 59.5 69.5t68.5 57.5t94 43.5t118 14.5q379 0 379 -463q0 -98 -22 -187t-68 -167t-113 -135t-162.5 -89.5t-210.5 -32.5q-54 0 -94.5 2t-72.5 6.5t-48.5 7.5t-48 11.5t-45.5 11.5v1254q0 50 6.5 104t11.5 64h-178zM365 96 q87 -16 161 -16q387 0 387 440q0 182 -64.5 295.5t-166.5 142.5q-142 -23 -307 -188v-537z" />
<glyph unicode="c" horiz-adv-x="1021" d="M113 434q0 173 67 313t190 221t279 81q56 0 115.5 -21t87.5 -47q14 -24 14 -66q0 -26 -6 -58q-14 -86 -47 -124h-13q-42 0 -89 17v182q-36 18 -95 18q-79 0 -145 -44t-106 -114.5t-62 -152t-22 -162.5q0 -123 19.5 -202t61.5 -142q70 -26 154 -26q14 1 30 1 q102 6 191.5 30.5t143.5 58.5l49 -82q-210 -140 -451 -140q-366 0 -366 459z" />
<glyph unicode="d" horiz-adv-x="1253" d="M113 438q0 122 30.5 231.5t87 194.5t143.5 135t193 50q32 0 60 -3t47.5 -6.5t39.5 -13t30.5 -14.5t26.5 -18.5t21 -18.5t20 -22t19 -21v336q0 49 7 103t12 65h-176l-17 80q88 36 209 36q62 0 133 -10v-1061q0 -86 -3.5 -168.5t-7 -127t-5.5 -56.5h178l17 -86 q-80 -53 -189 -53q-146 0 -155 149q-41 -54 -78 -86t-101.5 -55t-150.5 -23q-195 0 -293 120.5t-98 342.5zM293 463q0 -171 61 -265t201 -94q97 0 160.5 34.5t115.5 94.5v586q-50 50 -115.5 93.5t-127.5 54.5q-295 -76 -295 -504z" />
<glyph unicode="e" horiz-adv-x="1044" d="M115 434q0 175 63 315.5t177 220t257 79.5q79 0 139 -24.5t97.5 -66t59.5 -100.5q24 -60 30 -124q3 -34 3 -69q0 -33 -3 -69l-6 -117h-653q-1 -20 -1 -40q0 -86 21 -161q26 -92 66 -145q70 -26 154 -26q15 1 31 1q102 6 190.5 30.5t142.5 58.5l49 -82 q-210 -140 -451 -140q-366 0 -366 459zM289 563l483 23q6 46 6 89q0 83 -22 151q-33 104 -127 132q-71 -12 -122.5 -35t-96.5 -67.5t-74.5 -117t-46.5 -175.5z" />
<glyph unicode="f" horiz-adv-x="759" d="M113 76l155 37v798l-155 37l14 76h141v137q0 188 95.5 289.5t289.5 101.5q56 0 116 -20.5t87 -46.5q14 -24 14 -66q0 -25 -6 -58q-13 -86 -47 -124h-14l-88 16v183q-36 18 -94 18q-102 0 -185 -53v-377h201l14 -78l-215 -33v-643q0 -29 -2.5 -58t-5.5 -46.5t-6.5 -34 t-3.5 -18.5l192 -35l-14 -78h-469z" />
<glyph unicode="g" horiz-adv-x="1118" d="M70 -225q0 31 11 58t24.5 45t45.5 41t53 35.5t69 38.5q13 7 20 11q-75 0 -115.5 33.5t-40.5 93.5q0 130 166 252q-67 31 -116.5 109.5t-49.5 187.5q0 167 114.5 267t301.5 102l438 41v-129h-174q46 -31 83.5 -95t37.5 -147q0 -170 -117 -278.5t-301 -108.5q-82 0 -143 20 q-37 -37 -71 -104.5t-40 -110.5h652q64 -137 64 -242q0 -101 -58 -173q-118 -148 -467 -148q-37 0 -65 1t-70.5 5.5t-74 12t-67 22.5t-58 35.5t-37.5 52.5t-15 72zM240 -190q0 -77 57 -110.5t182 -33.5q101 0 173 22t107.5 57t48.5 79q9 28 9 55q0 17 -3 35q-9 44 -34 86 h-409q-131 -90 -131 -190zM305 698q0 -112 68 -189t172 -77q103 0 163 74t60 188t-29 172.5t-80 94.5h-32q-159 0 -240.5 -74t-81.5 -189z" />
<glyph unicode="h" horiz-adv-x="1361" d="M102 1516q88 36 209 36q62 0 133 -10v-645q2 1 29.5 21t40.5 28.5t44 27.5t55.5 29t58.5 22.5t70 18t73 5.5q173 0 250.5 -114.5t77.5 -365.5q0 -130 -17.5 -260.5t-31.5 -191.5l215 -37l-13 -80h-364q0 10 8.5 54t17.5 120.5t9 165.5v520q-73 45 -185 45 q-181 0 -338 -112v-523q0 -29 -2.5 -58t-5.5 -46.5t-6.5 -34t-3.5 -18.5l192 -35l-14 -78h-469l-14 76l155 37v1155q0 49 7 103t12 65h-176z" />
<glyph unicode="i" horiz-adv-x="677" d="M72 969q107 55 209 55q79 0 120 -42t41 -114v-598q0 -29 -2.5 -58t-5.5 -46.5t-6.5 -34t-3.5 -18.5l192 -35l-14 -78h-467l-14 76l155 37v616q0 49 7 100t12 62l-207 -23zM242 1321q0 62 27.5 89.5t88.5 27.5q64 0 90.5 -27.5t26.5 -89.5t-26.5 -89.5t-90.5 -27.5 q-61 0 -88.5 27.5t-27.5 89.5z" />
<glyph unicode="j" horiz-adv-x="557" d="M-184 -322l41 99q55 -30 159 -45q61 -9 123 -9q45 0 92 5v1001q0 49 7 100t12 62l-207 -23l-16 101q107 55 211 55q79 0 120 -42t41 -114v-938q0 -85 -12.5 -146.5t-42.5 -110.5t-85 -74t-136 -25q-105 0 -183 30.5t-124 73.5zM190 1321q0 61 28 89t89 28 q64 0 90.5 -27.5t26.5 -89.5t-26.5 -89.5t-90.5 -27.5q-61 0 -89 28t-28 89z" />
<glyph unicode="k" horiz-adv-x="1214" d="M72 1516q88 36 209 36q62 0 133 -10v-1007l356 337l86 54l-151 22l14 76h385l14 -80l-102 -16l-443 -363l377 -450l211 -35l-12 -80h-324l-411 524v-254q0 -29 -3 -58t-6 -46.5t-6.5 -34t-3.5 -18.5l193 -35l-15 -78h-469l-14 76l156 37v1155q0 50 6.5 104t11.5 64h-176z " />
<glyph unicode="l" horiz-adv-x="649" d="M72 1516q88 36 209 36q62 0 133 -10v-1272q0 -29 -3 -58t-6 -46.5t-6.5 -34t-3.5 -18.5l193 -35l-15 -78h-469l-14 76l156 37v1155q0 50 6.5 104t11.5 64h-176z" />
<glyph unicode="m" horiz-adv-x="2007" d="M72 969q107 55 209 55q120 0 161 -127q6 4 34.5 25.5t46.5 34t53.5 32t66 31t73 20.5t85.5 9q104 0 169.5 -37.5t102.5 -126.5l27 20q28 20 37.5 26.5t40 25.5t48.5 28t50.5 24t58.5 22t59.5 12.5t65.5 5.5q173 0 250.5 -114.5t77.5 -365.5q0 -130 -17.5 -260.5 t-31.5 -191.5l215 -37l-12 -80h-365q0 10 8.5 54t17.5 120.5t9 165.5v520q-72 45 -185 45q-174 0 -325 -104q26 -118 26 -328q0 -164 -28 -360l192 -35l-14 -78h-467l-14 76l155 37v747q-73 45 -184 45q-51 0 -101 -10.5t-80 -20.5t-68.5 -32t-45 -26.5t-31.5 -22.5v-523 q0 -29 -2.5 -58t-5.5 -46.5t-6.5 -34t-3.5 -18.5l192 -35l-14 -78h-467l-14 76l155 37v585q0 51 7 117t12 76l-207 -23z" />
<glyph unicode="n" horiz-adv-x="1359" d="M72 969q107 55 209 55q120 0 161 -127q2 1 29.5 21t40.5 28.5t44 27.5t55.5 29t58.5 22.5t70 18t73 5.5q173 0 250.5 -114.5t77.5 -365.5q0 -130 -17.5 -260.5t-31.5 -191.5l215 -37l-13 -80h-364q0 10 8.5 54t17.5 120.5t9 165.5v520q-73 45 -185 45q-181 0 -338 -112 v-523q0 -29 -2.5 -58t-5.5 -46.5t-6.5 -34t-3.5 -18.5l192 -35l-14 -78h-467l-14 76l155 37v616q0 49 7 100t12 62l-207 -23z" />
<glyph unicode="o" horiz-adv-x="1177" d="M113 494q0 151 56.5 276t169 202t261.5 77q221 0 343 -140.5t122 -365.5q0 -113 -33 -215t-94 -181t-156 -125.5t-211 -46.5q-150 0 -255 70t-154 185t-49 264zM291 512q0 -185 84.5 -301.5t226.5 -140.5q135 25 211 142.5t76 299.5q0 184 -89.5 303.5t-232.5 140.5 q-132 -21 -204 -140.5t-72 -303.5z" />
<glyph unicode="p" horiz-adv-x="1255" d="M47 969q107 55 209 55q159 0 168 -160q32 41 59.5 69.5t68.5 57.5t94 43.5t118 14.5q379 0 379 -463q0 -98 -22 -187t-68 -167t-113 -135t-162.5 -89.5t-210.5 -32.5q-80 0 -141 7v-138q0 -29 -2.5 -58t-5.5 -46.5t-6.5 -34t-3.5 -18.5l192 -35l-14 -78h-469l-15 76 l156 37v852q0 292 12 352l-207 -23zM426 76q87 -14 163 -14h15q82 2 148.5 32t114 83.5t73 140t25.5 202.5q0 182 -65 295.5t-167 142.5q-142 -23 -307 -188v-694z" />
<glyph unicode="q" horiz-adv-x="1204" d="M113 438q0 98 21.5 187t68 167t113 135t162 89.5t210.5 32.5q54 0 94.5 -2t72.5 -6.5t48.5 -7.5t48 -11.5t45.5 -11.5v-1164q0 -29 -2.5 -58t-5.5 -46.5t-6.5 -34t-3.5 -18.5l192 -35l-14 -78h-467l-14 76l155 37v471q-32 -42 -59.5 -70t-68.5 -57t-93.5 -43.5 t-117.5 -14.5q-379 0 -379 463zM291 504q0 -182 64.5 -295.5t166.5 -142.5q142 23 307 188v510l9 164q-86 15 -159 15q-388 0 -388 -439z" />
<glyph unicode="r" horiz-adv-x="907" d="M72 969q107 55 209 55q79 0 120 -42t41 -114v-2q53 68 142 125.5t168 57.5q30 0 53 -26t33 -62q10 -37 14 -75q2 -13 2 -24q0 -23 -6 -39q-19 -12 -54.5 -23t-64.5 -12l-80 93q-126 -38 -207 -103v-508q0 -29 -2.5 -58t-5.5 -46.5t-6.5 -34t-3.5 -18.5l192 -35l-14 -78 h-467l-14 76l155 37v616q0 49 7 100t12 62l-207 -23z" />
<glyph unicode="s" horiz-adv-x="948" d="M128 183q14 86 48 124q8 1 17 1q43 0 86 -17v-182q16 -12 62.5 -23.5t113.5 -11.5q119 0 194 32q6 36 7 66t0 53.5t-10 45t-15.5 36t-24.5 30.5t-28 24.5t-36 22t-39.5 20t-46 21t-48.5 21.5q-38 17 -55 25.5t-51 27t-51.5 32.5t-41.5 37.5t-36 47t-21 55.5t-9 68 q0 150 95 230t274 80q91 0 166 -21.5t104 -48.5q14 -24 14 -66q0 -26 -6 -58q-14 -86 -47 -124h-13q-42 0 -89 17v188q-54 27 -129 27q-103 0 -169.5 -57.5t-66.5 -172.5q31 -28 85.5 -56t177.5 -81q161 -67 223.5 -142t62.5 -188q0 -98 -48.5 -165t-128 -96.5t-185.5 -29.5 q-104 0 -200 28t-126 56q-14 24 -14 66q0 25 5 58z" />
<glyph unicode="t" horiz-adv-x="720" d="M72 948l14 76h123v240l168 41v-281h227l14 -78l-241 -35v-825q122 6 237 70l35 -105q-82 -76 -221 -76q-127 0 -173 66t-46 254v620z" />
<glyph unicode="u" horiz-adv-x="1378" d="M53 987q46 18 103 30t131 14q8 0 16 1q65 0 121 -18v-856q72 -45 184 -45q181 0 338 112v477q0 73 6.5 133.5t12.5 71.5h-207l-17 80q46 18 103 30t131 14q8 0 16 1q65 0 121 -18v-725q0 -49 -6.5 -100t-11.5 -62l206 23l17 -101q-107 -55 -209 -55q-121 0 -162 127 q-2 -1 -29.5 -21t-40.5 -28.5t-44 -27.5t-55.5 -29t-58.5 -22.5t-70 -18t-73 -5.5q-172 0 -247.5 114t-75.5 366v153q0 77 5 149.5t10 110.5t9 45h-206z" />
<glyph unicode="v" horiz-adv-x="1146" d="M31 948l14 76h367l14 -78l-127 -28l59 -115l250 -729l230 717l63 120h-2l-151 35l14 78h340l14 -76l-112 -26l-334 -947h-195l-348 949z" />
<glyph unicode="w" horiz-adv-x="1728" d="M31 948l14 76h367l14 -78l-125 -28l51 -117l201 -723l266 946h152l286 -946l191 733l45 100l-164 35l14 78h340l15 -76l-99 -22l-286 -951h-187l-231 699l-33 149l-31 -149l-223 -699h-184l-279 945z" />
<glyph unicode="x" horiz-adv-x="1114" d="M51 76l101 22l313 414l-301 418l-76 18l14 76h367l14 -78l-123 -28l66 -68l168 -234l170 242l59 55l-166 33l15 78h354l14 -76l-88 -20l-299 -387l301 -441l109 -24l-14 -76h-392l-14 78l137 31l-75 73l-181 252l-164 -258l-73 -67l157 -31l-14 -78h-364z" />
<glyph unicode="y" horiz-adv-x="1155" d="M29 -309l41 98q53 -29 164 -45q71 -11 142 -11q39 0 77 3l98 241l-436 951l-80 20l14 76h367l14 -78l-131 -31l63 -112l279 -608l211 608l57 108h-2l-151 35l14 78h340l14 -76l-94 -22l-475 -1182q-26 -67 -48 -100.5t-60 -51.5t-101 -18q-103 0 -185.5 36t-131.5 81z " />
<glyph unicode="z" horiz-adv-x="1099" d="M113 0v63l610 877l-422 -27q-22 -92 -36 -118q-31 -54 -103 -64l-21 293h803v-63l-602 -871l487 31q9 41 16.5 63.5t22 49t39 40.5t60.5 19l20 -293h-874z" />
<glyph unicode="{" horiz-adv-x="679" d="M117 539v73q3 2 17 8t19 9t17.5 11t18 16.5t15.5 21.5t14.5 29.5t10 38.5t7.5 51t2 63v74q0 77 8.5 139t21.5 106t37.5 79.5t46.5 57t59 40.5t65 29t73 24l29 -66l-195 -104v-383q0 -40 -1.5 -72t-6.5 -57.5t-8 -42.5t-14 -33.5t-14.5 -23.5t-20 -20t-21 -15.5 t-25.5 -16.5q26 -17 33.5 -22t25.5 -21.5t23.5 -32.5t14.5 -44.5t11.5 -67.5t2.5 -92v-383l195 -105l-29 -65q-45 14 -73 24t-65 29t-59 40.5t-46.5 57t-37.5 79.5t-21.5 106t-8.5 139v74q0 62 -8.5 107.5t-19 69.5t-30.5 40.5t-30.5 20.5t-32.5 10z" />
<glyph unicode="|" horiz-adv-x="440" d="M164 -178v1673h112v-1673h-112z" />
<glyph unicode="}" horiz-adv-x="679" d="M117 -193l194 105v383q0 53 2.5 92t11.5 67.5t14.5 44.5t23.5 32.5t25.5 21.5t33.5 22q-21 14 -25.5 16.5t-21 15.5t-20 20t-14.5 23.5t-14 33.5t-8 42.5t-6.5 57.5t-1.5 72v383l-194 104l28 66q45 -14 73 -24t65 -29t59.5 -40.5t46.5 -57t37.5 -79.5t22 -106t8.5 -139 v-74q0 -34 2 -63t7.5 -51t10 -38.5t14.5 -29.5t15.5 -21.5t18 -16.5t17.5 -11t19 -9t17 -8v-73q-22 -6 -32.5 -10t-30.5 -20.5t-30.5 -40.5t-19 -69.5t-8.5 -107.5v-74q0 -77 -8.5 -139t-22 -106t-37.5 -79.5t-46.5 -57t-59.5 -40.5t-65 -29t-73 -24z" />
<glyph unicode="~" horiz-adv-x="933" d="M100 633q44 39 84.5 64t85.5 38.5t94.5 10.5t104.5 -23q57 -21 101 -27t81.5 3t61 21t61.5 36q12 -4 36 -33.5t30 -42.5q-59 -53 -115.5 -79.5t-122 -31t-135.5 22.5q-57 21 -101 27t-81.5 -4t-60.5 -21.5t-62 -36.5q-12 4 -34 33t-28 43z" />
<glyph unicode="&#xa1;" horiz-adv-x="477" d="M139 -453l131 1112h41l58 -1112h-230zM172 928q0 59 24.5 83.5t84.5 24.5q59 0 83.5 -25t24.5 -83q0 -59 -25 -84t-83 -25q-60 0 -84.5 25t-24.5 84z" />
<glyph unicode="&#xa2;" horiz-adv-x="1021" d="M113 434q0 205 94 361t254 219v194h112v-166q76 12 151 -1.5t128 -59.5q22 -38 8.5 -124t-47.5 -124q-48 -3 -102 17v182q-58 28 -138 14v-860q78 6 138 31v184q51 19 102 16q34 -38 47.5 -123.5t-8.5 -123.5q-110 -77 -279 -90v-158h-112v155q-185 10 -266.5 120 t-81.5 337zM281 477q0 -254 81 -375q26 -11 99 -18v813q-85 -61 -132.5 -180t-47.5 -240z" />
<glyph unicode="&#xa3;" horiz-adv-x="1150" d="M115 715v88h127q-31 132 -31 254q0 108 36 198t96.5 147.5t136 88.5t157.5 31q100 0 190 -29.5t138 -60.5q22 -38 8 -153t-47 -153q-60 -4 -113 19v248q-52 26 -137 26q-136 0 -206.5 -90.5t-70.5 -238.5q0 -37 4.5 -79.5t8.5 -65.5t14.5 -75.5t13.5 -66.5h365v-88h-352 q24 -159 -9 -290.5t-129 -279.5h437q60 0 96 8.5t62.5 33.5t37 70.5t10.5 119.5h123q0 -91 -16.5 -157.5t-54 -117.5t-103.5 -76.5t-162 -25.5h-577l-51 70q65 85 114.5 207.5t49.5 246.5q0 84 -21 191h-145z" />
<glyph unicode="&#xa5;" horiz-adv-x="1464" d="M57 1409l15 76h497l15 -78l-199 -35l102 -108l318 -502l358 530l76 80l-233 35l14 78h432l14 -76l-96 -29l-530 -694v-416q0 -29 -3 -58t-6 -46.5t-6.5 -34t-3.5 -18.5l207 -35l-14 -78h-518l-15 76l170 37v581l-481 686z" />
<glyph unicode="&#xa6;" horiz-adv-x="391" d="M139 -178v641h113v-641h-113zM139 854v641h113v-641h-113z" />
<glyph unicode="&#xa7;" horiz-adv-x="948" d="M123 1085q0 150 95 230t274 80q91 0 166 -21.5t104 -48.5q22 -38 8.5 -124t-47.5 -124q-48 -3 -102 17v188q-54 27 -129 27q-103 0 -169.5 -57.5t-66.5 -172.5q31 -28 85 -56.5t177 -80.5q161 -68 224 -142.5t63 -187.5q0 -217 -227 -276q-52 -13 -144 12l105 -43 q160 -66 223 -141.5t63 -188.5q0 -145 -99.5 -217.5t-262.5 -72.5q-104 0 -200 28t-126 56q-22 38 -8.5 123.5t47.5 123.5q51 4 103 -16v-182q16 -12 62.5 -23.5t113.5 -11.5q116 0 194 33q6 36 7 66t0 53.5t-10 45t-15.5 36t-24.5 30.5t-28 24.5t-36 22t-39.5 20t-46 21 t-48.5 21.5q-38 17 -55 25.5t-51 27t-51.5 32.5t-41.5 37.5t-36 47t-21 55.5t-9 68q0 135 74 213.5t217 87.5q23 1 60.5 -3.5t54.5 -9.5q-9 4 -68 22.5t-94 33.5q-49 21 -77.5 35t-69 41t-62.5 54.5t-38.5 69.5t-16.5 92zM276 444q54 -24 158 -24q96 0 149.5 40.5 t53.5 117.5q0 43 -19 75q-59 19 -106 19q-103 0 -169.5 -57t-66.5 -171z" />
<glyph unicode="&#xa8;" horiz-adv-x="843" d="M145 1317q0 54 24.5 78t78.5 24q56 0 79 -23.5t23 -78.5t-23 -79t-79 -24q-54 0 -78.5 24.5t-24.5 78.5zM453 1317q0 54 24 78t78 24q56 0 79 -23.5t23 -78.5t-23 -79t-79 -24q-54 0 -78 24.5t-24 78.5z" />
<glyph unicode="&#xa9;" horiz-adv-x="1372" d="M82 1004q0 267 168.5 435.5t435.5 168.5t435.5 -168.5t168.5 -435.5t-168.5 -436t-435.5 -169t-435.5 169t-168.5 436zM164 1004q0 -232 145 -377.5t377 -145.5t377 145.5t145 377.5t-145 377t-377 145t-377 -145t-145 -377zM397 971q0 172 97 285.5t251 113.5 q36 0 74.5 -13.5t57.5 -29.5q15 -25 6 -81t-31 -81q-34 0 -66 11v118q-26 13 -61 13q-68 0 -119.5 -49.5t-75.5 -118.5t-24 -140q0 -143 53 -223q54 -20 120 -16.5t124 19.5t94 38l31 -53q-132 -90 -293 -90q-238 0 -238 297z" />
<glyph unicode="&#xab;" horiz-adv-x="1271" d="M96 479v74l459 448l98 -92l-467 -393l467 -393l-98 -92zM584 479v74l458 448l99 -92l-467 -393l467 -393l-99 -92z" />
<glyph unicode="&#xac;" horiz-adv-x="1216" d="M76 662v116h1036v-547h-117v431h-919z" />
<glyph unicode="&#xad;" horiz-adv-x="976" d="M96 510v119h783v-119h-783z" />
<glyph unicode="&#xae;" horiz-adv-x="1372" d="M82 1004q0 267 168.5 435.5t435.5 168.5t435.5 -168.5t168.5 -435.5t-168.5 -436t-435.5 -169t-435.5 169t-168.5 436zM164 1004q0 -232 145 -377.5t377 -145.5t377 145.5t145 377.5t-145 377t-377 145t-377 -145t-145 -377zM430 1298q74 37 137 37q52 0 79.5 -28 t27.5 -74v-2q36 45 93.5 83t109.5 38q38 0 56 -56t7 -94q-29 -18 -78 -22l-53 61q-82 -23 -135 -67v-334q0 -55 -12 -103l126 -22l-10 -51h-305l-10 49l102 24v404q0 32 4.5 65.5t8.5 40.5l-136 -14z" />
<glyph unicode="&#xaf;" horiz-adv-x="790" d="M174 1274v119h440v-119h-440z" />
<glyph unicode="&#xb0;" horiz-adv-x="808" d="M78 1180q0 142 91.5 239t223.5 97q142 0 230 -92.5t88 -243.5q0 -142 -93.5 -244t-224.5 -102q-139 0 -227 97.5t-88 248.5zM203 1180q0 -98 51.5 -162t138.5 -64q80 0 136.5 67.5t56.5 158.5q0 96 -53 156.5t-140 60.5q-80 0 -135 -65t-55 -152z" />
<glyph unicode="&#xb1;" horiz-adv-x="958" d="M88 264v119h782v-119h-782zM88 825v119h334v332h117v-332h331v-119h-331v-331h-117v331h-334z" />
<glyph unicode="&#xb4;" horiz-adv-x="653" d="M135 1198l250 344l117 -76l-264 -292z" />
<glyph unicode="&#xb6;" horiz-adv-x="1705" d="M104 881q0 312 213 481.5t627 169.5q106 0 201 -7.5t174 -23t124 -26t107 -29.5t68 -21l-31 -98q-125 44 -248 64v-1510h-137l51 1528q-169 21 -286 18v-1546h-142l15 391q-171 8 -305 48.5t-231 114.5t-148.5 187t-51.5 259z" />
<glyph unicode="&#xb7;" horiz-adv-x="479" d="M123 535q0 61 27.5 88.5t89.5 27.5q64 0 90 -27t26 -89t-26 -89.5t-90 -27.5q-62 0 -89.5 28t-27.5 89z" />
<glyph unicode="&#xb8;" horiz-adv-x="798" d="M213 -461q67 -6 128.5 6t111 43.5t67 84.5t-3.5 130q-64 8 -116.5 -3t-75.5 -25h-45l77 241l90 -6l-43 -143q96 19 170 -24.5t74 -145.5q0 -46 -20.5 -83.5t-55 -62t-79 -43t-93 -26t-97 -11t-89.5 2.5v65z" />
<glyph unicode="&#xbb;" horiz-adv-x="1271" d="M96 123l467 393l-467 393l99 92l458 -448v-74l-458 -448zM584 123l467 393l-467 393l98 92l459 -448v-74l-459 -448z" />
<glyph unicode="&#xbf;" horiz-adv-x="933" d="M63 -123q0 72 21.5 136t55.5 112t75 93t82 87.5t75 85.5t55.5 96.5t21.5 112.5v102h98v-100q0 -81 -22.5 -150t-56 -114.5t-73 -95.5t-73 -93.5t-56 -108.5t-22.5 -140q0 -117 28 -203t68 -119q190 8 344 115v209q84 8 136 -26t52 -122q0 -73 -70.5 -131t-175.5 -87.5 t-218 -29.5q-182 0 -263.5 95.5t-81.5 275.5zM395 930q0 59 24.5 83.5t84.5 24.5q58 0 83 -25t25 -83q0 -59 -25 -84t-83 -25q-60 0 -84.5 25t-24.5 84z" />
<glyph unicode="&#xc0;" horiz-adv-x="1474" d="M51 76l129 37l377 1118l70 160l-215 32l14 78h412l456 -1388l129 -37l-14 -76h-498l-14 78l195 35l-131 417h-539l-137 -417l227 -35l-14 -78h-432zM416 1927l116 76l250 -344l-102 -25zM451 618h483l-236 754z" />
<glyph unicode="&#xc1;" horiz-adv-x="1474" d="M51 76l129 37l377 1118l70 160l-215 32l14 78h412l456 -1388l129 -37l-14 -76h-498l-14 78l195 35l-131 417h-539l-137 -417l227 -35l-14 -78h-432zM451 618h483l-236 754zM647 1659l250 344l117 -76l-264 -293z" />
<glyph unicode="&#xc2;" horiz-adv-x="1474" d="M51 76l129 37l377 1118l70 160l-215 32l14 78h412l456 -1388l129 -37l-14 -76h-498l-14 78l195 35l-131 417h-539l-137 -417l227 -35l-14 -78h-432zM451 618h483l-236 754zM457 1688l256 280l258 -280l-99 -50l-159 168l-158 -168z" />
<glyph unicode="&#xc3;" horiz-adv-x="1474" d="M51 76l129 37l377 1118l70 160l-215 32l14 78h412l456 -1388l129 -37l-14 -76h-498l-14 78l195 35l-131 417h-539l-137 -417l227 -35l-14 -78h-432zM444 1649q-6 89 33.5 140.5t108.5 51.5q40 0 79 -19t64.5 -42.5t54.5 -42.5t52 -19v117l104 -14q6 -89 -33 -141 t-108 -52q-39 0 -78 19t-65.5 42.5t-56 42.5t-50.5 19v-117zM451 618h483l-236 754z" />
<glyph unicode="&#xc4;" horiz-adv-x="1474" d="M51 76l129 37l377 1118l70 160l-215 32l14 78h412l456 -1388l129 -37l-14 -76h-498l-14 78l195 35l-131 417h-539l-137 -417l227 -35l-14 -78h-432zM440 1726q0 54 24.5 78.5t78.5 24.5q56 0 79 -24t23 -79t-23 -78.5t-79 -23.5q-54 0 -78.5 24t-24.5 78zM451 618h483 l-236 754zM748 1726q0 54 24 78.5t78 24.5q56 0 79 -24t23 -79t-23 -78.5t-79 -23.5q-54 0 -78 24t-24 78z" />
<glyph unicode="&#xc5;" horiz-adv-x="1474" d="M51 76l129 37l377 1118l70 160l-215 32l14 78h412l456 -1388l129 -37l-14 -76h-498l-14 78l195 35l-131 417h-539l-137 -417l227 -35l-14 -78h-432zM451 618h483l-236 754zM530 1778q0 84 51.5 142t133.5 58q80 0 127 -51t47 -131q0 -85 -50.5 -145t-133.5 -60 q-81 0 -128 53t-47 134zM616 1784q0 -52 28.5 -85.5t70.5 -39.5q39 6 63.5 40.5t24.5 84.5q0 52 -28.5 87.5t-69.5 41.5q-39 -6 -64 -41t-25 -88z" />
<glyph unicode="&#xc6;" horiz-adv-x="1863" d="M51 76l129 37l377 1118l70 160l-215 32l14 78q16 -1 77.5 -5t132.5 -7.5t130 -3.5h965q19 -53 4 -190.5t-47 -174.5q-44 -3 -95 19v237q-124 6 -364.5 9t-351.5 -3l196 -600h240q52 0 110 -4q7 126 39 189l90 -15v-424l-82 -12q-16 22 -31 71t-16 101q-31 -2 -112 -2 h-205l188 -573l52 -15q27 1 274 8v256q51 22 94 19q32 -37 47 -183t-4 -198h-846l-14 78l195 35l-131 417h-539l-137 -417l227 -35l-14 -78h-432zM451 618h483l-236 754z" />
<glyph unicode="&#xc7;" horiz-adv-x="1427" d="M123 618q0 154 27 286.5t87.5 247.5t151 196t224 127.5t300.5 46.5q106 0 203.5 -30.5t147.5 -70.5q22 -38 8 -152.5t-47 -152.5q-60 -4 -113 19v237q-19 9 -79.5 23t-114.5 14q-144 0 -251 -38t-171 -99.5t-103.5 -155.5t-53 -190.5t-13.5 -218.5q0 -181 46 -345.5 t107 -232.5q407 -62 776 96l50 -73q-100 -66 -234 -113.5t-287 -58.5l-39 -132q96 19 170 -24.5t74 -145.5q0 -46 -20.5 -83.5t-55 -62t-79 -43t-93 -26t-97 -11t-89.5 2.5v66q67 -6 128.5 6t111 43.5t67 84.5t-3.5 130q-64 8 -116.5 -3.5t-75.5 -25.5h-45l69 219 q-280 3 -423.5 167.5t-143.5 475.5z" />
<glyph unicode="&#xc8;" horiz-adv-x="1331" d="M92 1432q267 53 594 53h512q19 -53 4 -190.5t-47 -174.5q-43 -3 -94 19v237q-461 21 -569 6v-600h288q53 0 111 -4q7 126 39 189l90 -15v-424l-82 -12q-16 22 -31 71t-16 101q-31 -2 -113 -2h-286v-416q0 -72 -21 -174q87 -4 171 -2.5t240.5 6.5t204.5 6v256q51 22 95 19 q32 -37 47 -183t-4 -198h-1078l-14 76l170 37v862q0 128 4 239t8 129l-206 -12zM428 1880l117 76l250 -344l-103 -25z" />
<glyph unicode="&#xc9;" horiz-adv-x="1331" d="M92 1432q267 53 594 53h512q19 -53 4 -190.5t-47 -174.5q-43 -3 -94 19v237q-461 21 -569 6v-600h288q53 0 111 -4q7 126 39 189l90 -15v-424l-82 -12q-16 22 -31 71t-16 101q-31 -2 -113 -2h-286v-416q0 -72 -21 -174q87 -4 171 -2.5t240.5 6.5t204.5 6v256q51 22 95 19 q32 -37 47 -183t-4 -198h-1078l-14 76l170 37v862q0 128 4 239t8 129l-206 -12zM657 1638l250 344l117 -75l-264 -293z" />
<glyph unicode="&#xca;" horiz-adv-x="1331" d="M92 1432q267 53 594 53h512q19 -53 4 -190.5t-47 -174.5q-43 -3 -94 19v237q-461 21 -569 6v-600h288q53 0 111 -4q7 126 39 189l90 -15v-424l-82 -12q-16 22 -31 71t-16 101q-31 -2 -113 -2h-286v-416q0 -72 -21 -174q87 -4 171 -2.5t240.5 6.5t204.5 6v256q51 22 95 19 q32 -37 47 -183t-4 -198h-1078l-14 76l170 37v862q0 128 4 239t8 129l-206 -12zM461 1675l256 281l258 -281l-98 -49l-160 168l-158 -168z" />
<glyph unicode="&#xcb;" horiz-adv-x="1331" d="M92 1432q267 53 594 53h512q19 -53 4 -190.5t-47 -174.5q-43 -3 -94 19v237q-461 21 -569 6v-600h288q53 0 111 -4q7 126 39 189l90 -15v-424l-82 -12q-16 22 -31 71t-16 101q-31 -2 -113 -2h-286v-416q0 -72 -21 -174q87 -4 171 -2.5t240.5 6.5t204.5 6v256q51 22 95 19 q32 -37 47 -183t-4 -198h-1078l-14 76l170 37v862q0 128 4 239t8 129l-206 -12zM498 1718q0 54 24 78.5t78 24.5q56 0 79 -24t23 -79t-23 -78.5t-79 -23.5q-54 0 -78 24t-24 78zM805 1718q0 54 24 78.5t78 24.5q56 0 79.5 -24t23.5 -79t-23.5 -78.5t-79.5 -23.5 q-54 0 -78 24t-24 78z" />
<glyph unicode="&#xcc;" horiz-adv-x="794" d="M115 1407l14 78h518l15 -76l-170 -37v-1102q0 -29 -3 -58t-6 -46.5t-6.5 -34t-3.5 -18.5l207 -35l-14 -78h-519l-14 76l170 37v1101q0 29 3 58.5t6 47t6.5 34t3.5 18.5zM147 1923l117 76l250 -344l-102 -25z" />
<glyph unicode="&#xcd;" horiz-adv-x="794" d="M115 1407l14 78h518l15 -76l-170 -37v-1102q0 -29 -3 -58t-6 -46.5t-6.5 -34t-3.5 -18.5l207 -35l-14 -78h-519l-14 76l170 37v1101q0 29 3 58.5t6 47t6.5 34t3.5 18.5zM332 1663l250 344l116 -76l-264 -293z" />
<glyph unicode="&#xce;" horiz-adv-x="794" d="M115 1407l14 78h518l15 -76l-170 -37v-1102q0 -29 -3 -58t-6 -46.5t-6.5 -34t-3.5 -18.5l207 -35l-14 -78h-519l-14 76l170 37v1101q0 29 3 58.5t6 47t6.5 34t3.5 18.5zM139 1688l256 280l258 -280l-98 -50l-160 168l-157 -168z" />
<glyph unicode="&#xcf;" horiz-adv-x="794" d="M115 1407l14 78h518l15 -76l-170 -37v-1102q0 -29 -3 -58t-6 -46.5t-6.5 -34t-3.5 -18.5l207 -35l-14 -78h-519l-14 76l170 37v1101q0 29 3 58.5t6 47t6.5 34t3.5 18.5zM152 1741q0 54 24 78t78 24q56 0 79 -23.5t23 -78.5t-23 -79t-79 -24q-54 0 -78 24.5t-24 78.5z M459 1741q0 54 24 78t78 24q56 0 79.5 -23.5t23.5 -78.5t-23.5 -79t-79.5 -24q-54 0 -78 24.5t-24 78.5z" />
<glyph unicode="&#xd0;" horiz-adv-x="1517" d="M94 1438q144 40 269.5 60t306.5 20q122 0 224.5 -25.5t176 -68t131 -103.5t93 -128t59 -144.5t32.5 -149.5t9 -147q0 -354 -203 -553t-600 -199h-442l-15 76l170 37v624h-201v119h201v152q0 292 12 352l-206 -23zM477 94h219q236 0 368 162t132 463q0 116 -19 216.5 t-51.5 170.5t-69 125t-78.5 91.5t-71.5 56.5t-56.5 32q-208 10 -356 -12v-543h256v-119h-256v-415q0 -72 -17 -228z" />
<glyph unicode="&#xd1;" horiz-adv-x="1714" d="M154 1407l14 78h268l756 -971l139 -215v915q0 29 3 58.5t6 47t6.5 34t3.5 18.5l-207 35l14 78h428l14 -76l-169 -37v-1372h-80l-760 981l-150 240v-1108l189 -35l-15 -78h-428l-14 76l170 37v1101q0 29 2.5 58.5t5.5 47t6.5 34t3.5 18.5zM657 1645q-6 89 33.5 140.5 t108.5 51.5q40 0 79 -19t64.5 -42.5t54.5 -42.5t52 -19v117l104 -14q6 -89 -33 -141t-108 -52q-39 0 -78 19t-65.5 42.5t-56 42.5t-50.5 19v-117z" />
<glyph unicode="&#xd2;" d="M123 727q0 163 48.5 309t136.5 257t223 176t298 65q162 0 291 -55.5t212.5 -154t128 -232.5t44.5 -293q0 -131 -29.5 -252.5t-90 -225.5t-145 -181t-201 -121t-251.5 -44q-164 0 -292.5 58t-209 160.5t-122 237.5t-41.5 296zM305 754q0 -287 141.5 -466t391.5 -214 q235 38 361 218t126 462q0 288 -150 471.5t-401 214.5q-229 -33 -349 -216t-120 -470zM549 1937l117 76l249 -344l-102 -24z" />
<glyph unicode="&#xd3;" d="M123 727q0 163 48.5 309t136.5 257t223 176t298 65q162 0 291 -55.5t212.5 -154t128 -232.5t44.5 -293q0 -131 -29.5 -252.5t-90 -225.5t-145 -181t-201 -121t-251.5 -44q-164 0 -292.5 58t-209 160.5t-122 237.5t-41.5 296zM305 754q0 -287 141.5 -466t391.5 -214 q235 38 361 218t126 462q0 288 -150 471.5t-401 214.5q-229 -33 -349 -216t-120 -470zM737 1669l250 344l117 -76l-264 -292z" />
<glyph unicode="&#xd4;" d="M123 727q0 163 48.5 309t136.5 257t223 176t298 65q162 0 291 -55.5t212.5 -154t128 -232.5t44.5 -293q0 -131 -29.5 -252.5t-90 -225.5t-145 -181t-201 -121t-251.5 -44q-164 0 -292.5 58t-209 160.5t-122 237.5t-41.5 296zM305 754q0 -287 141.5 -466t391.5 -214 q235 38 361 218t126 462q0 288 -150 471.5t-401 214.5q-229 -33 -349 -216t-120 -470zM557 1688l256 280l258 -280l-98 -50l-160 168l-158 -168z" />
<glyph unicode="&#xd5;" d="M123 727q0 163 48.5 309t136.5 257t223 176t298 65q162 0 291 -55.5t212.5 -154t128 -232.5t44.5 -293q0 -131 -29.5 -252.5t-90 -225.5t-145 -181t-201 -121t-251.5 -44q-164 0 -292.5 58t-209 160.5t-122 237.5t-41.5 296zM305 754q0 -287 141.5 -466t391.5 -214 q235 38 361 218t126 462q0 288 -150 471.5t-401 214.5q-229 -33 -349 -216t-120 -470zM567 1649q-6 89 33.5 140.5t108.5 51.5q40 0 79 -19t64 -42.5t54 -42.5t52 -19v117l105 -14q6 -89 -33 -141t-108 -52q-39 0 -78 19t-65.5 42.5t-56 42.5t-50.5 19v-117z" />
<glyph unicode="&#xd6;" d="M123 727q0 163 48.5 309t136.5 257t223 176t298 65q162 0 291 -55.5t212.5 -154t128 -232.5t44.5 -293q0 -131 -29.5 -252.5t-90 -225.5t-145 -181t-201 -121t-251.5 -44q-164 0 -292.5 58t-209 160.5t-122 237.5t-41.5 296zM305 754q0 -287 141.5 -466t391.5 -214 q235 38 361 218t126 462q0 288 -150 471.5t-401 214.5q-229 -33 -349 -216t-120 -470zM555 1751q0 54 24 78t78 24q56 0 79.5 -23.5t23.5 -78.5t-23.5 -78.5t-79.5 -23.5q-54 0 -78 24t-24 78zM862 1751q0 54 24.5 78t78.5 24q56 0 79 -23.5t23 -78.5t-23 -78.5t-79 -23.5 q-54 0 -78.5 24t-24.5 78z" />
<glyph unicode="&#xd7;" horiz-adv-x="851" d="M106 428l236 236l-233 235l81 84l236 -235l233 235l84 -84l-233 -235l233 -234l-81 -84l-234 236l-238 -238z" />
<glyph unicode="&#xd8;" d="M123 727q0 163 48.5 309t136.5 257t223 176t298 65q120 0 222 -31l57 137l104 -41l-57 -137q170 -87 260 -260.5t90 -402.5q0 -131 -29.5 -252.5t-90 -225.5t-145 -181t-201 -121t-251.5 -44q-112 0 -213 29l-65 -170l-104 41l65 170q-171 86 -259.5 266t-88.5 416z M305 754q0 -369 227 -555l467 1171q-101 55 -225 70q-229 -33 -349 -216t-120 -470zM629 137q95 -48 209 -63q235 38 361 218t126 462q0 179 -60 320t-171 233z" />
<glyph unicode="&#xd9;" horiz-adv-x="1648" d="M94 1409l15 76h497l15 -78l-179 -37v-891q0 -96 32.5 -168.5t90 -115t128 -63.5t153.5 -21q148 0 258.5 66.5t171.5 180.5v1010l-160 41l14 76h412l14 -78l-178 -37v-862q0 -232 -151 -382.5t-379 -150.5q-594 0 -594 541v641q0 70 20 213zM594 1872l117 76l250 -344 l-103 -25z" />
<glyph unicode="&#xda;" horiz-adv-x="1648" d="M94 1409l15 76h497l15 -78l-179 -37v-891q0 -96 32.5 -168.5t90 -115t128 -63.5t153.5 -21q148 0 258.5 66.5t171.5 180.5v1010l-160 41l14 76h412l14 -78l-178 -37v-862q0 -232 -151 -382.5t-379 -150.5q-594 0 -594 541v641q0 70 20 213zM766 1642l250 345l117 -76 l-265 -293z" />
<glyph unicode="&#xdb;" horiz-adv-x="1648" d="M94 1409l15 76h497l15 -78l-179 -37v-891q0 -96 32.5 -168.5t90 -115t128 -63.5t153.5 -21q148 0 258.5 66.5t171.5 180.5v1010l-160 41l14 76h412l14 -78l-178 -37v-862q0 -232 -151 -382.5t-379 -150.5q-594 0 -594 541v641q0 70 20 213zM612 1630l256 281l258 -281 l-98 -49l-160 168l-157 -168z" />
<glyph unicode="&#xdc;" horiz-adv-x="1648" d="M94 1409l15 76h497l15 -78l-179 -37v-891q0 -96 32.5 -168.5t90 -115t128 -63.5t153.5 -21q148 0 258.5 66.5t171.5 180.5v1010l-160 41l14 76h412l14 -78l-178 -37v-862q0 -232 -151 -382.5t-379 -150.5q-594 0 -594 541v641q0 70 20 213zM596 1706q0 54 24 78t78 24 q56 0 79.5 -23.5t23.5 -78.5t-23.5 -78.5t-79.5 -23.5q-54 0 -78 24t-24 78zM903 1706q0 54 24.5 78t78.5 24q56 0 79 -23.5t23 -78.5t-23 -78.5t-79 -23.5q-54 0 -78.5 24t-24.5 78z" />
<glyph unicode="&#xdd;" horiz-adv-x="1464" d="M57 1409l15 76h497l15 -78l-199 -35l102 -108l318 -502l358 530l76 80l-233 35l14 78h432l14 -76l-96 -29l-530 -694v-416q0 -29 -3 -58t-6 -46.5t-6.5 -34t-3.5 -18.5l207 -35l-14 -78h-518l-15 76l170 37v581l-481 686zM694 1599l250 345l117 -76l-264 -293z" />
<glyph unicode="&#xde;" horiz-adv-x="1331" d="M115 1407l14 78h518l15 -76l-170 -37v-207q96 17 235 17q236 0 369 -105t133 -297q0 -84 -28.5 -151t-80.5 -110.5t-121 -72.5t-152.5 -40.5t-171.5 -10.5t-183 15v-164q0 -37 -4 -66t-9.5 -47.5t-5.5 -19.5l207 -35l-14 -78h-519l-14 76l170 37v1101q0 29 3 58.5t6 47 t6.5 34t3.5 18.5zM492 502q62 -5 114 -6t108.5 3.5t101 15.5t86 31.5t69 51t43.5 75t16 101.5q0 125 -52.5 202t-129.5 111q-198 10 -356 -14v-571z" />
<glyph unicode="&#xdf;" horiz-adv-x="1226" d="M92 952l6 72h152q0 122 21 212.5t67 159t126 103.5t193 35v-102q-233 0 -233 -369v-39h594v-84l-326 -451q473 -57 473 -434q0 -65 -9.5 -125t-32.5 -118.5t-58 -104t-88 -78t-119.5 -45.5t-157 -1t-196.5 52l45 84l332 -47q36 12 68 130.5t32 252.5q0 167 -89.5 244 t-324.5 111v104l297 404h-440v-918h-315l-15 76l156 37v821z" />
<glyph unicode="&#xe0;" horiz-adv-x="1110" d="M92 236q0 60 23 113.5t69 96.5t122.5 68t174.5 25q43 0 85 -5.5t65.5 -11.5t46 -13t24.5 -7v391q-121 32 -264.5 16t-236.5 -69l-45 86q58 36 101 57.5t127 43.5t175 22q162 0 236.5 -113.5t74.5 -347.5v-107q0 -86 -3.5 -168.5t-7 -127t-5.5 -56.5h178l17 -86 q-80 -53 -189 -53q-117 0 -151 82q-124 -97 -320 -97q-297 0 -297 261zM270 1466l117 76l250 -344l-102 -24zM276 225q0 -41 9 -75.5t18 -47.5q81 -23 200.5 -12.5t198.5 51.5v271q-79 34 -192 34q-110 0 -172 -54.5t-62 -166.5z" />
<glyph unicode="&#xe1;" horiz-adv-x="1110" d="M92 236q0 60 23 113.5t69 96.5t122.5 68t174.5 25q43 0 85 -5.5t65.5 -11.5t46 -13t24.5 -7v391q-121 32 -264.5 16t-236.5 -69l-45 86q58 36 101 57.5t127 43.5t175 22q162 0 236.5 -113.5t74.5 -347.5v-107q0 -86 -3.5 -168.5t-7 -127t-5.5 -56.5h178l17 -86 q-80 -53 -189 -53q-117 0 -151 82q-124 -97 -320 -97q-297 0 -297 261zM276 225q0 -41 9 -75.5t18 -47.5q81 -23 200.5 -12.5t198.5 51.5v271q-79 34 -192 34q-110 0 -172 -54.5t-62 -166.5zM446 1198l250 344l117 -76l-264 -292z" />
<glyph unicode="&#xe2;" horiz-adv-x="1110" d="M92 236q0 60 23 113.5t69 96.5t122.5 68t174.5 25q43 0 85 -5.5t65.5 -11.5t46 -13t24.5 -7v391q-121 32 -264.5 16t-236.5 -69l-45 86q58 36 101 57.5t127 43.5t175 22q162 0 236.5 -113.5t74.5 -347.5v-107q0 -86 -3.5 -168.5t-7 -127t-5.5 -56.5h178l17 -86 q-80 -53 -189 -53q-117 0 -151 82q-124 -97 -320 -97q-297 0 -297 261zM266 1210l256 281l258 -281l-98 -49l-160 168l-157 -168zM276 225q0 -41 9 -75.5t18 -47.5q81 -23 200.5 -12.5t198.5 51.5v271q-79 34 -192 34q-110 0 -172 -54.5t-62 -166.5z" />
<glyph unicode="&#xe3;" horiz-adv-x="1110" d="M92 236q0 60 23 113.5t69 96.5t122.5 68t174.5 25q43 0 85 -5.5t65.5 -11.5t46 -13t24.5 -7v391q-121 32 -264.5 16t-236.5 -69l-45 86q58 36 101 57.5t127 43.5t175 22q162 0 236.5 -113.5t74.5 -347.5v-107q0 -86 -3.5 -168.5t-7 -127t-5.5 -56.5h178l17 -86 q-80 -53 -189 -53q-117 0 -151 82q-124 -97 -320 -97q-297 0 -297 261zM276 225q0 -41 9 -75.5t18 -47.5q81 -23 200.5 -12.5t198.5 51.5v271q-79 34 -192 34q-110 0 -172 -54.5t-62 -166.5zM276 1210q-6 89 33.5 141t108.5 52q40 0 79 -19t64.5 -42.5t54.5 -42.5t52 -19 v117l104 -15q6 -89 -33 -140.5t-108 -51.5q-39 0 -78 19t-65.5 42.5t-56 42.5t-50.5 19v-117z" />
<glyph unicode="&#xe4;" horiz-adv-x="1110" d="M92 236q0 60 23 113.5t69 96.5t122.5 68t174.5 25q43 0 85 -5.5t65.5 -11.5t46 -13t24.5 -7v391q-121 32 -264.5 16t-236.5 -69l-45 86q58 36 101 57.5t127 43.5t175 22q162 0 236.5 -113.5t74.5 -347.5v-107q0 -86 -3.5 -168.5t-7 -127t-5.5 -56.5h178l17 -86 q-80 -53 -189 -53q-117 0 -151 82q-124 -97 -320 -97q-297 0 -297 261zM276 225q0 -41 9 -75.5t18 -47.5q81 -23 200.5 -12.5t198.5 51.5v271q-79 34 -192 34q-110 0 -172 -54.5t-62 -166.5zM289 1294q0 54 24 78.5t78 24.5q56 0 79.5 -24t23.5 -79t-23.5 -78.5t-79.5 -23.5 q-54 0 -78 24t-24 78zM596 1294q0 54 24 78.5t78 24.5q56 0 79.5 -24t23.5 -79t-23.5 -78.5t-79.5 -23.5q-54 0 -78 24t-24 78z" />
<glyph unicode="&#xe5;" horiz-adv-x="1110" d="M92 236q0 60 23 113.5t69 96.5t122.5 68t174.5 25q43 0 85 -5.5t65.5 -11.5t46 -13t24.5 -7v391q-121 32 -264.5 16t-236.5 -69l-45 86q58 36 101 57.5t127 43.5t175 22q162 0 236.5 -113.5t74.5 -347.5v-107q0 -86 -3.5 -168.5t-7 -127t-5.5 -56.5h178l17 -86 q-80 -53 -189 -53q-117 0 -151 82q-124 -97 -320 -97q-297 0 -297 261zM276 225q0 -41 9 -75.5t18 -47.5q81 -23 200.5 -12.5t198.5 51.5v271q-79 34 -192 34q-110 0 -172 -54.5t-62 -166.5zM375 1376q0 84 51.5 142.5t132.5 58.5q80 0 127 -51t47 -131q0 -85 -50.5 -145 t-133.5 -60q-81 0 -127.5 52.5t-46.5 133.5zM461 1382q0 -52 28 -85.5t70 -39.5q39 6 63.5 40.5t24.5 84.5q0 52 -28.5 87.5t-69.5 41.5q-39 -6 -63.5 -41t-24.5 -88z" />
<glyph unicode="&#xe6;" horiz-adv-x="1589" d="M92 236q0 60 23 113.5t69 96.5t122.5 68t174.5 25q89 0 181 -25q9 94 40 184v195q-121 32 -264.5 16t-236.5 -69l-45 86q58 36 101 57.5t127 43.5t175 22q187 0 260 -152q139 152 338 152q79 0 139 -24.5t97.5 -66t60 -100.5t29 -123.5t0.5 -138.5l-6 -117h-654 q-6 -109 20 -201t66 -145q83 -31 184.5 -25.5t190.5 30.5t143 59l50 -82q-210 -140 -451 -140q-197 0 -287 127l-30 -30q-124 -97 -320 -97q-297 0 -297 261zM276 225q0 -41 9 -75.5t18 -47.5q77 -23 203 -9.5t205 59.5q-52 110 -52 274q-66 20 -149 20q-110 0 -172 -54.5 t-62 -166.5zM834 563l483 23q17 136 -16 239.5t-127 132.5q-71 -12 -122.5 -35t-96.5 -67.5t-74.5 -117t-46.5 -175.5z" />
<glyph unicode="&#xe7;" horiz-adv-x="1021" d="M113 434q0 173 67 313t190 221t279 81q56 0 115.5 -21t87.5 -47q22 -38 8.5 -124t-47.5 -124q-48 -3 -102 17v182q-36 18 -95 18q-79 0 -145 -44t-106 -114.5t-62 -152t-22 -162.5q0 -123 19.5 -202t61.5 -142q83 -31 184.5 -25.5t191 30.5t143.5 59l49 -82 q-171 -112 -348 -133l-33 -115q96 19 170 -24.5t74 -145.5q0 -67 -44 -116.5t-112 -73t-140 -31.5t-139 -2v65q67 -6 129 6t111 43.5t67 84.5t-3 130q-64 8 -117 -3t-76 -25h-45l63 200h-8q-366 0 -366 459z" />
<glyph unicode="&#xe8;" horiz-adv-x="1044" d="M115 434q0 175 63 315.5t177 220t257 79.5q79 0 139 -24.5t97.5 -66t60 -100.5t29 -123.5t0.5 -138.5l-6 -117h-653q-6 -109 20 -201t66 -145q83 -31 184.5 -25.5t190.5 30.5t143 59l49 -82q-210 -140 -451 -140q-366 0 -366 459zM289 563l483 23q17 136 -16 239.5 t-127 132.5q-71 -12 -122.5 -35t-96.5 -67.5t-74.5 -117t-46.5 -175.5zM342 1446l117 76l250 -344l-103 -25z" />
<glyph unicode="&#xe9;" horiz-adv-x="1044" d="M115 434q0 175 63 315.5t177 220t257 79.5q79 0 139 -24.5t97.5 -66t60 -100.5t29 -123.5t0.5 -138.5l-6 -117h-653q-6 -109 20 -201t66 -145q83 -31 184.5 -25.5t190.5 30.5t143 59l49 -82q-210 -140 -451 -140q-366 0 -366 459zM289 563l483 23q17 136 -16 239.5 t-127 132.5q-71 -12 -122.5 -35t-96.5 -67.5t-74.5 -117t-46.5 -175.5zM514 1163l250 344l117 -75l-265 -293z" />
<glyph unicode="&#xea;" horiz-adv-x="1044" d="M115 434q0 175 63 315.5t177 220t257 79.5q79 0 139 -24.5t97.5 -66t60 -100.5t29 -123.5t0.5 -138.5l-6 -117h-653q-6 -109 20 -201t66 -145q83 -31 184.5 -25.5t190.5 30.5t143 59l49 -82q-210 -140 -451 -140q-366 0 -366 459zM289 563l483 23q17 136 -16 239.5 t-127 132.5q-71 -12 -122.5 -35t-96.5 -67.5t-74.5 -117t-46.5 -175.5zM336 1196l256 281l258 -281l-98 -49l-160 168l-158 -168z" />
<glyph unicode="&#xeb;" horiz-adv-x="1044" d="M115 434q0 175 63 315.5t177 220t257 79.5q79 0 139 -24.5t97.5 -66t60 -100.5t29 -123.5t0.5 -138.5l-6 -117h-653q-6 -109 20 -201t66 -145q83 -31 184.5 -25.5t190.5 30.5t143 59l49 -82q-210 -140 -451 -140q-366 0 -366 459zM289 563l483 23q17 136 -16 239.5 t-127 132.5q-71 -12 -122.5 -35t-96.5 -67.5t-74.5 -117t-46.5 -175.5zM330 1278q0 54 24 78t78 24q56 0 79.5 -23.5t23.5 -78.5t-23.5 -78.5t-79.5 -23.5q-54 0 -78 24t-24 78zM637 1278q0 54 24 78t78 24q56 0 79.5 -23.5t23.5 -78.5t-23.5 -78.5t-79.5 -23.5 q-54 0 -78 24t-24 78z" />
<glyph unicode="&#xec;" horiz-adv-x="677" d="M72 969q107 55 209 55q79 0 120 -42t41 -114v-598q0 -29 -2.5 -58t-5.5 -46.5t-6.5 -34t-3.5 -18.5l192 -35l-14 -78h-467l-14 76l155 37v616q0 49 7 100t12 62l-207 -23zM78 1458l117 76l249 -344l-102 -25z" />
<glyph unicode="&#xed;" horiz-adv-x="677" d="M72 969q107 55 209 55q79 0 120 -42t41 -114v-598q0 -29 -2.5 -58t-5.5 -46.5t-6.5 -34t-3.5 -18.5l192 -35l-14 -78h-467l-14 76l155 37v616q0 49 7 100t12 62l-207 -23zM268 1188l250 344l117 -76l-264 -293z" />
<glyph unicode="&#xee;" horiz-adv-x="677" d="M72 969q107 55 209 55q79 0 120 -42t41 -114v-598q0 -29 -2.5 -58t-5.5 -46.5t-6.5 -34t-3.5 -18.5l192 -35l-14 -78h-467l-14 76l155 37v616q0 49 7 100t12 62l-207 -23zM82 1194l256 281l258 -281l-98 -49l-160 168l-158 -168z" />
<glyph unicode="&#xef;" horiz-adv-x="677" d="M72 969q107 55 209 55q79 0 120 -42t41 -114v-598q0 -29 -2.5 -58t-5.5 -46.5t-6.5 -34t-3.5 -18.5l192 -35l-14 -78h-467l-14 76l155 37v616q0 49 7 100t12 62l-207 -23zM88 1268q0 54 24 78t78 24q56 0 79.5 -23.5t23.5 -78.5t-23.5 -79t-79.5 -24q-54 0 -78 24.5 t-24 78.5zM395 1268q0 54 24.5 78t78.5 24q56 0 79 -23.5t23 -78.5t-23 -79t-79 -24q-54 0 -78.5 24.5t-24.5 78.5z" />
<glyph unicode="&#xf0;" horiz-adv-x="1058" d="M92 424q0 206 123 342.5t317 136.5q62 0 128 -30.5t106 -90.5q-3 119 -44 232t-89 178l-184 -111l-54 86l172 105q-6 6 -23.5 23t-24.5 23.5t-22 20.5t-24 22t-22 18.5t-24.5 19t-23.5 16.5l-204 58l14 71q134 -14 244.5 -62t218.5 -147l211 131l53 -86l-184 -112 q111 -124 155.5 -278.5t44.5 -387.5q0 -162 -36.5 -286t-102 -198.5t-149.5 -111.5t-185 -37q-192 0 -291.5 122.5t-99.5 332.5zM266 418q0 -140 62 -236.5t184 -126.5q125 13 195.5 124.5t70.5 275.5q-8 291 -266 366q-246 -77 -246 -403z" />
<glyph unicode="&#xf1;" horiz-adv-x="1359" d="M72 969q107 55 209 55q120 0 161 -127q2 1 29.5 21t40.5 28.5t44 27.5t55.5 29t58.5 22.5t70 18t73 5.5q173 0 250.5 -114.5t77.5 -365.5q0 -130 -17.5 -260.5t-31.5 -191.5l215 -37l-13 -80h-364q0 10 8.5 54t17.5 120.5t9 165.5v520q-73 45 -185 45q-181 0 -338 -112 v-523q0 -29 -2.5 -58t-5.5 -46.5t-6.5 -34t-3.5 -18.5l192 -35l-14 -78h-467l-14 76l155 37v616q0 49 7 100t12 62l-207 -23zM430 1233q-6 89 33 140.5t108 51.5q40 0 79 -19t64.5 -42t54.5 -42t52 -19v116l105 -14q6 -89 -33.5 -141t-108.5 -52q-39 0 -78 19t-65 42.5 t-55.5 42.5t-50.5 19v-116z" />
<glyph unicode="&#xf2;" horiz-adv-x="1177" d="M113 494q0 151 56.5 276t169 202t261.5 77q221 0 343 -140.5t122 -365.5q0 -113 -33 -215t-94 -181t-156 -125.5t-211 -46.5q-150 0 -255 70t-154 185t-49 264zM291 512q0 -185 84.5 -301.5t226.5 -140.5q135 25 211 142.5t76 299.5q0 184 -89.5 303.5t-232.5 140.5 q-132 -21 -204 -140.5t-72 -303.5zM406 1466l116 76l250 -344l-102 -24z" />
<glyph unicode="&#xf3;" horiz-adv-x="1177" d="M113 494q0 151 56.5 276t169 202t261.5 77q221 0 343 -140.5t122 -365.5q0 -113 -33 -215t-94 -181t-156 -125.5t-211 -46.5q-150 0 -255 70t-154 185t-49 264zM291 512q0 -185 84.5 -301.5t226.5 -140.5q135 25 211 142.5t76 299.5q0 184 -89.5 303.5t-232.5 140.5 q-132 -21 -204 -140.5t-72 -303.5zM406 1198l249 344l117 -76l-264 -292z" />
<glyph unicode="&#xf4;" horiz-adv-x="1177" d="M113 494q0 151 56.5 276t169 202t261.5 77q221 0 343 -140.5t122 -365.5q0 -113 -33 -215t-94 -181t-156 -125.5t-211 -46.5q-150 0 -255 70t-154 185t-49 264zM291 512q0 -185 84.5 -301.5t226.5 -140.5q135 25 211 142.5t76 299.5q0 184 -89.5 303.5t-232.5 140.5 q-132 -21 -204 -140.5t-72 -303.5zM332 1227l256 280l258 -280l-98 -49l-160 168l-158 -168z" />
<glyph unicode="&#xf5;" horiz-adv-x="1177" d="M113 494q0 151 56.5 276t169 202t261.5 77q221 0 343 -140.5t122 -365.5q0 -113 -33 -215t-94 -181t-156 -125.5t-211 -46.5q-150 0 -255 70t-154 185t-49 264zM291 512q0 -185 84.5 -301.5t226.5 -140.5q135 25 211 142.5t76 299.5q0 184 -89.5 303.5t-232.5 140.5 q-132 -21 -204 -140.5t-72 -303.5zM338 1233q-6 89 33 140.5t108 51.5q40 0 79 -19t64.5 -42t54.5 -42t52 -19v116l105 -14q6 -89 -33.5 -141t-108.5 -52q-39 0 -78 19t-65.5 42.5t-56 42.5t-50.5 19v-116z" />
<glyph unicode="&#xf6;" horiz-adv-x="1177" d="M113 494q0 151 56.5 276t169 202t261.5 77q221 0 343 -140.5t122 -365.5q0 -113 -33 -215t-94 -181t-156 -125.5t-211 -46.5q-150 0 -255 70t-154 185t-49 264zM291 512q0 -185 84.5 -301.5t226.5 -140.5q135 25 211 142.5t76 299.5q0 184 -89.5 303.5t-232.5 140.5 q-132 -21 -204 -140.5t-72 -303.5zM332 1317q0 54 24 78t78 24q56 0 79.5 -23.5t23.5 -78.5t-23.5 -79t-79.5 -24q-54 0 -78 24.5t-24 78.5zM639 1317q0 54 24 78t78 24q56 0 79.5 -23.5t23.5 -78.5t-23.5 -79t-79.5 -24q-54 0 -78 24.5t-24 78.5z" />
<glyph unicode="&#xf7;" horiz-adv-x="935" d="M76 606v119h782v-119h-782zM326 379q0 52 23.5 75t76.5 23q55 0 77.5 -22.5t22.5 -75.5t-22.5 -76.5t-77.5 -23.5q-52 0 -76 23.5t-24 76.5zM326 944q0 52 23.5 75t76.5 23q55 0 77.5 -22.5t22.5 -75.5t-22.5 -76.5t-77.5 -23.5q-52 0 -76 24t-24 76z" />
<glyph unicode="&#xf8;" horiz-adv-x="1177" d="M113 494q0 151 56.5 276t169 202t261.5 77q71 0 150 -21l57 146l104 -41l-59 -150q103 -62 158 -177t55 -263q0 -113 -33 -215t-94 -181t-156 -125.5t-211 -46.5q-57 0 -114 13l-58 -150l-104 41l57 144q-118 60 -178.5 184t-60.5 287zM291 512q0 -222 119 -344l290 739 q-57 37 -133 49q-132 -21 -204 -140.5t-72 -303.5zM502 100q37 -19 100 -30q135 25 211 142.5t76 299.5q0 190 -98 315z" />
<glyph unicode="&#xf9;" horiz-adv-x="1378" d="M53 987q46 18 103 30t131 14.5t137 -17.5v-856q72 -45 184 -45q181 0 338 112v477q0 73 6.5 133.5t12.5 71.5h-207l-17 80q46 18 103 30t131 14.5t137 -17.5v-725q0 -49 -6.5 -100t-11.5 -62l206 23l17 -101q-107 -55 -209 -55q-121 0 -162 127q-2 -1 -29.5 -21 t-40.5 -28.5t-44 -27.5t-55.5 -29t-58.5 -22.5t-70 -18t-73 -5.5q-172 0 -247.5 114t-75.5 366v153q0 77 5 149.5t10 110.5t9 45h-206zM397 1466l117 76l250 -344l-102 -24z" />
<glyph unicode="&#xfa;" horiz-adv-x="1378" d="M53 987q46 18 103 30t131 14.5t137 -17.5v-856q72 -45 184 -45q181 0 338 112v477q0 73 6.5 133.5t12.5 71.5h-207l-17 80q46 18 103 30t131 14.5t137 -17.5v-725q0 -49 -6.5 -100t-11.5 -62l206 23l17 -101q-107 -55 -209 -55q-121 0 -162 127q-2 -1 -29.5 -21 t-40.5 -28.5t-44 -27.5t-55.5 -29t-58.5 -22.5t-70 -18t-73 -5.5q-172 0 -247.5 114t-75.5 366v153q0 77 5 149.5t10 110.5t9 45h-206zM588 1198l250 344l116 -76l-264 -292z" />
<glyph unicode="&#xfb;" horiz-adv-x="1378" d="M53 987q46 18 103 30t131 14.5t137 -17.5v-856q72 -45 184 -45q181 0 338 112v477q0 73 6.5 133.5t12.5 71.5h-207l-17 80q46 18 103 30t131 14.5t137 -17.5v-725q0 -49 -6.5 -100t-11.5 -62l206 23l17 -101q-107 -55 -209 -55q-121 0 -162 127q-2 -1 -29.5 -21 t-40.5 -28.5t-44 -27.5t-55.5 -29t-58.5 -22.5t-70 -18t-73 -5.5q-172 0 -247.5 114t-75.5 366v153q0 77 5 149.5t10 110.5t9 45h-206zM375 1217l256 280l258 -280l-98 -50l-160 168l-158 -168z" />
<glyph unicode="&#xfc;" horiz-adv-x="1378" d="M53 987q46 18 103 30t131 14.5t137 -17.5v-856q72 -45 184 -45q181 0 338 112v477q0 73 6.5 133.5t12.5 71.5h-207l-17 80q46 18 103 30t131 14.5t137 -17.5v-725q0 -49 -6.5 -100t-11.5 -62l206 23l17 -101q-107 -55 -209 -55q-121 0 -162 127q-2 -1 -29.5 -21 t-40.5 -28.5t-44 -27.5t-55.5 -29t-58.5 -22.5t-70 -18t-73 -5.5q-172 0 -247.5 114t-75.5 366v153q0 77 5 149.5t10 110.5t9 45h-206zM399 1288q0 54 24.5 78.5t78.5 24.5q56 0 79 -24t23 -79t-23 -78.5t-79 -23.5q-54 0 -78.5 24t-24.5 78zM707 1288q0 54 24 78.5t78 24.5 q56 0 79 -24t23 -79t-23 -78.5t-79 -23.5q-54 0 -78 24t-24 78z" />
<glyph unicode="&#xfd;" horiz-adv-x="1165" d="M29 -309l41 98q53 -29 163.5 -45.5t219.5 -7.5l98 241l-436 951l-80 20l14 76h367l14 -78l-131 -31l63 -112l279 -608l211 608l57 108h-2l-151 35l14 78h340l14 -76l-94 -22l-475 -1182q-26 -67 -48 -100.5t-60 -51.5t-101 -18q-103 0 -185.5 36t-131.5 81zM526 1182 l250 344l117 -76l-264 -293z" />
<glyph unicode="&#xfe;" horiz-adv-x="1255" d="M47 1430q107 55 209 55q78 0 123 -40.5t45 -111.5v-469q32 41 59.5 69.5t68.5 57.5t94 43.5t118 14.5q379 0 379 -463q0 -98 -22 -187t-68 -167t-113 -135t-162.5 -89.5t-210.5 -32.5q-80 0 -141 7v-136q0 -29 -2.5 -58t-5.5 -46.5t-6.5 -34t-3.5 -18.5l192 -35l-14 -78 h-469l-15 76l156 37v1310q0 293 12 353l-207 -23zM426 76q96 -15 178 -13.5t148.5 31.5t114 83.5t73 140t25.5 202.5q0 182 -65 295.5t-167 142.5q-142 -23 -307 -188v-694z" />
<glyph unicode="&#xff;" horiz-adv-x="1165" d="M29 -309l41 98q53 -29 163.5 -45.5t219.5 -7.5l98 241l-436 951l-80 20l14 76h367l14 -78l-131 -31l63 -112l279 -608l211 608l57 108h-2l-151 35l14 78h340l14 -76l-94 -22l-475 -1182q-26 -67 -48 -100.5t-60 -51.5t-101 -18q-103 0 -185.5 36t-131.5 81zM365 1294 q0 54 24 78.5t78 24.5q56 0 79 -24t23 -79t-23 -78.5t-79 -23.5q-54 0 -78 24t-24 78zM672 1294q0 54 24 78.5t78 24.5q56 0 79.5 -24t23.5 -79t-23.5 -78.5t-79.5 -23.5q-54 0 -78 24t-24 78z" />
<glyph unicode="&#x152;" horiz-adv-x="2119" d="M123 727q0 163 48.5 309t136.5 257t223 176t298 65q94 0 196 -18.5t175 -45.5q157 15 275 15h512q19 -53 4 -190.5t-47 -174.5q-44 -3 -95 19v237q-461 21 -569 6v-600h289q52 0 110 -4q7 126 39 189l90 -15v-424l-82 -12q-16 22 -31 71t-16 101q-31 -2 -112 -2h-287 v-416q0 -77 -20 -174q87 -4 171 -2.5t240.5 6.5t204.5 6v256q51 22 94 19q32 -37 47 -183t-4 -198h-706q-135 0 -226 6q-109 -31 -293 -31q-164 0 -292.5 58t-209 160.5t-122 237.5t-41.5 296zM305 754q0 -287 141.5 -466t391.5 -214q144 21 254 104v797q0 222 8 340 q-125 100 -326 125q-229 -33 -349 -216t-120 -470z" />
<glyph unicode="&#x153;" horiz-adv-x="1730" d="M113 494q0 151 56.5 276t169 202t261.5 77q230 0 356 -158q139 158 342 158q79 0 139 -24.5t97.5 -66t60 -100.5t29 -123.5t0.5 -138.5l-6 -117h-653q-6 -109 20 -201t66 -145q83 -31 184.5 -25.5t190.5 30.5t143 59l49 -82q-210 -140 -451 -140q-189 0 -278 117 q-126 -117 -318 -117q-150 0 -255 70t-154 185t-49 264zM291 512q0 -185 84.5 -301.5t226.5 -140.5q144 24 221 159q-22 90 -22 205q0 157 51 287q-39 99 -114 160t-171 75q-132 -21 -204 -140.5t-72 -303.5zM975 563l483 23q17 136 -16 239.5t-127 132.5 q-71 -12 -122.5 -35t-96.5 -67.5t-74.5 -117t-46.5 -175.5z" />
<glyph unicode="&#x178;" horiz-adv-x="1464" d="M57 1409l15 76h497l15 -78l-199 -35l102 -108l318 -502l358 530l76 80l-233 35l14 78h432l14 -76l-96 -29l-530 -694v-416q0 -29 -3 -58t-6 -46.5t-6.5 -34t-3.5 -18.5l207 -35l-14 -78h-518l-15 76l170 37v581l-481 686zM528 1681q0 54 24.5 78.5t78.5 24.5q56 0 79 -24 t23 -79t-23 -78.5t-79 -23.5q-54 0 -78.5 24t-24.5 78zM836 1681q0 54 24 78.5t78 24.5q56 0 79 -24t23 -79t-23 -78.5t-79 -23.5q-54 0 -78 24t-24 78z" />
<glyph unicode="&#x2c6;" horiz-adv-x="790" d="M131 1227l256 280l258 -280l-98 -49l-160 168l-158 -168z" />
<glyph unicode="&#x2dc;" horiz-adv-x="888" d="M199 1233q-6 89 33 140.5t108 51.5q40 0 79 -19t64.5 -42t54.5 -42t52 -19v116l104 -14q6 -89 -33 -141t-108 -52q-39 0 -78 19t-65.5 42.5t-56 42.5t-50.5 19v-116z" />
<glyph unicode="&#x2000;" horiz-adv-x="1006" />
<glyph unicode="&#x2001;" horiz-adv-x="2013" />
<glyph unicode="&#x2002;" horiz-adv-x="1006" />
<glyph unicode="&#x2003;" horiz-adv-x="2013" />
<glyph unicode="&#x2004;" horiz-adv-x="671" />
<glyph unicode="&#x2005;" horiz-adv-x="503" />
<glyph unicode="&#x2006;" horiz-adv-x="335" />
<glyph unicode="&#x2007;" horiz-adv-x="335" />
<glyph unicode="&#x2008;" horiz-adv-x="251" />
<glyph unicode="&#x2009;" horiz-adv-x="402" />
<glyph unicode="&#x200a;" horiz-adv-x="111" />
<glyph unicode="&#x2010;" horiz-adv-x="976" d="M96 510v119h783v-119h-783z" />
<glyph unicode="&#x2011;" horiz-adv-x="976" d="M96 510v119h783v-119h-783z" />
<glyph unicode="&#x2012;" horiz-adv-x="976" d="M96 510v119h783v-119h-783z" />
<glyph unicode="&#x2013;" horiz-adv-x="960" d="M96 494v118h770v-118h-770z" />
<glyph unicode="&#x2014;" horiz-adv-x="1234" d="M96 494v118h1045v-118h-1045z" />
<glyph unicode="&#x2018;" horiz-adv-x="479" d="M123 1118v12q3 129 51.5 240t106.5 176l67 -61l-78 -133v-119q46 -6 66 -33.5t20 -81.5q0 -62 -27.5 -89.5t-88.5 -27.5q-64 0 -90.5 27.5t-26.5 89.5z" />
<glyph unicode="&#x2019;" horiz-adv-x="479" d="M123 1430q0 61 27.5 88.5t89.5 27.5q64 0 90 -27t26 -89v-13q-3 -129 -51 -240t-106 -176l-68 62l78 133v119q-46 6 -66 33.5t-20 81.5z" />
<glyph unicode="&#x201a;" horiz-adv-x="479" d="M123 102q0 62 27.5 89.5t89.5 27.5q64 0 90 -27.5t26 -89.5v-12q-3 -129 -51 -240t-106 -176l-68 62l78 133v119q-46 6 -66 33t-20 81z" />
<glyph unicode="&#x201c;" horiz-adv-x="802" d="M123 1118v12q3 129 51.5 240t106.5 176l67 -61l-78 -133v-119q46 -6 66 -33.5t20 -81.5q0 -62 -27.5 -89.5t-88.5 -27.5q-64 0 -90.5 27.5t-26.5 89.5zM446 1118v12q3 129 51.5 240t106.5 176l68 -61l-78 -133v-119q46 -6 66 -33.5t20 -81.5q0 -62 -28 -89.5t-89 -27.5 q-64 0 -90.5 27.5t-26.5 89.5z" />
<glyph unicode="&#x201d;" horiz-adv-x="802" d="M123 1430q0 61 27.5 88.5t89.5 27.5q64 0 90 -27t26 -89v-13q-3 -129 -51 -240t-106 -176l-68 62l78 133v119q-46 6 -66 33.5t-20 81.5zM446 1430q0 61 27.5 88.5t89.5 27.5q64 0 90.5 -27t26.5 -89v-13q-3 -129 -51.5 -240t-106.5 -176l-67 62l77 133v119 q-46 6 -66 33.5t-20 81.5z" />
<glyph unicode="&#x201e;" horiz-adv-x="802" d="M123 102q0 62 27.5 89.5t89.5 27.5q64 0 90 -27.5t26 -89.5v-12q-3 -129 -51 -240t-106 -176l-68 62l78 133v119q-46 6 -66 33t-20 81zM446 102q0 62 28 89.5t89 27.5q64 0 90.5 -27.5t26.5 -89.5v-12q-3 -129 -51.5 -240t-106.5 -176l-67 62l77 133v119q-46 6 -66 33 t-20 81z" />
<glyph unicode="&#x2022;" horiz-adv-x="657" d="M188 555q0 72 33 104.5t107 32.5t105.5 -32t31.5 -105q0 -74 -31.5 -106.5t-105.5 -32.5t-107 33t-33 106z" />
<glyph unicode="&#x2026;" horiz-adv-x="1437" d="M123 102q0 62 27.5 89.5t89.5 27.5q64 0 90 -27.5t26 -89.5t-26 -89t-90 -27q-62 0 -89.5 27.5t-27.5 88.5zM602 102q0 62 28 89.5t89 27.5q64 0 90.5 -27.5t26.5 -89.5t-26.5 -89t-90.5 -27q-62 0 -89.5 27.5t-27.5 88.5zM1081 102q0 62 27.5 89.5t89.5 27.5 q64 0 90.5 -27.5t26.5 -89.5t-26.5 -89t-90.5 -27q-62 0 -89.5 27.5t-27.5 88.5z" />
<glyph unicode="&#x202f;" horiz-adv-x="402" />
<glyph unicode="&#x2039;" horiz-adv-x="884" d="M80 543l625 557l81 -90l-522 -467l522 -467l-77 -92z" />
<glyph unicode="&#x203a;" horiz-adv-x="884" d="M98 61l523 467l-523 467l80 90l627 -557l-631 -559z" />
<glyph unicode="&#x205f;" horiz-adv-x="503" />
<glyph unicode="&#x20ac;" horiz-adv-x="1427" d="M-35 514v117h158v65q0 39 4 113h-162v117h178q19 101 54 188t92 163t131 130t174 84.5t217 30.5q106 0 203 -30.5t147 -70.5q22 -38 8 -152.5t-47 -152.5q-59 -4 -112 19v237q-18 9 -79.5 23t-115.5 14q-406 0 -475 -483h418v-117h-430q-2 -35 -2 -102q0 -51 2 -76h430 v-117h-418q18 -128 56.5 -232.5t82.5 -152.5q83 -27 181 -32t183 6.5t167 35.5v238q51 22 112 18q33 -38 47 -152.5t-8 -152.5q-58 -55 -184.5 -85t-296.5 -30q-249 0 -383.5 132t-165.5 407h-166z" />
<glyph unicode="&#x25fc;" horiz-adv-x="1024" d="M0 0v1024h1024v-1024h-1024z" />
<glyph unicode="&#xfb03;" horiz-adv-x="2013" d="M113 76l155 37v798l-155 37l14 76h141v137q0 188 95.5 289.5t289.5 101.5q56 0 116 -20.5t87 -46.5q22 -38 8.5 -124t-47.5 -124q-51 -3 -102 16v183q-36 18 -94 18q-102 0 -185 -53v-377h510v76q0 93 26 173.5t77 143.5t134 99t189 36q40 0 93.5 -8t114.5 -26.5t112 -44 t84.5 -65.5t33.5 -87q0 -62 -26 -89.5t-90 -27.5q-62 0 -89.5 28t-27.5 89q0 58 25 86q-82 47 -211 47q-37 0 -70 -4.5t-59.5 -14t-46 -18.5t-38 -23t-27.5 -21t-22 -20l-14 -14v-315h502q79 0 120.5 -42.5t41.5 -113.5v-598q0 -29 -3 -58t-6 -46.5t-6.5 -34t-3.5 -18.5 l193 -35l-15 -78h-467l-14 76l156 37v655q0 50 6.5 101t11.5 61l-516 -17v-643q0 -29 -2.5 -58t-5.5 -46.5t-6.5 -34t-3.5 -18.5l192 -35l-14 -78h-469l-14 76l155 37v813l-510 -13v-643q0 -29 -2.5 -58t-5.5 -46.5t-6.5 -34t-3.5 -18.5l192 -35l-14 -78h-469z" />
<glyph unicode="&#xfb04;" horiz-adv-x="2021" d="M113 76l155 37v798l-155 37l14 76h141v137q0 188 95.5 289.5t289.5 101.5q56 0 116 -20.5t87 -46.5q22 -38 8.5 -124t-47.5 -124q-51 -3 -102 16v183q-36 18 -94 18q-102 0 -185 -53v-377h510v137q0 188 95.5 289.5t289.5 101.5q95 0 225 -36q117 40 230 26v-1272 q0 -29 -3 -58t-6 -46.5t-6.5 -34t-3.5 -18.5l193 -35l-14 -78h-469l-15 76l156 37v1155q0 58 6 108q-126 78 -254 78q-173 0 -256 -53v-377h160l14 -78l-174 -33v-643q0 -29 -2.5 -58t-5.5 -46.5t-6.5 -34t-3.5 -18.5l192 -35l-14 -78h-469l-14 76l155 37v817l-510 -17v-643 q0 -29 -2.5 -58t-5.5 -46.5t-6.5 -34t-3.5 -18.5l192 -35l-14 -78h-469z" />
</font>
</defs>
</svg>
