<?xml version="1.0" standalone="no"?>
<!DOCTYPE svg PUBLIC "-//W3C//DTD SVG 1.1//EN" "http://www.w3.org/Graphics/SVG/1.1/DTD/svg11.dtd" >
<svg xmlns="http://www.w3.org/2000/svg">
<metadata>
This is a custom SVG webfont generated by Font Squirrel.
Copyright   : Copyright c 2009 by Bruno Herfst All rights reserved
Designer    : Bruno Herfst
Foundry     : Bruno Herfst
</metadata>
<defs>
<font id="webfontg0OSsqxc" horiz-adv-x="901" >
<font-face units-per-em="2048" ascent="1536" descent="-512" />
<missing-glyph horiz-adv-x="407" />
<glyph unicode=" "  horiz-adv-x="407" />
<glyph unicode="&#x09;" horiz-adv-x="407" />
<glyph unicode="&#xa0;" horiz-adv-x="407" />
<glyph unicode="!" horiz-adv-x="503" d="M360 94q0 -49 -32.5 -81.5t-83.5 -32.5q-53 0 -86 32.5t-33 81.5t32.5 82t86 33t85 -33t31.5 -82zM287 350h-84q-41 0 -46 6t-7 45l-19 662q-2 41 4 46t45 5h127q39 0 45 -5t4 -46l-16 -662q-2 -39 -7 -45t-46 -6z" />
<glyph unicode="&#x22;" horiz-adv-x="741" d="M205 696h-60q-39 0 -45 6.5t-6 45.5v290q0 39 6 45.5t45 6.5h105q39 0 44 -5.5t1 -46.5q-14 -115 -33 -290q-4 -39 -10 -45.5t-47 -6.5zM526 694h-59q-41 0 -46 5.5t-5 45.5v291q0 41 5 46t46 5h104q39 0 44.5 -5t0.5 -46q-14 -115 -32 -291q-4 -39 -10.5 -45t-47.5 -6z " />
<glyph unicode="#" horiz-adv-x="1394" d="M377 0h-109q-39 0 -44 5t5 44l41 160q8 31 5 35t-35 4h-88q-39 0 -44.5 5t1.5 46l8 55q6 39 12 45.5t47 6.5h105q33 0 38 4t13 34l20 91q8 31 5 34.5t-35 3.5h-101q-39 0 -44 6.5t1 45.5l6 53q6 39 12.5 45t47.5 6h118q33 0 38.5 4t13.5 35l35 137q8 39 15 44t48 5h111 q39 0 44 -5t-5 -44l-37 -137q-8 -31 -5 -35t35 -4h76q33 0 38 4t13 35l37 137q8 39 15.5 44t48.5 5h108q39 0 44 -5t-5 -44l-37 -137q-8 -31 -5 -35t36 -4h76q39 0 44 -6t-1 -45l-6 -53q-6 -39 -12.5 -45.5t-47.5 -6.5h-92q-33 0 -38 -4t-13 -34l-21 -91q-8 -31 -5 -34.5 t36 -3.5h86q39 0 44 -6.5t-1 -45.5l-6 -55q-6 -39 -12 -45t-47 -6h-105q-33 0 -38 -4t-13 -35l-41 -160q-8 -39 -15.5 -44t-47.5 -5h-111q-39 0 -44 5t5 44l41 160q8 31 5 35t-36 4h-76q-33 0 -38 -4t-13 -35l-41 -160q-8 -39 -15 -44t-48 -5zM561 539l-24 -99 q-8 -31 -5 -35t35 -4h84q33 0 38 4.5t13 34.5l25 99q8 31 5 35t-36 4h-84q-33 0 -38 -4t-13 -35z" />
<glyph unicode="$" horiz-adv-x="753" d="M403 -145h-100q-39 0 -45 5t-4 46l2 114q2 31 -3 37t-36 11q-66 14 -100 24q-39 10 -43 17.5t0 46.5l10 71q6 39 12 43t43 -10q117 -39 183 -39q143 0 143 94q0 49 -43 83t-104.5 57.5t-123 52.5t-104.5 88t-43 145q0 166 172 236q31 10 35 16t2 39l-2 117q-2 41 4 46 t45 5h100q39 0 45.5 -5t4.5 -46l-2 -109q0 -33 4 -38t37 -7l77 -12q39 -6 44 -12t-3 -45l-8 -49q-8 -39 -15 -44.5t-46 1.5q-98 10 -144 10q-63 0 -102 -29t-39 -65q0 -35 44 -63t106.5 -50.5t124 -52t105.5 -89t44 -141.5q0 -96 -53.5 -164.5t-137.5 -103.5 q-31 -12 -34.5 -18.5t-3.5 -38.5l4 -123q0 -41 -6.5 -46t-45.5 -5z" />
<glyph unicode="%" horiz-adv-x="1673" d="M739 674q0 -129 -75.5 -205t-198.5 -76q-125 0 -203 77t-78 204q0 125 79 202.5t202 77.5t198.5 -77.5t75.5 -202.5zM358 676q0 -158 107 -158q102 0 102 158q0 152 -102 151q-107 1 -107 -151zM1468 133q0 -127 -76.5 -205t-201.5 -78t-200 78t-75 205t75 203t200 76 t201.5 -77t76.5 -202zM1087 133q0 -158 107 -158q51 0 76.5 45.5t25.5 112.5q0 154 -102 154q-107 0 -107 -154zM475 -238h-108q-39 0 -42 5.5t17 37.5l758 1190q20 33 29.5 38t48.5 5h102q39 0 42 -5t-17 -38l-752 -1190q-20 -33 -29.5 -38t-48.5 -5z" />
<glyph unicode="&#x26;" horiz-adv-x="1067" d="M1133 119l14 -43q10 -39 7 -46t-42 -20q-70 -23 -141 -22q-88 0 -205 94q-135 -94 -344 -94q-178 0 -285.5 109.5t-107.5 246.5q0 96 58 169t153 112q-90 131 -90 260q0 131 102 192.5t256 61.5q94 0 180 -19q39 -8 43 -14t0 -47l-4 -47q-4 -39 -10 -44t-45 1 q-61 10 -117 10q-195 0 -195 -133q0 -61 79 -157.5t313 -317.5q33 78 39 176q2 25 2 32t7 14t14 8t32 3l115 10q18 2 21 0t3 -20v-29q0 -188 -84 -334q92 -80 125 -79q14 0 43 6q39 8 46.5 4t17.5 -43zM256 344q0 -72 48 -128t140 -56q109 0 185 51l-127 127 q-92 90 -152 154q-94 -46 -94 -148z" />
<glyph unicode="'" horiz-adv-x="428" d="M207 696h-60q-41 0 -46 6.5t-5 45.5v290q0 39 5 45.5t46 6.5h105q39 0 44 -5.5t1 -46.5q-14 -115 -33 -290q-4 -39 -10 -45.5t-47 -6.5z" />
<glyph unicode="(" horiz-adv-x="720" d="M545 -256h-64q-37 0 -48 5t-38 30q-43 41 -87 96t-97 146.5t-87 217.5t-34 263q0 139 33 267t87 219t97 146.5t88 98.5q27 25 38 29t46 4h66q39 0 42 -5.5t-20 -35.5q-248 -369 -248 -719q0 -113 23 -219.5t68 -204.5t76.5 -155.5t82.5 -139.5q20 -33 17.5 -38t-41.5 -5z " />
<glyph unicode=")" horiz-adv-x="720" d="M219 -256h-74h-29q-7 0 -10.5 5t0.5 11l17 25q252 365 252 721q0 348 -250 719q-23 31 -21 36t41 5h74q35 0 46 -4.5t38 -28.5q43 -43 85 -97.5t95.5 -146.5t86 -219t32.5 -268q0 -139 -32.5 -265t-86 -216.5t-95.5 -145.5t-85 -96q-27 -25 -38 -30t-46 -5z" />
<glyph unicode="*" horiz-adv-x="718" d="M330 655l-70 -88q-27 -31 -34 -31.5t-42 21.5l-18 14q-35 23 -36 30t20 42l61 105q16 27 14 32.5t-30 18.5l-109 43q-37 14 -40 22t7 47l4 9q10 39 17.5 43t46.5 -5l106 -24q33 -6 38 -3t7 36l13 123q4 39 10 45t47 6h29q41 0 47 -6.5t10 -44.5l12 -123q2 -33 7.5 -36 t37.5 3l111 24q39 8 46 4t17 -42l5 -9q10 -39 7 -47t-40 -22l-109 -43q-29 -12 -31 -18.5t15 -32.5l59 -103q16 -27 18.5 -35t-3 -14t-29.5 -25l-21 -14q-33 -23 -40 -21.5t-33 31.5l-74 88q-20 25 -26.5 25t-26.5 -25z" />
<glyph unicode="+" horiz-adv-x="942" d="M516 43h-84q-39 0 -45 5t-6 46v197q0 33 -4 37t-37 4h-164q-41 0 -46 6t-5 45v53q0 39 5 45t46 6h164q33 0 37 4.5t4 36.5v179q0 39 6 45t45 6h84q41 0 46 -6.5t5 -44.5v-179q0 -33 4 -37t37 -4h162q41 0 46 -6t5 -45v-53q0 -39 -5 -45t-46 -6h-162q-33 0 -37 -4t-4 -37 v-197q0 -41 -5 -46t-46 -5z" />
<glyph unicode="," horiz-adv-x="417" d="M317 88q0 -92 -48 -179t-156 -106q-16 -4 -19.5 -1t-3.5 22v2q0 16 3 20t20 9q37 12 62.5 49t25.5 67q0 29 -25 29q-35 0 -62.5 34t-27.5 72q0 47 33 81t78 34q49 0 84.5 -33.5t35.5 -99.5z" />
<glyph unicode="-" horiz-adv-x="624" d="M455 338h-277q-39 0 -45 5t-6 46v62q0 41 6 46t45 5h277q41 0 46 -5t5 -46v-62q0 -41 -5 -46t-46 -5z" />
<glyph unicode="." horiz-adv-x="417" d="M301 104.5q0 -47.5 -35 -81t-82 -33.5q-51 0 -84.5 33.5t-33.5 81t33.5 81t84.5 33.5q47 0 82 -33.5t35 -81z" />
<glyph unicode="/" horiz-adv-x="876" d="M221 -311h-115q-39 0 -43 5t11 42l504 1394q14 37 21 42.5t48 5.5h113q39 0 43 -5.5t-10 -44.5l-502 -1390q-14 -39 -21.5 -44t-48.5 -5z" />
<glyph unicode="0" horiz-adv-x="1073" d="M1001 446q0 -201 -109.5 -323.5t-279.5 -140.5q-47 -2 -98 0q-178 12 -291.5 131.5t-113.5 332.5q0 215 128 342t318 127q193 0 319.5 -122t126.5 -347zM322 446q0 -135 60 -213.5t173 -78.5t173 80.5t60 211.5q0 135 -61 215t-172 80t-172 -83t-61 -212z" />
<glyph unicode="1" horiz-adv-x="708" d="M580 0h-416q-41 0 -46 6t-5 45v31q0 41 6 47t45 10l78 8q33 2 37 7.5t4 38.5v440q0 33 -4.5 36t-36.5 -1l-45 -6q-39 -6 -46.5 -1t-13.5 44l-4 40q-6 39 -2 47.5t43 18.5l260 74q29 4 37 4h4q14 0 16.5 -2t2.5 -17v-677q0 -33 4 -38t37 -10l45 -6q39 -4 45 -10t6 -47v-31 q0 -39 -6 -45t-45 -6z" />
<glyph unicode="2" horiz-adv-x="813" d="M684 0h-541q-41 0 -46 6t-5 45v37q0 37 5 49.5t32 38.5q256 254 315 332q68 88 68 141q0 98 -129 99q-53 0 -138 -20.5t-91 -20.5q-14 0 -18.5 9t-4.5 40q-2 49 -2 71q0 12 41 31t107.5 35t125.5 16q80 0 146.5 -17.5t120 -74.5t53.5 -149q0 -25 -3 -47.5t-13.5 -48 t-18.5 -43t-30 -47.5l-33 -46q-12 -16 -45 -53l-50 -54l-59 -64l-65 -70q-20 -20 -21 -27q0 -2 12 -2h21l266 6q39 0 45 -6t6 -45v-70q0 -39 -5 -45t-46 -6z" />
<glyph unicode="3" horiz-adv-x="829" d="M752 141q0 -135 -102.5 -229t-303.5 -94q-102 0 -217 28q-43 12 -48 20.5t5 49.5l6 35q8 39 14.5 44t45.5 -3q68 -14 145 -15q119 0 173 42t54 128q0 82 -59 120t-225 42q-39 0 -45.5 5t-6.5 46v39q0 41 5.5 46.5t46.5 7.5q150 6 207 46t53 122q-4 78 -52.5 106.5 t-136.5 28.5q-72 0 -123 -11q-41 -6 -47 -0.5t-12 43.5l-6 31q-8 39 -3 46t42 18q94 25 192 24q147 0 250 -64.5t103 -197.5q0 -156 -134 -225q-16 -8 -20 -12.5t0 -7.5t22 -11q177 -72 177 -248z" />
<glyph unicode="4" horiz-adv-x="978" d="M684 -164h-100q-39 0 -45.5 6t-6.5 45v191q0 33 -4 37t-36 4h-353q-41 0 -46 6t-5 45v41q0 51 27 94l329 547q20 33 29.5 38t48.5 5h162q41 0 46 -5t5 -46v-518q0 -33 4 -37t37 -4h60q41 0 46 -5.5t5 -46.5v-63q0 -39 -5 -45t-46 -6h-60q-33 0 -37 -4t-4 -37v-191 q0 -39 -5 -45t-46 -6zM317 301v-4q0 -10 1 -11t12 -1h164q33 0 37 4t4 37l8 315q0 10 -1 11t-12 1h-4q-14 0 -20 -12l-182 -319q-7 -9 -7 -21z" />
<glyph unicode="5" horiz-adv-x="886" d="M805 170q0 -162 -113.5 -258t-318.5 -96q-125 0 -230 30q-39 10 -43 17.5t2 46.5l7 41q6 39 12 43t45 -4q86 -20 172 -21q231 0 231 185q0 109 -72.5 148.5t-195.5 39.5q-43 0 -100 -4q-41 -4 -46 2t-5 45v459q0 41 5 46t46 5h479q41 0 46 -5t5 -46v-58q0 -41 -5 -46 t-46 -5h-266q-33 0 -37 -4t-4 -37v-170q0 -27 4 -29.5t31 -0.5q12 2 38 2q168 0 263.5 -88t95.5 -238z" />
<glyph unicode="6" horiz-adv-x="944" d="M868 332q0 -150 -96 -250t-278 -100q-195 0 -291.5 129t-96.5 350q0 162 43.5 286.5t112 193.5t143 102.5t152.5 33.5q82 0 156 -24q39 -14 44 -22.5t1 -51.5q0 -2 -1 -5t-1 -5q-4 -39 -10.5 -44t-45.5 1q-53 8 -94 8q-113 0 -184.5 -73t-79.5 -230q-6 -23 -2 -30t9 -6 t28 9q78 35 184 35q129 0 218 -88t89 -219zM336 397q4 -127 39 -193.5t114 -66.5q78 0 116 52.5t38 125.5q0 70 -34 118t-97 48q-61 0 -137 -26q-31 -10 -35 -17.5t-4 -40.5z" />
<glyph unicode="7" horiz-adv-x="858" d="M266 -162l-129 6q-20 0 -25.5 1t-13.5 2t-5 9.5l4 11.5t12 23l385 789q6 10 6 27v4q0 12 -13 12l-370 -6q-39 0 -45 6t-6 45v76q0 41 6 46t45 5h588q41 0 46 -5t5 -46v-29q0 -49 -23 -98l-393 -834q-16 -37 -24.5 -42t-49.5 -3z" />
<glyph unicode="8" horiz-adv-x="944" d="M864 272q0 -131 -109.5 -215t-279.5 -84q-160 0 -264.5 74t-104.5 193q0 164 164 274q25 14 25 20.5t-25 22.5q-152 102 -151 246q0 115 107.5 201t258.5 86q158 0 254.5 -74t96.5 -182q0 -141 -131 -236q-23 -18 -23 -23.5t23 -23.5q159 -119 159 -279zM330 264 q0 -61 39 -100t114 -39q70 0 106 35t36 88q0 88 -164 180q-29 16 -34 15t-28 -25q-69 -80 -69 -154zM346 819q0 -45 40 -79.5t144 -98.5q2 -2 5 -2h6q2 0 4 2q76 88 76 170q0 57 -36 93t-106 36q-133 0 -133 -121z" />
<glyph unicode="9" horiz-adv-x="944" d="M866 424q0 -170 -44 -295t-116.5 -189.5t-147.5 -93t-155 -28.5q-82 0 -161 26q-39 12 -44 20.5t-1 49.5l4 16q4 39 10 43t45 0q61 -8 106 -8q244 0 259 299q4 20 0.5 27.5t-8.5 6.5t-25 -11q-76 -33 -174 -33q-121 0 -219.5 82t-98.5 223q0 162 104.5 257t278.5 95 q197 0 292 -128t95 -359zM328 578q0 -162 137 -162q68 0 125 20q33 12 37 19.5t4 42.5q-4 131 -36 197.5t-112 66.5q-155 0 -155 -184z" />
<glyph unicode=":" horiz-adv-x="339" d="M295 104.5q0 -47.5 -35 -81t-82 -33.5q-51 0 -85 33.5t-34 81t34 81t85 33.5q47 0 82 -33.5t35 -81zM295 592q0 -47 -35 -81t-82 -34q-51 0 -85 34t-34 81t34 81t85 34q47 0 82 -34t35 -81z" />
<glyph unicode=";" horiz-adv-x="339" d="M297 88q0 -92 -48 -179t-157 -106q-16 -4 -19 -1t-3 22v2q0 16 3 20t19 9q37 12 62.5 49t25.5 67q0 29 -24 29q-35 0 -62.5 34t-27.5 72q0 47 32.5 81t77.5 34q49 0 85 -33.5t36 -99.5zM295 592q0 -47 -35 -81t-82 -34q-51 0 -85 34t-34 81t34 81t85 34q47 0 82 -34 t35 -81z" />
<glyph unicode="&#x3c;" horiz-adv-x="894" d="M782 92v-74q0 -20 -1 -25t-1 -13.5t-8 -5.5t-11 4.5l-24 11.5l-633 313q-35 16 -40 24.5t-5 49.5v45q0 41 5.5 49t41.5 23l629 282q37 16 42 12t5 -43v-71q0 -41 -5 -49.5t-42 -22.5l-416 -184q-20 -8 -24 -12.5t0 -8.5t24 -14l418 -217q35 -16 40 -25.5t5 -48.5z" />
<glyph unicode="=" horiz-adv-x="933" d="M770 102h-594q-41 0 -46 6.5t-5 45.5v63q0 41 5 46t46 5h594q41 0 46 -5t5 -46v-63q0 -39 -5 -45.5t-46 -6.5zM770 459h-594q-41 0 -46 6t-5 45v63q0 41 5 46.5t46 5.5h594q41 0 46 -5.5t5 -46.5v-63q0 -39 -5 -45t-46 -6z" />
<glyph unicode="&#x3e;" horiz-adv-x="894" d="M758 303l-633 -313q-39 -18 -43 -13q-2 6 -2 41v74q0 41 5 49.5t40 24.5l420 213q20 10 24 14t0 8.5t-24 12.5l-418 188q-37 14 -42 22.5t-5 49.5v71q0 39 5 43.5t42 -12.5l629 -282q37 -14 42 -22.5t5 -49.5v-45q0 -41 -5 -49.5t-40 -24.5z" />
<glyph unicode="?" horiz-adv-x="720" d="M348 342h-108q-31 0 -37 4t-15 35q-8 29 -8 47q0 61 25.5 113.5t62.5 88.5l74 68q37 33 62.5 70t25.5 76q0 72 -45 95.5t-125 23.5q-37 0 -123 -15q-39 -6 -46 -1t-13 44l-4 29q-4 41 0 47t41 20q127 41 207 41q57 0 108 -10t106.5 -36.5t88 -85t32.5 -142.5 q0 -61 -29.5 -112.5t-70.5 -88.5l-83 -71q-42 -35 -71.5 -79t-29.5 -95q0 -4 1 -16.5t1 -18.5q4 -25 1 -28t-28 -3zM412 98q0 -45 -35 -79.5t-82 -34.5q-49 0 -84 33.5t-35 80.5t34 81t85 34q47 0 82 -34t35 -81z" />
<glyph unicode="@" horiz-adv-x="1466" d="M686 -178q-8 -2 -31 -2q-254 0 -410.5 177t-156.5 445q0 264 178 449.5t463 185.5t456 -168t171 -432q0 -201 -96.5 -313.5t-237.5 -112.5q-137 0 -197 94q-10 14 -12 18.5t-8 5.5t-10 -1t-19 -12q-57 -39 -147 -39q-76 0 -134.5 56t-58.5 144q0 86 60.5 136.5 t142.5 50.5q61 0 109 -10q33 -4 36.5 0t3.5 34v50q0 90 -98 90q-51 0 -139 -27q-37 -10 -43 -6t-10 41l-2 4q-4 39 -1 45t37 23q121 53 205 53q94 0 163 -53.5t69 -161.5v-297q0 -92 82 -92q57 0 93 77.5t36 190.5q0 195 -121 327t-332 132t-338 -135.5t-127 -331.5 q0 -188 91 -320.5t270 -132.5q29 0 43 2q18 6 26 1t9 -9t4 -27l8 -121q2 -23 -1 -24.5t-26 -3.5zM608 323.5q0 -34.5 23.5 -61t60.5 -26.5q35 0 60 6q33 4 37 9t4 38v69q0 33 -4.5 38t-36.5 7q-8 0 -29 1.5t-31 1.5q-35 0 -59.5 -24t-24.5 -58.5z" />
<glyph unicode="A" horiz-adv-x="1114" d="M223 0h-131q-39 0 -43 5q-1 1 -1 5q0 10 9 39l365 1008q12 39 19.5 44t47.5 5h162q41 0 48.5 -5t19.5 -44l364 -1008q6 -20 8 -25q0 -1 1 -4.5t1.5 -6.5t0.5 -6q0 -5 -7 -5q-8 0 -13 -1t-25 -1h-134q-41 0 -48 5t-19 44l-70 199q-10 31 -16 35t-39 4h-309q-33 0 -39 -4 t-15 -35l-69 -199q-12 -39 -19.5 -44t-48.5 -5zM553 854l-119 -373q-8 -24 -8 -31t37 -8h211q37 0 36 8q0 8 -8 31l-116 373q-4 10 -15 10h-4q-10 0 -14 -10z" />
<glyph unicode="B" horiz-adv-x="978" d="M918 311q0 -150 -111 -239.5t-291 -89.5q-139 0 -342 12q-39 2 -45 8t-6 47v1006q0 41 6 47t45 8q170 10 320 10q154 0 245.5 -77.5t91.5 -188.5q0 -152 -122 -244q-23 -16 -22 -21t28 -16q203 -84 203 -262zM389 154q37 -6 92 -7q205 0 205 170q0 164 -203 164 q-41 0 -94 -4q-33 -2 -37 -6t-4 -37v-235q0 -33 4 -38t37 -7zM348 913v-243q0 -33 4 -37t37 -4h76q80 0 114.5 50t34.5 117.5t-36.5 114.5t-120.5 47q-51 0 -68 -2q-31 -2 -36 -7t-5 -36z" />
<glyph unicode="C" horiz-adv-x="950" d="M809 33q-121 -51 -289 -51q-203 0 -331 132t-128 431q0 270 135.5 422.5t366.5 152.5q111 0 217 -26q39 -10 43 -15.5t-4 -44.5l-12 -57q-8 -39 -15.5 -44t-46.5 1q-74 12 -139 12q-152 0 -223.5 -90t-71.5 -309q0 -205 73 -295t228 -90q68 0 172 28q39 10 45.5 6.5 t10.5 -42.5l8 -52q2 -20 2 -32t-2 -15q-4 -6 -39 -22z" />
<glyph unicode="D" horiz-adv-x="1042" d="M981 559q0 -133 -30.5 -237.5t-80 -167t-119 -103.5t-140 -56t-152.5 -15q-121 0 -285 20q-39 4 -45 10t-6 47v1000q0 41 6 47t45 8q123 12 307 12q88 0 169 -25.5t159 -85t125 -176t47 -278.5zM389 152q49 -4 105 -5q92 0 150 62.5t77.5 147.5t19.5 196q0 78 -13 143.5 t-46 127t-95.5 97t-152.5 35.5q-31 0 -43 -2q-33 -2 -37 -6t-4 -35v-716q0 -31 4 -37t35 -8z" />
<glyph unicode="E" horiz-adv-x="874" d="M731 0h-557q-39 0 -45 6t-6 45v1004q0 39 6 45t45 6h549q39 0 45 -6t6 -45v-62q0 -39 -6 -45t-45 -6h-330q-33 0 -37 -4t-4 -37v-205q0 -33 4 -37t37 -4h287q39 0 45 -5t4 -46l-2 -53q-2 -39 -7 -45t-46 -6h-281q-33 0 -37 -4t-4 -37v-252q0 -33 4 -37t37 -4h338 q39 0 45 -5t6 -46v-64q0 -39 -6 -45t-45 -6z" />
<glyph unicode="F" horiz-adv-x="835" d="M301 0h-127q-39 0 -45 6t-6 45v1004q0 39 6 45t45 6h528q39 0 45.5 -6t6.5 -45v-62q0 -39 -6.5 -45t-45.5 -6h-313q-33 0 -37 -4t-4 -37v-242q0 -33 4 -37t37 -4h268q39 0 45.5 -5t4.5 -46l-2 -55q-2 -39 -7.5 -45t-46.5 -6h-258q-33 0 -37 -4t-4 -37v-369q0 -39 -6 -45 t-45 -6z" />
<glyph unicode="G" horiz-adv-x="1032" d="M889 8q-176 -27 -352 -26q-213 0 -344.5 140t-131.5 423q0 272 144.5 424.5t404.5 152.5q98 0 221 -24q39 -8 43.5 -14.5t-6.5 -45.5l-14 -57q-10 -39 -18.5 -43t-47.5 2q-72 8 -149 8q-166 0 -247 -96t-81 -313q0 -201 77 -291t237 -90q23 0 51 4q33 2 37 7t4 38v162 q0 33 -4 37t-37 4h-70q-41 0 -46 6t-5 45v51q0 41 5 46t46 5h283q41 0 46 -5t5 -46v-444q0 -41 -6 -47.5t-45 -12.5z" />
<glyph unicode="H" horiz-adv-x="1128" d="M299 0h-125q-39 0 -45 6t-6 45v1004q0 39 6 45t45 6h125q41 0 46 -6t5 -45v-350q0 -33 4 -37t37 -4h330q33 0 37 4t4 37v350q0 39 6 45t45 6h125q41 0 46 -6t5 -45v-1004q0 -39 -5 -45t-46 -6h-125q-39 0 -45 6t-6 45v400q0 33 -4 37t-37 4h-330q-33 0 -37 -4.5t-4 -36.5 v-400q0 -39 -5 -45t-46 -6z" />
<glyph unicode="I" horiz-adv-x="593" d="M451 0h-297q-39 0 -45.5 6t-6.5 45v33q0 33 4.5 38t36.5 7l2 2q33 2 37 7t4 38v750q0 33 -4 38t-35 9h-4q-33 4 -37 9t-4 36v37q0 39 6.5 45t45.5 6h297q41 0 46 -6t5 -45v-37q0 -33 -4 -38t-37 -7l-2 -2q-33 -2 -37 -7.5t-4 -37.5v-750q0 -31 4 -36t37 -9h4q31 -4 35 -9 t4 -38v-33q0 -39 -5 -45t-46 -6z" />
<glyph unicode="J" horiz-adv-x="647" d="M465 291q0 -170 -84 -247t-211 -77q-49 0 -111 13q-39 8 -43 14q-1 2 -1 8q0 11 5 37l9 31q4 23 8 25.5t26 -1.5q6 0 18.5 -1t16.5 -1q135 0 135 199v645q0 33 -4 38t-36 7l-5 2q-33 2 -38 7t-5 40v25q0 39 5.5 45t46.5 6h307q41 0 46 -6t5 -45v-25q0 -35 -5 -40t-38 -7 l-6 -2q-33 -2 -37 -7t-4 -38v-645z" />
<glyph unicode="K" horiz-adv-x="1026" d="M299 0h-125q-39 0 -45 6t-6 45v1004q0 39 6 45t45 6h125q41 0 46 -6t5 -45v-373q0 -25 3 -28t28 -3h4q20 0 26.5 3t18.5 22l248 387q20 33 29.5 38t48.5 5h141q39 0 42 -5t-19 -38l-293 -449q-16 -27 -16.5 -35t16.5 -34l338 -502q20 -29 19 -36q0 -7 -42 -7h-168 q-39 0 -48 5t-30 38l-262 408q-12 20 -18 23t-29 3h-4q-27 0 -30 -3t-3 -28v-395q0 -39 -5 -45t-46 -6z" />
<glyph unicode="L" horiz-adv-x="757" d="M639 0h-465q-39 0 -45 6t-6 45v1004q0 39 6 45t45 6h127q39 0 45 -6t6 -45v-838q0 -33 4 -37t37 -4q109 0 252 4q39 0 45 -5q5 -4 5 -28q0 -8 -1 -18l-2 -78q-2 -39 -7 -45t-46 -6z" />
<glyph unicode="M" horiz-adv-x="1480" d="M301 0h-127q-39 0 -45 5q-5 4 -5 28q0 8 1 18l25 1004q2 39 7 45t46 6h297q41 0 48 -5t15 -44l172 -746q2 -10 15 -10h4q10 0 12 10l174 746q8 39 15.5 44t48.5 5h288q41 0 46 -6t8 -45l24 -1004q1 -10 1 -18q0 -24 -5 -28q-6 -5 -45 -5h-129q-41 0 -46 6t-7 45l-21 797 q0 10 -2 12t-12 2h-4q-14 0 -19 -14l-188 -766q-8 -39 -15.5 -44t-48.5 -5h-161q-41 0 -48.5 5t-15.5 44l-194 770q-4 14 -19 14h-4q-10 0 -12 -2t-2 -12l-19 -801q-2 -39 -7 -45t-46 -6z" />
<glyph unicode="N" horiz-adv-x="1144" d="M293 0h-119q-39 0 -45 6t-6 45v1004q0 39 6 45t45 6h184q41 0 49.5 -5t24.5 -42l338 -727q6 -10 18 -10h5q10 0 11 1t1 11l-17 721q-2 41 4.5 46t45.5 5h123q39 0 45 -6t6 -45v-1004q0 -39 -6.5 -45t-44.5 -6h-189q-41 0 -49 5t-25 42l-336 727q-6 12 -18 12h-4 q-14 0 -14 -12l16 -723q2 -41 -4 -46t-45 -5z" />
<glyph unicode="O" horiz-adv-x="1116" d="M1055 555q0 -258 -129 -415.5t-369 -157.5q-238 0 -367 157.5t-129 415.5q0 256 129 412.5t367 156.5t368 -156.5t130 -412.5zM315 557q0 -410 244 -410t244 410q0 403 -244 403t-244 -403z" />
<glyph unicode="P" horiz-adv-x="923" d="M303 0h-129q-39 0 -45 6t-6 45v1006q0 41 6 47t45 8q262 8 313 8q172 0 278.5 -103.5t106.5 -256.5q0 -164 -109.5 -274.5t-275.5 -110.5q-53 0 -92 6q-33 2 -37 -2t-4 -35v-293q0 -39 -5 -45t-46 -6zM385 532q41 -4 72 -4q92 0 141 63.5t49 158.5q0 90 -50 149t-142 59 q-12 0 -37 -1t-35 -1q-31 -2 -35 -7t-4 -36v-338q0 -31 4 -36t37 -7z" />
<glyph unicode="Q" horiz-adv-x="1116" d="M879 -299h-177q-39 0 -48 6t-27 39l-113 201q-14 27 -23.5 33t-39.5 12q-188 37 -289 187.5t-101 375.5q0 256 130.5 412.5t368 156.5t369.5 -157.5t132 -411.5q0 -195 -79 -336t-226 -201q-31 -12 -31 -18t16 -31l160 -227q8 -12 12.5 -17.5t6.5 -11.5t1 -7t-7.5 -3 t-12.5 -2h-22zM317 557q0 -92 8.5 -157.5t32 -129t74.5 -97.5t129 -34q63 0 109.5 23.5t72 60.5t40 95.5t18.5 111.5t4 127q0 92 -8.5 155.5t-31 127t-74.5 96.5t-130 33t-129 -33t-74.5 -96.5t-32 -128t-8.5 -154.5z" />
<glyph unicode="R" horiz-adv-x="972" d="M303 0h-129q-39 0 -45 6t-6 45v1004q0 41 6 47t45 8q170 10 326 10q174 0 273 -96t99 -240q0 -188 -184 -290q-27 -14 -28 -19.5t14 -32.5l246 -399q18 -28 17 -36q0 -7 -42 -7h-158q-39 0 -48 6t-27 39l-195 365q-16 29 -23.5 32.5t-37.5 3.5l-11 -2q-33 0 -37 -4 t-4 -37v-352q0 -39 -5 -45t-46 -6zM381 588q10 0 37.5 -1t44.5 -1q88 0 136 51t48 133q0 188 -190 188q-10 0 -35 -1t-37 -1q-33 -2 -37 -7t-4 -38v-282q0 -29 4 -34t33 -7z" />
<glyph unicode="S" horiz-adv-x="829" d="M768 338q0 -176 -116.5 -267t-301.5 -91q-125 0 -219 28q-39 8 -44 15.5t-3 48.5l4 73q2 39 7 43.5t44 -6.5q123 -27 178 -26q223 0 224 139q0 51 -50.5 92t-123 74t-144 71.5t-122 107.5t-50.5 161q0 164 112.5 242.5t282.5 78.5q96 0 185 -18q41 -8 46 -15.5t1 -48.5 l-6 -47q-4 -39 -10.5 -44t-47.5 1q-74 12 -147 13q-193 0 -193 -119q0 -49 51.5 -89t124 -72t144.5 -72t123 -109.5t51 -163.5z" />
<glyph unicode="T" horiz-adv-x="925" d="M512 0h-135q-41 0 -46 6t-5 45v848q0 33 -4.5 37t-36.5 4h-183q-39 0 -45 5q-5 4 -4 28v18l2 64q2 39 7.5 45t46.5 6h700q39 0 45 -5q5 -4 5 -28q0 -8 -1 -18l-2 -64q-2 -39 -7 -45t-46 -6h-199q-33 0 -37 -4t-4 -37v-848q0 -39 -5 -45t-46 -6z" />
<glyph unicode="U" horiz-adv-x="1093" d="M981 377q0 -209 -116.5 -305.5t-319.5 -96.5q-432 0 -432 402v678q0 39 5 45t46 6h129q39 0 45 -6t6 -45v-672q0 -240 201 -240q205 0 205 240v672q0 39 6 45t45 6h129q41 0 46 -6t5 -45v-678z" />
<glyph unicode="V" horiz-adv-x="1093" d="M639 0h-168q-41 0 -48 5t-20 44l-346 1008q-6 20 -7 25q0 1 -1 4.5t-1.5 6.5t-0.5 6q0 5 6 5q8 0 13.5 1t25.5 1h146q41 0 48 -5t19 -44l240 -750q6 -23 9 -27t6 0.5t9 26.5l244 750q12 39 19.5 44t48.5 5h131q39 0 43 -5q1 -1 1 -5q0 -10 -9 -39l-340 -1008 q-12 -39 -19.5 -44t-48.5 -5z" />
<glyph unicode="W" horiz-adv-x="1675" d="M588 0h-213q-41 0 -48.5 5t-15.5 44l-248 1008q-7 26 -6 37q0 5 1 7q5 5 44 5h146q41 0 48 -5t15 -44l178 -750q4 -18 7.5 -24.5t5.5 0t6 24.5l178 719q8 39 15.5 44t48.5 5h194q41 0 47 -5t15 -44l161 -717q4 -20 7.5 -25t5.5 -1t6 24l178 750q8 39 15 44t48 5h146 q20 0 25.5 -1t13.5 -1q7 0 6 -5q0 -3 -1 -9t-1 -8q0 -5 -6 -25l-123 -507q-94 -392 -123 -501q-8 -39 -15.5 -44t-48.5 -5h-213q-41 0 -48 5t-15 44l-176 766q-4 20 -6 24.5t-4 0.5t-9 -25l-178 -766q-8 -39 -15 -44t-48 -5z" />
<glyph unicode="X" horiz-adv-x="1132" d="M236 0h-164h-30q-7 0 -10 5q-1 2 -2 5q0 3 3 7q4 7 16 26l322 485q16 27 16 35t-16 35l-305 465q-16 25 -18.5 32t4.5 9t36 2h168q39 0 49 -5t31 -38l164 -256q10 -14 13 -19.5t9 -5.5t9.5 5.5t13.5 19.5l157 256q20 33 29.5 38t48.5 5h176h30q7 0 10 -5t-1 -12.5 t-16 -25.5l-291 -438q-16 -27 -16 -35t16 -35l348 -510q19 -28 19 -35q0 -5 -5 -6q-7 -2 -36 -2h-166q-39 0 -48 5t-32 38l-211 305q-10 14 -13 19.5t-9.5 5.5t-9.5 -5t-13 -20l-197 -307q-20 -33 -30 -38t-49 -5z" />
<glyph unicode="Y" horiz-adv-x="983" d="M557 0h-133q-39 0 -45 6t-6 45v301q0 41 -19 78l-321 631q-14 29 -14 39q0 3 1 4q6 2 41 2h148q41 0 49 -5t23 -42l192 -426q4 -10 16 -10h5q12 0 16 10l195 426q14 37 22 42t49 5h146q20 0 25 -1t14 -1q6 0 5 -4l-4 -16q-1 -3 -12 -23l-323 -631q-18 -37 -19 -78v-301 q0 -39 -5 -45t-46 -6z" />
<glyph unicode="Z" horiz-adv-x="942" d="M823 0h-710q-39 0 -45.5 6t-6.5 45v31q0 53 29 94l483 737q6 8 7 19v4q0 8 -1 9t-10 1h-428q-39 0 -45 5t-4 46v58q2 39 7 45t46 6h684q39 0 45.5 -6t6.5 -45v-29q0 -53 -29 -94l-483 -735q-6 -8 -7 -19v-4q0 -8 1.5 -9t9.5 -1h450q41 0 46 -6t5 -45v-62q0 -39 -5 -45 t-46 -6z" />
<glyph unicode="[" horiz-adv-x="626" d="M434 -262h-289q-39 0 -45 6t-6 45v1452q0 41 6 46t45 5h289q41 0 46 -5t5 -46v-39q0 -39 -5 -45t-46 -6h-82q-33 0 -37 -4t-4 -37v-1192q0 -33 4 -37t37 -4h82q41 0 46 -6t5 -45v-37q0 -39 -5 -45t-46 -6z" />
<glyph unicode="\" horiz-adv-x="876" d="M760 -313h-123q-41 0 -48 5t-22 42l-504 1394q-14 39 -10 44.5t43 5.5h125q41 0 48 -5.5t22 -42.5l504 -1394q6 -20 7 -25.5t3 -13.5t-6 -8t-13.5 -1t-25.5 -1z" />
<glyph unicode="]" horiz-adv-x="626" d="M467 -262h-291q-41 0 -46 6t-5 45v37q0 39 5 45t46 6h84q33 0 37 4t4 37v1194q0 33 -4 37t-37 4h-84q-41 0 -46 5t-5 46v37q0 41 5 46t46 5h291q41 0 46 -5t5 -46v-1452q0 -39 -5 -45t-46 -6z" />
<glyph unicode="^" d="M188 403h-100q-39 0 -42 5.5t15 40.5l250 432q18 33 27.5 39t48.5 6h121q39 0 48 -5.5t26 -39.5l225 -432q18 -39 12 -43q-6 -2 -41 -3h-100q-41 0 -49 5.5t-25 40.5l-145 292q-8 18 -10.5 22.5t-7.5 4.5t-7 -4l-12 -23l-158 -292q-18 -35 -27.5 -40.5t-48.5 -5.5z" />
<glyph unicode="_" horiz-adv-x="933" d="M770 -199h-594q-41 0 -46 5.5t-5 46.5v57q0 41 5 46t46 5h594q41 0 46 -5t5 -46v-57q0 -41 -5 -46.5t-46 -5.5z" />
<glyph unicode="`" horiz-adv-x="884" d="M465 907h-49q-39 0 -48.5 5.5t-29.5 37.5l-90 148q-20 33 -17.5 38t41.5 5h105q41 0 48 -5.5t21 -41.5l52 -140q14 -37 10 -42t-43 -5z" />
<glyph unicode="a" horiz-adv-x="860" d="M471 39q-90 -59 -195 -59q-102 0 -163.5 65.5t-61.5 173.5q0 123 88 179.5t217 56.5q49 0 95 -9q18 -6 26 -3t9 7.5t1 26.5v82q0 117 -151 117q-70 0 -172 -39q-37 -14 -43 -11t-12 42l-5 34q-6 39 -2 46.5t41 21.5q131 53 258 53q123 0 215.5 -64.5t92.5 -178.5v-430 q0 -29 4 -33t32 0l5 2q29 4 33.5 0t11.5 -33l4 -14q6 -24 6 -34q0 -8 -7 -13t-30 -15q-74 -31 -139.5 -30.5t-104.5 51.5q-18 23 -23 22.5t-30 -14.5zM264 219q0 -92 107 -92q35 0 80 16q29 8 32.5 15.5t3.5 38.5v102q0 31 -4 36q-3 4 -20 4q-7 0 -17 -1q-182 -10 -182 -119 z" />
<glyph unicode="b" horiz-adv-x="944" d="M868 434q0 -238 -126 -347.5t-314 -109.5q-139 0 -254 21q-39 6 -45 12t-6 47q0 63 1 490.5t1 630.5q0 39 5 45t46 6h121q39 0 45 -6t6 -45v-355q0 -31 4 -34t35 8q76 27 143 26q131 0 234.5 -94t103.5 -295zM379 133q41 -8 88 -8q86 0 130 81t44 210q0 117 -49 190.5 t-129 73.5q-39 0 -80 -8q-31 -6 -35 -11.5t-4 -35.5v-451q0 -29 4 -33t31 -8z" />
<glyph unicode="c" horiz-adv-x="739" d="M635 23q-98 -35 -189 -39q-51 0 -75 4q-131 18 -211 119.5t-80 283.5q0 215 105.5 322.5t289.5 107.5q43 0 137 -12q41 -8 45.5 -13t-4.5 -46l-8 -39q-8 -39 -15 -44t-46 1t-76 6q-104 0 -155.5 -60.5t-51.5 -210.5q0 -270 203 -270q55 0 117 12q39 8 45 4t8 -43 q2 -6 2 -18q2 -17 2 -28q0 -14 -3 -18q-5 -7 -40 -19z" />
<glyph unicode="d" horiz-adv-x="929" d="M555 29q-80 -51 -197 -52q-135 0 -216 105.5t-81 325.5q0 205 105.5 310t234.5 105q76 0 142 -24q31 -10 35 -8t4 34v353q0 39 6 45t45 6h117q41 0 46 -6t5 -45v-1117q0 -41 -6.5 -47t-44.5 -10l-68 -8q-29 -4 -37 -1t-28.5 25.5t-26.5 23.5t-35 -15zM293 397 q2 -121 39 -196.5t112 -75.5q55 0 101 16q31 8 35 14.5t4 37.5v425q0 31 -4.5 36t-34.5 14q-41 8 -92 8q-82 0 -121 -78t-39 -201z" />
<glyph unicode="e" horiz-adv-x="843" d="M686 29q-117 -47 -268 -49q-3 0 -6 -1q-150 0 -249 112q-101 114 -101.5 312.5t101 309t265.5 110.5q162 0 253 -94t91 -274q0 -8 -1 -23.5t-1 -23.5q-4 -16 -8 -23l-2 -4q-6 -12 -19 -12h-411q-33 0 -37 -4.5t0 -36.5q14 -193 188 -193q86 0 187 31q29 8 37 8t11 -7 t7 -38l4 -33q4 -39 0 -46t-41 -21zM434 690q-29 0 -48 -5t-40.5 -21.5t-34 -52.5t-14.5 -91q-1 -11 -1 -18q0 -15 3 -18t17 -3h18l176 6q33 2 37 7q2 2 2 11t-2 25q-13 160 -113 160z" />
<glyph unicode="f" horiz-adv-x="622" d="M356 0h-118q-41 0 -46.5 6t-5.5 45v572q0 33 -4 37t-37 4h-45q-35 0 -39 4t-4 39v4q0 33 4.5 39t34.5 16l43 16q31 10 35 16.5t2 39.5q-12 143 -12 194q0 113 84 181.5t182 68.5q76 0 164 -18q39 -10 43 -17q1 -2 1 -5q0 -11 -9 -40l-6 -18q-10 -39 -17.5 -44t-48.5 1 q-37 4 -57 4q-72 0 -96.5 -40t-24.5 -112q0 -63 14 -159q4 -33 9.5 -37t37.5 -4h78q39 0 45 -5.5t6 -46.5v-26q0 -39 -6 -45t-45 -6h-69q-33 0 -37 -4.5t-4 -36.5v-572q0 -39 -5.5 -45t-46.5 -6z" />
<glyph unicode="g" horiz-adv-x="851" d="M799 -78q0 -156 -107.5 -234.5t-279.5 -78.5q-168 0 -269.5 61.5t-101.5 175.5q0 109 121 162q27 10 27.5 15.5t-19.5 23.5q-45 49 -45 111q0 63 63 112q14 12 18.5 14.5t3.5 8.5t-4 8t-20 12q-117 76 -116 236q0 125 88 199.5t235 74.5q111 0 197 -41q29 -12 36 -11 t31 17q45 29 97 48q30 11 40 11q3 0 4 -1q5 -4 5 -45v-68q0 -41 -6 -46t-45 -7l-17 -2q-31 -2 -34 -6t6 -35q14 -41 14 -88q0 -121 -87 -195.5t-259 -74.5q-74 0 -74 -52q0 -35 51 -49t124 -21t146.5 -22.5t125 -69t51.5 -143.5zM240 -117q0 -55 48 -90t124 -35q78 0 127 29 q47 28 47 87q0 62 -60 84q-57 22 -184 32q-27 2 -35 -1t-26 -20q-41 -37 -41 -86zM276 551q4 -141 117 -141q59 0 89 38.5t30 102.5q0 143 -119 143q-117 0 -117 -143z" />
<glyph unicode="h" horiz-adv-x="950" d="M295 0h-121q-39 0 -45 6t-6 45v1127q0 39 6 45t45 6h119q39 0 45 -6t6 -45v-375q0 -33 6 -33q4 0 34 13.5t78 26.5t95 13q43 0 85 -12t87 -44t71.5 -97.5t26.5 -159.5v-459q0 -39 -6 -45t-45 -6h-119q-39 0 -45 6t-6 45v459q0 170 -135 170q-125 0 -125 -64v-565 q0 -39 -5 -45t-46 -6z" />
<glyph unicode="i" horiz-adv-x="536" d="M387 1042.5q0 -51.5 -37 -87t-88 -35.5q-55 0 -92 35.5t-37 86.5q0 53 37 88t92 35q51 0 88 -35.5t37 -87zM330 0h-111q-39 0 -45 6t-6 45v551q0 33 -4 38t-37 11l-8 2q-37 8 -42 14.5t-5 43.5v14q0 41 6 47t45 8l207 15q16 2 27 1q16 0 19 -3q5 -6 5 -45v-697 q0 -39 -6 -45t-45 -6z" />
<glyph unicode="j" horiz-adv-x="530" d="M383 -47q0 -172 -94 -257t-221 -85q-53 0 -111 16q-39 10 -43 18q-1 2 -1 6q0 12 7 40l4 18q8 39 15.5 43t46.5 -2q31 -6 63 -6q31 0 54.5 8t37 30.5t21.5 43t11 63.5t4 72t1 90v541q0 33 -4 38t-37 11l-12 2q-39 8 -45 14.5t-6 47.5v10q0 41 6 47t45 8l207 14 q41 4 46 -2t5 -45v-784zM383 1042.5q0 -51.5 -37 -87t-90 -35.5t-90 35.5t-37 87t37 87t90 35.5t90 -35.5t37 -87z" />
<glyph unicode="k" horiz-adv-x="892" d="M295 0h-121q-39 0 -45 6t-6 45v1127q0 39 6 45t45 6h121q41 0 46 -6t5 -45v-639q0 -16 3 -19.5t20 -3.5h4q20 0 33 19l165 233q23 31 33 36t49 5h127q39 0 41 -5t-20 -36l-199 -279q-18 -27 -18 -32.5t16 -34.5l250 -379q20 -29 20 -36t-43 -7h-147q-39 0 -48 5t-30 38 l-186 301q-10 16 -15.5 19.5t-23.5 3.5h-4q-23 0 -25 -2.5t-2 -22.5v-291q0 -39 -5 -45t-46 -6z" />
<glyph unicode="l" horiz-adv-x="493" d="M299 0h-125q-39 0 -45 6t-6 45v1118q0 41 6 47.5t45 8.5l125 12q16 2 27 2q16 0 19 -4q5 -6 5 -45v-1139q0 -39 -5 -45t-46 -6z" />
<glyph unicode="m" horiz-adv-x="1394" d="M297 0h-123q-39 0 -45 6t-6 45v705q0 41 6 47t45 10l59 6q31 4 40.5 0t29.5 -26l4 -2q23 -23 29 -24t35 13q86 43 147 43q127 0 207 -47q25 -16 32 -17t34 13q92 51 204 51q39 0 64.5 -2t67.5 -16t68 -40t46.5 -80t20.5 -130v-504q0 -39 -6.5 -45t-45.5 -6h-123 q-39 0 -45 6t-6 45v504q0 45 -11 72.5t-34.5 38t-38 12.5t-41 2t-67.5 -12q-31 -8 -35 -15.5t-4 -38.5v-563q0 -39 -5 -45t-46 -6h-121q-39 0 -45 6t-6 45v504q0 43 -10.5 70.5t-32 38t-39 13.5t-43.5 3q-29 0 -70 -12q-31 -8 -35 -14.5t-4 -39.5v-563q0 -39 -6 -45t-45 -6z " />
<glyph unicode="n" horiz-adv-x="962" d="M297 0h-123q-39 0 -45 6t-6 45v705q0 41 6 47t45 10l59 6q31 4 40.5 0t31.5 -24l2 -2q23 -23 31 -25t37 12q104 43 196 43q119 0 194 -66.5t75 -213.5v-492q0 -39 -6.5 -45t-45.5 -6h-122q-39 0 -45.5 6t-6.5 45v481q0 86 -29.5 117t-99.5 31q-53 0 -98 -12 q-31 -8 -35 -14.5t-4 -37.5v-565q0 -39 -6 -45t-45 -6z" />
<glyph unicode="o" horiz-adv-x="919" d="M850 403q0 -186 -107.5 -303.5t-287.5 -117.5q-178 0 -286 117.5t-108 303.5q0 184 107.5 302t286 118t287 -118t108.5 -302zM291 403q0 -283 164 -282q162 0 161 282q0 59 -6 104.5t-21.5 88.5t-49 65.5t-84.5 22.5q-164 0 -164 -281z" />
<glyph unicode="p" horiz-adv-x="940" d="M295 -379h-121q-39 0 -45 5t-6 46v1084q0 41 6 47t45 10l55 6q33 4 42.5 0t33.5 -24l2 -2q25 -23 33 -24t37 13q78 41 168 41q49 0 100 -18.5t104.5 -59t88 -121.5t34.5 -190q0 -217 -105 -325.5t-288 -108.5q-45 0 -94 8q-31 4 -35 1t-4 -34v-303q0 -41 -5 -46t-46 -5z M383 147q37 -4 68 -4q94 0 138 79t44 200q0 111 -39 182.5t-109 71.5q-57 0 -106 -12q-29 -8 -33 -13.5t-4 -34.5v-423q0 -31 4 -36.5t37 -9.5z" />
<glyph unicode="q" horiz-adv-x="935" d="M758 -383l-123 -12q-16 -2 -27 -2q-16 0 -19 4q-5 6 -5 45v315q0 31 -4.5 35t-36.5 -2q-113 -20 -195 -20q-104 0 -195.5 103t-91.5 312q0 205 104.5 316.5t219.5 111.5q121 0 373 -12q39 -2 45 -8t6 -47v-1084q0 -41 -6 -47t-45 -8zM299 416q0 -291 154 -291q53 0 98 12 q29 8 33 14.5t4 34.5v447q0 31 -4 36t-37 7q-37 4 -64 4q-184 0 -184 -264z" />
<glyph unicode="r" horiz-adv-x="634" d="M295 0h-121q-39 0 -45 6t-6 45v705q0 41 6 47t45 10l47 4q39 6 49.5 1t30.5 -36l10 -16q18 -27 24.5 -28t31.5 20q84 57 145 73q27 7 38 7q5 0 7 -1q2 -3 2 -14t-2 -30l-12 -95q-4 -41 -11.5 -48t-46.5 -11q-35 -4 -102 -18q-31 -8 -35 -13.5t-4 -38.5v-518q0 -39 -5 -45 t-46 -6z" />
<glyph unicode="s" horiz-adv-x="729" d="M657 233q0 -119 -96 -186q-93 -66 -212 -65h-7q-109 2 -201 28q-39 8 -44 15.5t-1 48.5l2 45q2 20 3 25.5t2 13.5t9.5 6t13.5 -2t26 -6q109 -29 157 -31q133 0 133 84q0 43 -58 76.5t-127 57.5t-127 84t-58 151q0 115 90 178t219 63q70 0 164 -22q39 -10 43 -15.5 t-2 -46.5l-4 -28q-6 -39 -12.5 -44.5t-45.5 3.5q-86 14 -129 14q-123 0 -123 -80q0 -39 60.5 -71.5t132.5 -57.5t132 -86.5t60 -151.5z" />
<glyph unicode="t" horiz-adv-x="643" d="M522 4q-78 -20 -139 -20q-86 0 -143.5 53t-57.5 158v428q0 33 -4 37t-37 4h-37q-35 0 -39 4t-4 39v4q0 33 4.5 39t34.5 16l39 16q29 10 35 17.5t14 36.5l23 86q8 39 15 45t48 10l76 8q15 5 26 5q7 0 11 -2q12 -5 13 -11t1 -37v-106q0 -33 4.5 -37t36.5 -4h72 q39 0 45 -5.5t6 -46.5v-26q0 -39 -6 -45t-45 -6h-72q-33 0 -37 -4.5t-4 -36.5v-412q0 -66 68 -66q12 0 33 5q37 8 43 2.5t12 -41.5q4 -29 8 -43q3 -21 4 -34q0 -10 -3 -14q-5 -8 -44 -16z" />
<glyph unicode="u" horiz-adv-x="948" d="M575 31q-121 -53 -231 -54q-104 0 -167.5 75t-63.5 222v474q0 41 6 46t45 7l117 6q41 2 46 -4t5 -45v-473q0 -92 29.5 -126t95.5 -34q45 0 102 14q31 8 35 14.5t4 36.5v568q0 41 6 46t45 5h117q41 0 46 -5t5 -46v-707q0 -41 -6 -47t-45 -10l-51 -8q-33 -4 -42 -1t-30 27 l-2 2q-23 25 -30 27t-36 -10z" />
<glyph unicode="v" horiz-adv-x="858" d="M512 0h-172q-41 0 -48 5t-20 44l-225 711q-6 20 -7 25q0 1 -1 4.5t-2 6.5t-1 6q0 5 7 5q8 0 13 1t26 1h115q41 0 48 -5t17 -44l152 -504q6 -23 9 -27t6 0t9 27l156 504q10 39 17 44t48 5h115q39 0 43 -5q1 -1 1 -5q0 -10 -9 -39l-229 -711q-12 -39 -19.5 -44t-48.5 -5z " />
<glyph unicode="w" horiz-adv-x="1318" d="M444 0h-161q-41 0 -48.5 5t-15.5 44l-176 711q-7 26 -7 37q0 5 2 7q5 5 44 5h119q41 0 47 -5t14 -44l107 -490q8 -29 10 -28.5t10 28.5q16 51 39 143l50 202l36 147q8 37 15.5 42t45.5 5h132q41 0 48 -5t15 -44l131 -490q6 -20 8 -24t5.5 1t7.5 25l110 488q8 39 14.5 44 t47.5 5h114q39 0 44 -5q2 -2 2 -7q0 -11 -7 -37l-172 -711q-8 -39 -15 -44t-48 -5h-164q-41 0 -48 5t-16 44l-127 486q-10 41 -22 0l-127 -486q-8 -39 -15.5 -44t-48.5 -5z" />
<glyph unicode="x" horiz-adv-x="903" d="M209 0h-137h-30q-7 0 -10 5q-1 2 -2 5q0 3 3 6l16 25l238 338q16 27 16 33t-16 32l-226 324q-8 12 -12 17.5t-6 11.5t-1 7t7 3t12 2h23h131q39 0 49 -5t33 -36l106 -152q10 -14 14.5 -19t10.5 -5t9 5t14 19l104 150q23 33 32 38t48 5h137h30q7 0 10 -5t-1 -11l-16 -25 l-220 -313q-16 -27 -16 -33t19 -33l249 -348q21 -28 21 -35q0 -6 -41 -6h-131q-39 0 -49.5 5t-32.5 36l-131 182q-12 16 -14.5 20.5t-9.5 4.5t-9 -4t-14 -21l-127 -182q-23 -31 -32 -36t-48 -5z" />
<glyph unicode="y" horiz-adv-x="882" d="M346 -377l-106 6q-39 2 -43 7.5t10 41.5l139 371q6 16 -10 17h-4q-14 0 -17.5 2t-7.5 14l-278 680q-11 29 -11 38t43 9h115q41 0 48 -5t22 -42l166 -412q8 -20 11 -25.5t7 0t10 25.5l152 412q14 37 21.5 42t48.5 5h118q44 0 44 -9t-11 -38l-397 -1094q-14 -37 -22 -42 q-5 -4 -27 -3q-9 -1 -21 0z" />
<glyph unicode="z" horiz-adv-x="749" d="M629 0h-506q-41 0 -46 6t-5 45v31q0 53 28 94l318 453q10 14 13 19t1 9.5t-8 4.5h-25l-245 6q-39 0 -45.5 6t-6.5 45v39q0 41 6.5 46t45.5 5h477q41 0 46 -5t5 -46v-27q0 -53 -29 -94l-315 -455q-10 -14 -13 -19t-1 -9t8 -4h24l273 -3q39 0 45 -6t6 -45v-45q0 -39 -6 -45 t-45 -6z" />
<glyph unicode="{" horiz-adv-x="786" d="M645 -209v-2q0 -39 -5 -45t-46 -6q-186 6 -270 69.5t-84 233.5v270q0 125 -95 148q-39 8 -45 15t-6 48v21q0 41 6 47t45 14q94 16 95 141v244q0 170 78.5 233.5t275.5 69.5q41 0 46 -5t5 -46v-2q0 -41 -6 -47t-45 -8q-39 -4 -65.5 -15.5t-40 -22.5t-19.5 -38t-7 -44 t-1 -54v-17v-243q0 -170 -144 -211q-29 -8 0 -15q143 -39 144 -215v-270q0 -41 1 -60.5t7 -48t20.5 -42t40 -26t64.5 -16.5q41 -4 46 -10t5 -45z" />
<glyph unicode="|" horiz-adv-x="491" d="M264 -369h-76q-41 0 -46 6.5t-5 45.5v1540q0 39 5 45t46 6h76q39 0 45 -6t6 -45v-1540q0 -39 -6 -45.5t-45 -6.5z" />
<glyph unicode="}" horiz-adv-x="786" d="M532 41q0 -170 -85 -233.5t-271 -69.5q-41 0 -46 6t-5 45v21q0 41 6 47t45 8q49 4 78 15t41 38t14 48.5t2 72.5v270q0 176 144 215q29 6 0 15q-143 41 -144 211v243q0 53 -1 71.5t-13 47.5t-41 39t-80 14q-39 2 -45 8.5t-6 47.5v20q0 41 5 46t46 5q199 -6 277.5 -69.5 t78.5 -233.5v-244q0 -125 95 -141q39 -8 45 -14t6 -47v-21q0 -41 -6 -48t-45 -15q-94 -23 -95 -148v-270z" />
<glyph unicode="~" horiz-adv-x="942" d="M827 385q-72 -133 -184 -133q-63 0 -128.5 42t-122 84t-99.5 42q-45 0 -96 -68q-23 -31 -29 -30.5t-23 32.5l-16 31q-16 33 -16 42t18 42q70 125 172 125q74 0 191.5 -83t169.5 -83q55 0 100 70q20 33 25.5 32.5t23.5 -32.5l14 -27q16 -33 16 -43t-16 -43z" />
<glyph unicode="&#xa1;" horiz-adv-x="503" d="M358 664q0 -49 -33.5 -84t-89 -35t-89 34.5t-33.5 84.5q0 51 33.5 85.5t89.5 34.5q57 0 89.5 -34.5t32.5 -85.5zM297 -340h-121q-39 0 -45 5t-4 46l16 664q2 39 7.5 45t46.5 6h77q41 0 46.5 -6t7.5 -45l18 -664q2 -41 -4 -46t-45 -5z" />
<glyph unicode="&#xa2;" horiz-adv-x="712" d="M428 -229h-51q-41 0 -46 6t-5 45v123q0 33 -4.5 38t-36.5 13q-254 59 -254 407q0 150 69.5 247.5t186.5 140.5q31 10 35 16t4 39v137q0 41 5 46t46 5h51q39 0 45 -5t6 -46v-123q0 -33 4 -38t37 -9q25 -2 55 -10q37 -8 41.5 -13.5t-0.5 -44.5l-6 -40q-4 -39 -10 -45.5 t-47 -2.5q-49 6 -137 7q-80 0 -125 -77t-45 -192q0 -113 45 -184.5t147 -71.5q66 0 148 19q39 8 45 3t10 -44l2 -17q4 -35 0 -42t-37 -21q-37 -18 -86 -35q-33 -8 -37 -14t-4 -39v-127q0 -39 -6 -45t-45 -6z" />
<glyph unicode="&#xa3;" horiz-adv-x="923" d="M799 0h-666q-41 0 -48 5t-15 44l-9 35q-10 41 -7 52t34 40q84 76 119 289q4 31 1 35t-34 6q-37 4 -57 4q-39 2 -45 8t-6 47v39q0 39 6 45t45 6h65q33 0 37 4.5t4 34.5q2 16 2 45q0 115 34 197t93.5 122t121 57.5t134.5 17.5q94 0 197 -27q39 -10 42 -16.5t-5 -47.5 l-21 -81q-10 -39 -16 -42.5t-43 11.5q-92 37 -152 37q-158 0 -157 -224q0 -31 -2 -47q0 -33 4 -37t37 -4h135q41 0 46 -6t5 -45v-69q0 -39 -5 -45.5t-46 -4.5l-148 9q-31 2 -37 -3.5t-10 -35.5q-29 -168 -94 -256q-8 -10 -10 -14.5t-5.5 -9.5t2.5 -5h10h19l445 18 q41 2 46 -4t5 -45v-88q0 -39 -5 -45t-46 -6z" />
<glyph unicode="&#xa4;" horiz-adv-x="1198" d="M315 172l-86 -86q-29 -29 -37 -29t-36 29l-50 51q-29 29 -28.5 37t28.5 37l89 88q23 23 23.5 30t-15.5 36q-47 84 -47 190q0 100 47 188q16 29 15 36t-23 30l-89 90q-29 29 -28.5 37t28.5 37l50 49q29 29 37 29t36 -29l86 -88q23 -23 30 -24t36 14q84 45 197 45 q100 0 186 -41q29 -14 37 -13.5t30 23.5l87 84q29 29 37 29t36 -29l51 -49q29 -29 29 -37t-29 -37l-84 -86q-23 -23 -23.5 -30t15.5 -35q47 -88 47 -193q0 -113 -49 -201q-14 -27 -14 -32t22 -27l26 -26l32 -32q14 -15 26 -26q29 -29 29 -37t-29 -37l-49 -51 q-29 -29 -37 -29t-36 29l-87 84q-23 23 -30.5 24t-36.5 -14q-86 -41 -186 -41q-106 0 -197 43q-29 14 -36 13.5t-30 -23.5zM319 555q0 -109 76 -185.5t182.5 -76.5t182.5 76.5t76 185.5t-76 185.5t-182.5 76.5t-182.5 -76.5t-76 -185.5z" />
<glyph unicode="&#xa5;" horiz-adv-x="1087" d="M621 0h-152q-31 0 -35 4t-4 35v4q0 31 -4 35t-35 4h-149q-41 0 -46.5 6t-5.5 45v33q0 39 5.5 45t46.5 6h147q33 0 37 4t4 37v35q0 33 -4 37t-37 4h-147q-41 0 -46.5 5t-5.5 46v35q0 39 5.5 45t46.5 6h159q8 0 9.5 1t1.5 9v4q0 10 -6 19l-322 551q-20 35 -17 40t42 5h141 q39 0 48 -5t28 -40l200 -373q6 -10 19 -10h4q10 0 16 10l203 373q18 35 27.5 40t48.5 5h143q39 0 42 -5t-17 -38l-328 -553q-6 -8 -6 -19v-4q0 -8 1 -9t9 -1h160q41 0 46 -6t5 -45v-35q0 -41 -5 -46t-46 -5h-148q-33 0 -37 -4t-4 -37v-35q0 -33 4.5 -37t36.5 -4h148 q41 0 46 -6t5 -45v-33q0 -39 -5 -45t-46 -6h-150q-31 0 -35 -4t-4 -35v-4q0 -31 -3.5 -35t-34.5 -4z" />
<glyph unicode="&#xa6;" horiz-adv-x="436" d="M197 -360h-52q-39 0 -45 6t-6 45v497q0 41 6 46.5t45 5.5h52q41 0 46 -5.5t5 -46.5v-497q0 -39 -5 -45t-46 -6zM197 664h-52q-39 0 -45 6t-6 45v497q0 41 6 46.5t45 5.5h52q41 0 46 -5.5t5 -46.5v-497q0 -39 -5 -45t-46 -6z" />
<glyph unicode="&#xa7;" horiz-adv-x="753" d="M670 -170q0 -135 -110.5 -209t-252.5 -74q-94 0 -176 29q-39 10 -43 17.5t4 46.5l10 53q8 39 14.5 43t43.5 -10q102 -33 164 -33q57 0 100 25.5t43 76.5q0 47 -44 75t-107.5 45t-126 38.5t-106.5 73t-44 131.5q0 111 106 184l19 13q4 3 5 9.5t-3 8.5t-19 14 q-90 70 -90 154q0 119 99.5 193.5t228.5 74.5q66 0 131 -16q39 -10 43 -16.5t-4 -45.5l-8 -33q-8 -39 -15.5 -43t-48.5 0q-33 6 -77 7q-57 0 -106.5 -25t-49.5 -78q0 -47 68.5 -76.5t151.5 -45t151.5 -68t68.5 -140.5q0 -115 -104 -200q-23 -20 -23 -25.5t23 -23.5 q84 -72 84 -150zM229 176q0 -90 152 -90q111 0 111 98q0 92 -150 92q-113 0 -113 -100z" />
<glyph unicode="&#xa8;" horiz-adv-x="884" d="M387 1036q0 -45 -35 -78.5t-82 -33.5q-51 0 -84.5 32.5t-33.5 79.5t33.5 81t84.5 34q47 0 82 -34t35 -81zM715 1036q0 -45 -35 -78.5t-82 -33.5q-51 0 -85 32.5t-34 79.5t34 81t85 34q47 0 82 -34t35 -81z" />
<glyph unicode="&#xa9;" horiz-adv-x="1466" d="M905 147q-92 -39 -160 -38q-129 0 -212.5 80.5t-83.5 246.5q0 164 93 246t226 82q47 0 109 -14q35 -10 39 -17.5t-1 -42.5l-2 -10q-4 -39 -10 -44t-45 -1q-47 6 -108.5 6t-96.5 -58.5t-35 -146.5t44.5 -143t128.5 -55q45 0 98 12q33 6 39 2t10 -37v-6q4 -33 1 -40.5 t-34 -21.5zM1346 430q0 -252 -179.5 -433t-431.5 -181q-254 0 -434 181t-180 433q0 254 180 433t434 179t432.5 -179t178.5 -433zM268 430.5q0 -192.5 137.5 -330t330 -137.5t328.5 137.5t136 330t-136 329.5t-328.5 137t-330 -137t-137.5 -329.5z" />
<glyph unicode="&#xaa;" horiz-adv-x="884" d="M479 555q-72 -43 -149 -43q-82 0 -131 52t-49 141q0 98 70.5 142t172.5 44q31 0 63.5 -4t37 0t4.5 35v53q0 94 -121 94q-61 0 -127 -29q-37 -14 -43 -10t-12 43v8q-6 39 -2 46.5t40 21.5q106 39 197 39q98 0 172 -52.5t74 -144.5v-344q0 -23 3 -26t26 2h4q23 4 26.5 1 t7.5 -26l5 -12q6 -27 4 -33t-29 -16q-63 -25 -111 -25q-45 0 -80 35q-18 23 -24 22.5t-29 -14.5zM319 705q0 -74 87 -74q29 0 55 10q29 8 33 14.5t4 34.5v70q0 33 -4.5 37t-36.5 0q-138 -10 -138 -92z" />
<glyph unicode="&#xab;" horiz-adv-x="1019" d="M492 29h-5q-23 0 -38 14l-324 313q-29 29 -29 37t29 35l330 307q14 12 34 13h5q14 0 16 -2.5t2 -16.5v-55q0 -37 -5 -49.5t-28 -40.5l-127 -156q-20 -25 -20 -32t18 -31l131 -170q23 -29 27 -43.5t4 -49.5v-51q0 -16 -2 -19t-18 -3zM897 29h-4q-23 0 -39 14l-324 313 q-29 29 -28.5 37t28.5 35l330 307q14 12 35 13h4q14 0 16.5 -2.5t2.5 -16.5v-55q0 -37 -5.5 -49.5t-27.5 -40.5l-127 -156q-20 -25 -20.5 -32t18.5 -31l131 -170q23 -29 27 -43.5t4 -49.5v-51q0 -16 -2.5 -19t-18.5 -3z" />
<glyph unicode="&#xac;" horiz-adv-x="933" d="M750 37h-93q-39 0 -45 6t-6 45v203q0 33 -4 37t-37 4h-442q-41 0 -46 6t-5 45v41q0 39 5 45t46 6h549q49 0 84 -10h4q33 -8 37 -13.5t4 -39.5v-324q0 -39 -5 -45t-46 -6z" />
<glyph unicode="&#xad;" horiz-adv-x="624" d="M455 338h-277q-39 0 -45 5t-6 46v62q0 41 6 46t45 5h277q41 0 46 -5t5 -46v-62q0 -41 -5 -46t-46 -5z" />
<glyph unicode="&#xae;" horiz-adv-x="1466" d="M610 127h-51q-39 0 -45 6t-6 45v531q0 41 6 46t45 7q68 6 186 6q109 0 174.5 -57.5t65.5 -139.5q0 -106 -98 -161q-16 -8 -21.5 -11.5t-6.5 -10.5t2 -11t13 -21l101 -155q23 -33 20.5 -40t-41.5 -16l-47 -12q-39 -10 -47 -6t-26 39l-103 184q-10 16 -14 19.5t-25 3.5h-4 q-20 0 -23 -2t-3 -25v-168q0 -39 -5.5 -45t-46.5 -6zM1346 430q0 -252 -179.5 -433t-431.5 -181q-254 0 -434 181t-180 433q0 254 180 433t434 179t432.5 -179t178.5 -433zM268 430.5q0 -192.5 137.5 -330t330 -137.5t328.5 137.5t136 330t-136 329.5t-328.5 137t-330 -137 t-137.5 -329.5zM657 627v-119q0 -27 3.5 -30t29.5 -3h37q49 0 79 27.5t30 66.5q0 90 -109 90h-37q-27 0 -30 -2.5t-3 -29.5z" />
<glyph unicode="&#xb0;" horiz-adv-x="808" d="M694 844q0 -121 -88 -206t-213 -85q-127 0 -216 84t-89 207q0 125 89 207t216 82t214 -82t87 -207zM233 846q0 -66 47.5 -113t110.5 -47q66 0 110 47t44 112.5t-43 108.5t-111 43q-66 0 -112 -44t-46 -107z" />
<glyph unicode="&#xb1;" horiz-adv-x="942" d="M539 350h-66q-39 0 -45 5t-6 46v168q0 33 -4 37t-37 4h-137q-39 0 -45 6.5t-6 45.5v38q0 41 6 46.5t45 5.5h137q33 0 37 4t4 37v149q0 41 6 46t45 5h66q39 0 45 -5t6 -46v-149q0 -33 4 -37t37 -4h137q39 0 45 -5.5t6 -46.5v-38q0 -39 -6 -45.5t-45 -6.5h-137 q-33 0 -37 -4t-4 -37v-168q0 -41 -6 -46t-45 -5zM784 100h-559q-41 0 -46 5.5t-5 46.5v45q0 41 5 46t46 5h559q39 0 45.5 -5t6.5 -46v-45q0 -41 -6.5 -46.5t-45.5 -5.5z" />
<glyph unicode="&#xb2;" horiz-adv-x="837" d="M618 512h-411q-39 0 -45 6t-6 45v8q0 37 5 49.5t32 38.5q211 211 256 275q43 59 43 98q0 80 -144 80q-29 0 -104 -10q-39 -8 -46.5 -3t-11.5 44v10q-4 41 0 47t43 14q94 25 177 25q104 0 178.5 -43t74.5 -149q0 -18 -3 -35t-6 -31t-12 -33l-15 -30q-6 -12 -23 -34 l-26 -33q-9 -11 -32.5 -37l-34.5 -39t-42 -46l-45 -49q-25 -25 -19 -29q4 0 31 -2h186q41 0 46.5 -5t5.5 -46v-35q0 -39 -5.5 -45t-46.5 -6z" />
<glyph unicode="&#xb3;" horiz-adv-x="886" d="M737 621q0 -102 -83 -178t-224 -76q-102 0 -180 20q-41 10 -46 18.5t3 51.5v4q8 39 15 44t46 -1q57 -8 101 -8q186 0 186 135q0 55 -38 92t-111 37h-68q-39 0 -45 5t-6 46v12q0 41 6 46t45 5h65q61 0 96.5 39t35.5 97q0 109 -156 108q-35 0 -84 -8q-39 -4 -45 0t-12 43 l-2 4q-6 39 -2 46t40 16q90 23 187 22q111 0 175 -63.5t64 -147.5q0 -123 -98 -178q-16 -8 -20 -12t0 -7.5t22 -11.5q133 -57 133 -200z" />
<glyph unicode="&#xb4;" horiz-adv-x="468" d="M203 907h-49q-39 0 -43.5 5.5t10.5 41.5l51 140q14 37 21.5 42t48.5 5h104q39 0 42 -5.5t-17 -37.5l-90 -148q-20 -33 -29.5 -38t-48.5 -5z" />
<glyph unicode="&#xb5;" horiz-adv-x="931" d="M272 -350h-116q-41 0 -46.5 5t-5.5 46v1055q0 39 5.5 45t46.5 6h116q39 0 45.5 -6t6.5 -45v-482q0 -86 29.5 -117.5t95.5 -31.5q45 0 102 14q31 8 35 14.5t4 36.5v566q0 39 6 45t45 6h117q41 0 46 -6t5 -45v-705q0 -41 -6 -47t-45 -10l-51 -8q-33 -4 -42.5 -1t-29.5 27 l-2 2q-23 25 -30 27t-36 -10q-98 -41 -202 -49q-33 -2 -37 -7.5t-4 -37.5v-236q0 -41 -6.5 -46t-45.5 -5z" />
<glyph unicode="&#xb6;" horiz-adv-x="1036" d="M473 0h-47q-41 0 -46 6t-5 45v467q0 33 -4 38t-37 9q-98 16 -165 92t-67 177q0 113 80 192.5t193 79.5h514q41 0 46 -6t5 -45v-49q0 -41 -6 -46.5t-45 -7.5l-62 -4q-33 -2 -37 -6t-4 -37v-854q0 -39 -6 -45t-45 -6h-45q-39 0 -45 6t-6 45v850q0 33 -4 37t-37 2l-33 -2 q-33 -2 -37 -6t-4 -37v-844q0 -39 -6 -45t-45 -6z" />
<glyph unicode="&#xb7;" horiz-adv-x="417" d="M322 393q0 -49 -36 -84t-85 -35q-51 0 -87 35t-36 84q0 47 36 82t87 35q49 0 85 -35t36 -82z" />
<glyph unicode="&#xb8;" horiz-adv-x="884" d="M571 -164q0 -53 -33.5 -81.5t-91.5 -28.5q-63 0 -114 34q-16 10 -18.5 15.5t-2.5 25.5v11q0 23 3 25.5t26 0.5h39q33 -2 36 2t-5 37q-12 43 -39 84q-23 29 -20 34t40 5h39q37 0 47 -5t33 -32q61 -70 61 -127z" />
<glyph unicode="&#xb9;" horiz-adv-x="720" d="M524 512h-311q-41 0 -46 6t-5 45v4q0 41 6 47.5t45 10.5l43 4q33 2 37 7t4 38v336q0 33 -4 36t-37 -2l-16 -2q-39 -6 -46.5 -0.5t-13.5 43.5v13q-6 39 -2 47t43 18l199 56q10 4 29 4h4q10 0 12 -2t2 -13v-534q0 -33 4 -38t37 -9l16 -2q39 -4 45 -10.5t6 -47.5v-4 q0 -39 -5 -45t-46 -6z" />
<glyph unicode="&#xba;" d="M819 864q0 -154 -81 -250t-210 -118q-57 -8 -116 0q-135 16 -220.5 110t-85.5 258q0 172 102.5 274.5t254.5 102.5q154 0 255 -97.5t101 -279.5zM276 864q0 -109 48.5 -171t138.5 -62t139 65.5t49 167.5q0 109 -49 172.5t-139 63.5q-88 0 -137.5 -66t-49.5 -170z" />
<glyph unicode="&#xbb;" horiz-adv-x="1019" d="M129 29h-4q-16 0 -19.5 3t-3.5 19v51q0 35 4.5 49.5t26.5 43.5l131 170q18 25 18.5 31.5t-20.5 31.5l-127 156q-23 29 -28 41t-5 49v55q0 14 2 16.5t19 2.5h4q18 0 33 -13l329 -307q29 -27 29 -35t-29 -37l-323 -313q-17 -14 -37 -14zM535 29h-5q-16 0 -19 3t-3 19v51 q0 35 4 49.5t27 43.5l131 170q18 25 18 31.5t-20 31.5l-127 156q-23 29 -28 41t-5 49v55q0 14 2 16.5t18 2.5h4q18 0 33 -13l330 -307q29 -27 29 -35t-29 -37l-324 -313q-16 -14 -36 -14z" />
<glyph unicode="&#xbc;" horiz-adv-x="1570" d="M449 -281h-72q-39 0 -42 5.5t15 39.5l711 1244q18 33 27.5 39t48.5 6h71q39 0 42 -6.5t-15 -38.5l-711 -1244q-18 -35 -27 -40t-48 -5zM541 410h-312q-41 0 -46 6t-5 45v4q0 41 6 47t45 10l43 4q33 2 37 7.5t4 37.5v336q0 33 -4 36t-37 -1l-16 -2q-39 -6 -46 -1t-13 44 v12q-6 39 -2 47.5t43 18.5l198 55q10 4 29 4h4q10 0 12 -2t2 -12v-535q0 -33 4.5 -38t36.5 -9l17 -2q39 -4 45 -10t6 -47v-4q0 -39 -5 -45t-46 -6zM1384 -274h-61q-41 0 -46 6t-5 45v133q0 33 -4 37t-37 4h-264q-41 0 -46.5 6t-5.5 45v12q0 51 27 95l254 421q20 33 29.5 38 t48.5 5h110q41 0 46.5 -6t5.5 -45v-397q0 -33 4 -37t37 -4h26q41 0 46 -5t5 -46v-31q0 -39 -5 -45t-46 -6h-26q-33 0 -37 -4t-4 -37v-133q0 -39 -5.5 -45t-46.5 -6zM1251 371l-131 -240q-14 -25 -16 -33t5 -11t32 -3h92q33 0 37 4t4 37l6 244q0 8 -1 9t-9 1h-4q-11 0 -15 -8 z" />
<glyph unicode="&#xbd;" horiz-adv-x="1570" d="M449 -281h-72q-39 0 -42 5.5t15 39.5l711 1244q18 33 27.5 39t48.5 6h71q39 0 42 -6.5t-15 -38.5l-711 -1244q-18 -35 -27 -40t-48 -5zM1473 -211h-412q-41 0 -46 5t-5 46v8q0 37 5 49.5t32 39.5q207 213 247 268q49 66 49 106q0 80 -141 80q-27 0 -104 -10 q-39 -8 -46.5 -3t-11.5 44v10q-4 41 0 48t43 16q104 23 174 22q104 0 180 -43t76 -151q0 -74 -43 -137.5t-157 -188.5l-39 -41q-25 -25 -19 -29q4 0 31 -2h187q39 0 45 -6t6 -45v-35q0 -41 -6 -46t-45 -5zM541 410h-312q-41 0 -46 6t-5 45v4q0 41 6 47t45 10l43 4 q33 2 37 7.5t4 37.5v336q0 33 -4 36t-37 -1l-16 -2q-39 -6 -46 -1t-13 44v12q-6 39 -2 47.5t43 18.5l198 55q10 4 29 4h4q10 0 12 -2t2 -12v-535q0 -33 4.5 -38t36.5 -9l17 -2q39 -4 45 -10t6 -47v-4q0 -39 -5 -45t-46 -6z" />
<glyph unicode="&#xbe;" horiz-adv-x="1611" d="M1372 -274h-61q-41 0 -46 6t-5 45v133q0 33 -4.5 37t-36.5 4h-265q-41 0 -46 6t-5 45v12q0 51 27 95l254 421q20 33 29.5 38t48.5 5h110q41 0 46 -6t5 -45v-397q0 -33 4.5 -37t36.5 -4h27q41 0 46 -5t5 -46v-31q0 -39 -5 -45t-46 -6h-27q-33 0 -37 -4t-4 -37v-133 q0 -39 -5 -45t-46 -6zM641 516q0 -102 -83 -178t-224 -76q-102 0 -180 21q-41 10 -46.5 18t3.5 51v4q8 39 15 44.5t46 -1.5q57 -8 100 -8q186 0 187 135q0 55 -38 92t-112 37h-67q-41 0 -46.5 6.5t-5.5 45.5v12q0 39 5.5 45t46.5 6h65q61 0 96 39t35 96q0 109 -155 109 q-35 0 -84 -8q-39 -4 -45.5 0t-12.5 43l-2 4q-6 39 -2 46t41 15q90 23 187 23q111 0 175 -63.5t64 -147.5q0 -123 -98 -178q-16 -8 -20.5 -12.5t-0.5 -7.5t23 -11q133 -58 133 -201zM440 -281h-71q-39 0 -42 5.5t15 39.5l711 1244q18 33 27.5 39t47.5 6h72q39 0 42 -6.5 t-15 -38.5l-711 -1244q-18 -35 -27.5 -40t-48.5 -5zM1239 371l-131 -240q-14 -25 -16 -33t5 -11t31 -3h93q33 0 37 4t4 37l6 244q0 8 -1 9t-10 1h-4q-10 0 -14 -8z" />
<glyph unicode="&#xbf;" horiz-adv-x="720" d="M373 420h108q31 0 37 -4t14 -35q8 -29 9 -47q0 -61 -26 -113.5t-62 -88.5l-74 -69q-37 -33 -62.5 -69.5t-25.5 -75.5q0 -72 45 -95.5t125 -23.5q45 0 123 13q39 6 46 0.5t13 -43.5l4 -27q4 -41 0 -47t-41 -21q-127 -41 -207 -41q-57 0 -108 10.5t-106.5 37t-88.5 84 t-33 141.5q0 61 30 113.5t71 89.5l83 71q42 35 71.5 79t29.5 95q0 4 -1 16.5t-1 18.5q-4 25 -1 28t28 3zM309 664q0 45 35 78.5t82 33.5q51 0 85 -32.5t34 -80t-34 -81t-85 -33.5q-47 0 -82 34t-35 81z" />
<glyph unicode="&#xc0;" horiz-adv-x="1187" d="M276 0h-131q-39 0 -43 5t9 44l364 1008q12 39 19.5 44t48.5 5h162q41 0 48 -5t19 -44l365 -1008q6 -20 7 -25.5t3 -13.5t-6 -8t-13.5 -1t-25.5 -1h-133q-41 0 -48.5 5t-19.5 44l-70 199q-10 31 -16 35t-39 4h-309q-33 0 -39 -4t-14 -35l-70 -199q-12 -39 -19.5 -44 t-48.5 -5zM602 854l-115 -373q-10 -31 -7 -35t36 -4h211q33 0 36 4.5t-7 34.5l-113 373q-4 14 -18 14h-4q-15 0 -19 -14zM649 1204h-49q-39 0 -48 5t-30 38l-90 148q-20 33 -17 38t42 5h104q41 0 48 -5.5t22 -41.5l51 -140q14 -37 10 -42t-43 -5z" />
<glyph unicode="&#xc1;" horiz-adv-x="1187" d="M276 0h-131q-39 0 -43 5t9 44l364 1008q12 39 19.5 44t48.5 5h162q41 0 48 -5t19 -44l365 -1008q6 -20 7 -25.5t3 -13.5t-6 -8t-13.5 -1t-25.5 -1h-133q-41 0 -48.5 5t-19.5 44l-70 199q-10 31 -16 35t-39 4h-309q-33 0 -39 -4t-14 -35l-70 -199q-12 -39 -19.5 -44 t-48.5 -5zM602 854l-115 -373q-10 -31 -7 -35t36 -4h211q33 0 36 4.5t-7 34.5l-113 373q-4 14 -18 14h-4q-15 0 -19 -14zM645 1204h-49q-39 0 -43 5t10 42l51 140q14 37 21.5 42t48.5 5h104q39 0 42.5 -5.5t-17.5 -37.5l-90 -148q-20 -33 -29.5 -38t-48.5 -5z" />
<glyph unicode="&#xc2;" horiz-adv-x="1187" d="M276 0h-131q-39 0 -43 5t9 44l364 1008q12 39 19.5 44t48.5 5h162q41 0 48 -5t19 -44l365 -1008q6 -20 7 -25.5t3 -13.5t-6 -8t-13.5 -1t-25.5 -1h-133q-41 0 -48.5 5t-19.5 44l-70 199q-10 31 -16 35t-39 4h-309q-33 0 -39 -4t-14 -35l-70 -199q-12 -39 -19.5 -44 t-48.5 -5zM602 854l-115 -373q-10 -31 -7 -35t36 -4h211q33 0 36 4.5t-7 34.5l-113 373q-4 14 -18 14h-4q-15 0 -19 -14zM475 1208h-86q-39 0 -41 4.5t25 32.5l123 135q27 27 38 32t48 5h75q37 0 48.5 -5t37.5 -32l123 -135q27 -29 25 -33t-41 -4h-84q-39 0 -49 5.5 t-35 33.5l-35 43q-20 25 -26.5 25t-26.5 -25l-35 -43q-25 -29 -35 -34t-49 -5z" />
<glyph unicode="&#xc3;" horiz-adv-x="1187" d="M276 0h-131q-39 0 -43 5t9 44l364 1008q12 39 19.5 44t48.5 5h162q41 0 48 -5t19 -44l365 -1008q6 -20 7 -25.5t3 -13.5t-6 -8t-13.5 -1t-25.5 -1h-133q-41 0 -48.5 5t-19.5 44l-70 199q-10 31 -16 35t-39 4h-309q-33 0 -39 -4t-14 -35l-70 -199q-12 -39 -19.5 -44 t-48.5 -5zM602 854l-115 -373q-10 -31 -7 -35t36 -4h211q33 0 36 4.5t-7 34.5l-113 373q-4 14 -18 14h-4q-15 0 -19 -14zM514 1292q-31 0 -68 -41q-25 -25 -30.5 -24.5t-22.5 30.5l-4 9q-16 29 -16 38t18 37q59 88 127 89q51 0 114.5 -40t90.5 -40q33 0 80 47q14 14 18 19 t10.5 4t9.5 -6t13 -23l4 -7q16 -29 16 -37t-16 -34q-55 -100 -139 -101q-57 0 -119.5 40t-85.5 40z" />
<glyph unicode="&#xc4;" horiz-adv-x="1187" d="M276 0h-131q-39 0 -43 5t9 44l364 1008q12 39 19.5 44t48.5 5h162q41 0 48 -5t19 -44l365 -1008q6 -20 7 -25.5t3 -13.5t-6 -8t-13.5 -1t-25.5 -1h-133q-41 0 -48.5 5t-19.5 44l-70 199q-10 31 -16 35t-39 4h-309q-33 0 -39 -4t-14 -35l-70 -199q-12 -39 -19.5 -44 t-48.5 -5zM602 854l-115 -373q-10 -31 -7 -35t36 -4h211q33 0 36 4.5t-7 34.5l-113 373q-4 14 -18 14h-4q-15 0 -19 -14zM580 1333q0 -45 -35 -78.5t-82 -33.5q-51 0 -85 32.5t-34 79.5t34 81t85 34q47 0 82 -34t35 -81zM907 1333q0 -45 -34.5 -78.5t-81.5 -33.5 q-51 0 -85 32.5t-34 79.5t33.5 81t85.5 34q47 0 81.5 -34t34.5 -81z" />
<glyph unicode="&#xc5;" horiz-adv-x="1187" d="M276 0h-131q-39 0 -43 5t9 44l364 1008q12 39 19.5 44t48.5 5h162q41 0 48 -5t19 -44l365 -1008q6 -20 7 -25.5t3 -13.5t-6 -8t-13.5 -1t-25.5 -1h-133q-41 0 -48.5 5t-19.5 44l-70 199q-10 31 -16 35t-39 4h-309q-33 0 -39 -4t-14 -35l-70 -199q-12 -39 -19.5 -44 t-48.5 -5zM602 854l-115 -373q-10 -31 -7 -35t36 -4h211q33 0 36 4.5t-7 34.5l-113 373q-4 14 -18 14h-4q-15 0 -19 -14zM774 1339.5q0 -61.5 -44 -103.5t-107.5 -42t-108.5 42t-45 103.5t45 103.5t108.5 42t107.5 -42t44 -103.5zM578 1341q0 -18 14 -32.5t32.5 -14.5 t32 14.5t13.5 32.5q0 20 -13.5 34t-32 14t-32.5 -14t-14 -34z" />
<glyph unicode="&#xc6;" horiz-adv-x="1536" d="M252 0h-133q-39 0 -43 5t10 42l408 1012q14 37 21 42t48 5h799q39 0 45 -6t6 -45v-68q0 -41 -6 -46t-45 -5h-342q-33 0 -37 -4t-4 -37v-203q0 -33 4 -37t37 -4h299q41 0 46 -6t5 -45v-65q0 -39 -5 -45.5t-46 -6.5h-299q-33 0 -37 -4t-4 -37v-237q0 -33 4 -37t37 -4h350 q39 0 45 -6t6 -45v-62q0 -39 -6 -45t-45 -6h-565q-39 0 -45 6t-6 45v234q0 33 -4.5 37t-36.5 4h-240q-33 0 -39 -4.5t-16 -34.5l-96 -240q-14 -37 -21.5 -42t-48.5 -5zM635 858l-129 -326q-10 -31 -8 -34.5t34 -3.5h181q33 0 37 4t4 37v321q0 33 -4.5 37t-36.5 4h-23 q-33 0 -39 -4t-16 -35z" />
<glyph unicode="&#xc7;" horiz-adv-x="950" d="M653 -164q0 -53 -33.5 -81.5t-91.5 -28.5q-63 0 -114 34q-16 10 -18.5 15.5t-2.5 25.5v11q0 23 3 25.5t26 0.5h39q33 -2 36 2t-5 37q-12 43 -39 84q-16 18 -19 27q-168 25 -270.5 159t-102.5 398q0 270 135.5 422.5t366.5 152.5q111 0 217 -26q39 -10 43 -15.5t-4 -44.5 l-12 -57q-8 -39 -15.5 -44t-46.5 1q-74 12 -139 12q-152 0 -223.5 -90t-71.5 -309q0 -205 73 -295t228 -90q68 0 172 28q39 10 45.5 6.5t10.5 -42.5l8 -52q4 -41 0 -47t-39 -22q-94 -41 -234 -49q8 -12 17 -21q61 -70 61 -127z" />
<glyph unicode="&#xc8;" horiz-adv-x="921" d="M774 0h-557q-41 0 -46 6t-5 45v1004q0 39 5 45t46 6h549q41 0 46 -6t5 -45v-62q0 -39 -5 -45t-46 -6h-330q-33 0 -37 -4t-4 -37v-205q0 -33 4 -37t37 -4h287q39 0 45 -5t4 -46v-53q-2 -39 -7 -45t-46 -6h-283q-33 0 -37 -4t-4 -37v-252q0 -33 4 -37t37 -4h338q41 0 46 -5 t5 -46v-64q0 -39 -5 -45t-46 -6zM537 1204h-50q-39 0 -48 5t-29 38l-91 148q-20 33 -17 38t42 5h105q41 0 48 -5.5t21 -41.5l51 -140q14 -37 10.5 -42t-42.5 -5z" />
<glyph unicode="&#xc9;" horiz-adv-x="921" d="M782 0h-557q-41 0 -46 6t-5 45v1004q0 39 5 45t46 6h549q41 0 46 -6t5 -45v-62q0 -39 -5 -45t-46 -6h-330q-33 0 -37 -4t-4 -37v-205q0 -33 4.5 -37t36.5 -4h287q39 0 45 -5t4 -46v-53q-2 -39 -7 -45t-46 -6h-283q-33 0 -37 -4t-4 -37v-252q0 -33 4.5 -37t36.5 -4h338 q41 0 46.5 -5t5.5 -46v-64q0 -39 -5.5 -45t-46.5 -6zM494 1204h-50q-39 0 -43 5t11 42l51 140q14 37 21.5 42t47.5 5h105q39 0 42 -5.5t-17 -37.5l-91 -148q-20 -33 -29 -38t-48 -5z" />
<glyph unicode="&#xca;" horiz-adv-x="921" d="M774 0h-557q-41 0 -46 6t-5 45v1004q0 39 5 45t46 6h549q41 0 46 -6t5 -45v-62q0 -39 -5 -45t-46 -6h-330q-33 0 -37 -4t-4 -37v-205q0 -33 4 -37t37 -4h287q39 0 45 -5t4 -46v-53q-2 -39 -7 -45t-46 -6h-283q-33 0 -37 -4t-4 -37v-252q0 -33 4 -37t37 -4h338q41 0 46 -5 t5 -46v-64q0 -39 -5 -45t-46 -6zM340 1208h-86q-39 0 -41 4.5t25 32.5l122 135q27 27 38.5 32t47.5 5h76q37 0 48.5 -5t37.5 -32l123 -135q27 -29 25 -33t-41 -4h-84q-39 0 -49.5 5.5t-34.5 33.5l-35 43q-20 25 -26.5 25t-26.5 -25l-35 -43q-25 -29 -35 -34t-49 -5z" />
<glyph unicode="&#xcb;" horiz-adv-x="921" d="M774 0h-557q-41 0 -46 6t-5 45v1004q0 39 5 45t46 6h549q41 0 46 -6t5 -45v-62q0 -39 -5 -45t-46 -6h-330q-33 0 -37 -4t-4 -37v-205q0 -33 4 -37t37 -4h287q39 0 45 -5t4 -46v-53q-2 -39 -7 -45t-46 -6h-283q-33 0 -37 -4t-4 -37v-252q0 -33 4 -37t37 -4h338q41 0 46 -5 t5 -46v-64q0 -39 -5 -45t-46 -6zM449 1333q0 -45 -35 -78.5t-82 -33.5q-51 0 -85 32.5t-34 79.5t34 81t85 34q47 0 82 -34t35 -81zM776 1333q0 -45 -34.5 -78.5t-82.5 -33.5q-51 0 -84.5 32.5t-33.5 79.5t33.5 81t84.5 34q47 0 82 -34t35 -81z" />
<glyph unicode="&#xcc;" horiz-adv-x="593" d="M436 0h-297q-41 0 -46 6t-5 45v33q0 33 4 38t37 7l2 2q33 2 37 7t4 38v750q0 33 -4 38t-35 9h-4q-33 4 -37 9t-4 36v37q0 39 5 45t46 6h297q39 0 45 -6t6 -45v-37q0 -33 -4 -38t-37 -7l-2 -2q-33 -2 -37 -7.5t-4 -37.5v-750q0 -31 4.5 -36t36.5 -9h5q31 -4 34.5 -9 t3.5 -38v-33q0 -39 -6 -45t-45 -6zM326 1204h-50q-39 0 -48 5t-29 38l-90 148q-20 33 -17.5 38t41.5 5h105q41 0 48 -5.5t21 -41.5l51 -140q14 -37 10.5 -42t-42.5 -5z" />
<glyph unicode="&#xcd;" horiz-adv-x="593" d="M451 0h-297q-39 0 -45.5 6t-6.5 45v33q0 33 4.5 38t36.5 7l2 2q33 2 37 7t4 38v750q0 33 -4 38t-35 9h-4q-33 4 -37 9t-4 36v37q0 39 6.5 45t45.5 6h297q41 0 46 -6t5 -45v-37q0 -33 -4 -38t-37 -7l-2 -2q-33 -2 -37 -7.5t-4 -37.5v-750q0 -31 4 -36t37 -9h4q31 -4 35 -9 t4 -38v-33q0 -39 -5 -45t-46 -6zM334 1204h-49q-39 0 -43 5t10 42l51 140q14 37 21.5 42t48.5 5h104q39 0 42 -5.5t-17 -37.5l-90 -148q-20 -33 -29.5 -38t-48.5 -5z" />
<glyph unicode="&#xce;" horiz-adv-x="593" d="M420 0h-297q-41 0 -46 6t-5 45v33q0 33 4 38t37 7l2 2q33 2 37 7t4 38v750q0 33 -4.5 38t-34.5 9h-4q-33 4 -37 9t-4 36v37q0 39 5 45t46 6h297q39 0 45 -6t6 -45v-37q0 -33 -4 -38t-37 -7l-2 -2q-33 -2 -37 -7.5t-4 -37.5v-750q0 -31 4 -36t37 -9h4q31 -4 35 -9t4 -38 v-33q0 -39 -6 -45t-45 -6zM127 1204h-86q-39 0 -41 4t25 33l122 135q27 27 38.5 32t47.5 5h76q37 0 48.5 -5t37.5 -32l123 -135q27 -29 25 -33t-41 -4h-84q-39 0 -49.5 5t-34.5 34l-35 41q-20 25 -26.5 25t-26.5 -25l-35 -41q-25 -29 -35 -34t-49 -5z" />
<glyph unicode="&#xcf;" horiz-adv-x="593" d="M436 0h-297q-41 0 -46 6t-5 45v33q0 33 4 38t37 7l2 2q33 2 37 7t4 38v750q0 33 -4 38t-35 9h-4q-33 4 -37 9t-4 36v37q0 39 5 45t46 6h297q39 0 45 -6t6 -45v-37q0 -33 -4 -38t-37 -7l-2 -2q-33 -2 -37 -7.5t-4 -37.5v-750q0 -31 4.5 -36t36.5 -9h5q31 -4 34.5 -9 t3.5 -38v-33q0 -39 -6 -45t-45 -6zM567 1333q0 -45 -34.5 -78.5t-81.5 -33.5q-51 0 -85 32.5t-34 79.5t33.5 81t85.5 34q47 0 81.5 -34t34.5 -81zM240 1333q0 -45 -35 -78.5t-82 -33.5q-51 0 -85 32.5t-34 79.5t34 81t85 34q47 0 82 -34t35 -81z" />
<glyph unicode="&#xd0;" horiz-adv-x="1087" d="M125 487h-12q-39 0 -45.5 6.5t-6.5 45.5v55q0 41 6.5 46t45.5 5l12 2q33 0 37 4t4 37v369q0 41 6 47t45 8q123 12 307 12q88 0 169 -25.5t159 -85t125 -176t47 -278.5q0 -133 -30.5 -237.5t-80 -167t-119 -103.5t-140 -56t-152.5 -15q-121 0 -285 20q-39 4 -45 10t-6 47 v389q0 33 -4 37t-37 4zM434 152q49 -4 105 -5q133 0 189 116t56 290q0 403 -307 403q-31 0 -45 -2q-31 -2 -35 -6t-4 -35v-221q0 -33 4 -37t37 -4l78 2q41 0 46 -5t5 -46v-63q0 -39 -5 -45.5t-46 -6.5h-78q-33 0 -37 -4t-4 -37v-249q0 -31 5 -37t36 -8z" />
<glyph unicode="&#xd1;" horiz-adv-x="1157" d="M326 0h-119q-39 0 -45 6t-6 45v1004q0 39 6 45t45 6h184q41 0 49.5 -5t24.5 -42l338 -727q6 -10 18 -10h4q10 0 11.5 1t1.5 11l-17 721q-2 41 4 46t45 5h123q39 0 45 -6t6 -45v-1004q0 -39 -6 -45t-45 -6h-188q-41 0 -49 5t-25 42l-336 727q-6 12 -18 12h-4 q-14 0 -15 -12l17 -723q2 -41 -4 -46t-45 -5zM485 1292q-31 0 -67 -41q-25 -25 -31 -24.5t-22 30.5l-5 9q-16 29 -16 38t18 37q59 88 127 89q51 0 115 -40t90 -40q33 0 80 47q14 14 18.5 19t10.5 4t9 -6t13 -23l4 -7q16 -29 16.5 -37t-16.5 -34q-55 -100 -139 -101 q-57 0 -119.5 40t-85.5 40z" />
<glyph unicode="&#xd2;" horiz-adv-x="1179" d="M1122 555q0 -258 -129 -415.5t-368 -157.5q-238 0 -367 157.5t-129 415.5q0 256 129 412.5t366.5 156.5t367.5 -156.5t130 -412.5zM383 557q0 -410 243.5 -410t243.5 410q0 403 -243.5 403t-243.5 -403zM649 1204h-49q-39 0 -48 5t-30 38l-90 148q-20 33 -17 38t42 5h104 q41 0 48 -5.5t22 -41.5l51 -140q14 -37 10 -42t-43 -5z" />
<glyph unicode="&#xd3;" horiz-adv-x="1179" d="M1122 555q0 -258 -129 -415.5t-368 -157.5q-238 0 -367 157.5t-129 415.5q0 256 129 412.5t366.5 156.5t367.5 -156.5t130 -412.5zM383 557q0 -410 243.5 -410t243.5 410q0 403 -243.5 403t-243.5 -403zM629 1204h-49q-39 0 -43.5 5t10.5 42l51 140q14 37 21.5 42t48.5 5 h104q39 0 42 -5.5t-17 -37.5l-90 -148q-20 -33 -29.5 -38t-48.5 -5z" />
<glyph unicode="&#xd4;" horiz-adv-x="1179" d="M1122 555q0 -258 -129 -415.5t-368 -157.5q-238 0 -367 157.5t-129 415.5q0 256 129 412.5t366.5 156.5t367.5 -156.5t130 -412.5zM383 557q0 -410 243.5 -410t243.5 410q0 403 -243.5 403t-243.5 -403zM477 1208h-86q-39 0 -41 4.5t25 32.5l123 135q27 27 38 32t48 5h75 q37 0 48.5 -5t37.5 -32l123 -135q27 -29 25 -33t-41 -4h-84q-39 0 -49 5.5t-35 33.5l-35 43q-20 25 -26.5 25t-26.5 -25l-35 -43q-25 -29 -35 -34t-49 -5z" />
<glyph unicode="&#xd5;" horiz-adv-x="1179" d="M1122 555q0 -258 -129 -415.5t-368 -157.5q-238 0 -367 157.5t-129 415.5q0 256 129 412.5t366.5 156.5t367.5 -156.5t130 -412.5zM383 557q0 -410 243.5 -410t243.5 410q0 403 -243.5 403t-243.5 -403zM512 1292q-31 0 -68 -41q-25 -25 -30.5 -24.5t-22.5 30.5l-4 9 q-16 29 -16 38t18 37q59 88 127 89q51 0 114.5 -40t90.5 -40q33 0 80 47q14 14 18 19t10.5 4t9.5 -6t13 -23l4 -7q16 -29 16 -37t-16 -34q-55 -100 -139 -101q-57 0 -119.5 40t-85.5 40z" />
<glyph unicode="&#xd6;" horiz-adv-x="1179" d="M1122 555q0 -258 -129 -415.5t-368 -157.5q-238 0 -367 157.5t-129 415.5q0 256 129 412.5t366.5 156.5t367.5 -156.5t130 -412.5zM383 557q0 -410 243.5 -410t243.5 410q0 403 -243.5 403t-243.5 -403zM580 1333q0 -45 -35 -78.5t-82 -33.5q-51 0 -85 32.5t-34 79.5 t34 81t85 34q47 0 82 -34t35 -81zM907 1333q0 -45 -34.5 -78.5t-81.5 -33.5q-51 0 -85 32.5t-34 79.5t33.5 81t85.5 34q47 0 81.5 -34t34.5 -81z" />
<glyph unicode="&#xd7;" horiz-adv-x="942" d="M422 211l-195 -197q-29 -29 -36 -28.5t-35 28.5l-56 56q-27 29 -26.5 37t28.5 36l193 195q23 23 22.5 29t-22.5 28l-195 195q-29 29 -28.5 37t28.5 37l54 55q29 29 37 29t36 -29l195 -197q23 -23 29 -22.5t28 22.5l197 197q29 29 37 29t37 -29l53 -55q29 -29 28.5 -37.5 t-28.5 -36.5l-197 -195q-23 -23 -22.5 -29t22.5 -28l197 -195q29 -29 28.5 -37t-28.5 -36l-53 -56q-29 -29 -37 -28.5t-37 28.5l-197 197q-23 23 -28.5 23t-28.5 -23z" />
<glyph unicode="&#xd8;" horiz-adv-x="1179" d="M395 -188h-114q-39 0 -43.5 5t8.5 44l61 166q10 31 8 38t-24 29q-172 154 -172 461q0 256 129 412.5t366 156.5q33 0 48 -2q33 -2 39 2t16 35l35 94q14 37 21 42t48 5h113q39 0 43 -5t-10 -42l-62 -166q-10 -31 -8 -38t27 -27q188 -152 188 -467q0 -258 -129 -415.5 t-369 -157.5q-43 0 -63 2q-33 4 -39 0t-16 -35l-33 -88q-12 -39 -19.5 -44t-48.5 -5zM590 150q10 -2 26 -3q244 0 244 410q0 131 -33 229q-16 41 -30 0l-222 -614q-6 -20 0 -20q3 0 15 -2zM616 961q-244 0 -243 -404q0 -127 22 -211q10 -45 27 -2l219 604l2 10l-10 3h-17z " />
<glyph unicode="&#xd9;" horiz-adv-x="1150" d="M1036 377q0 -209 -116.5 -305.5t-319.5 -96.5q-432 0 -432 402v678q0 39 6 45t45 6h129q41 0 46 -6t5 -45v-672q0 -240 203 -240t203 240v672q0 39 5 45t46 6h129q39 0 45 -6t6 -45v-678zM641 1204h-49q-39 0 -48 5t-30 38l-90 148q-20 33 -17 38t42 5h104q41 0 48 -5.5 t22 -41.5l51 -140q14 -37 10 -42t-43 -5z" />
<glyph unicode="&#xda;" horiz-adv-x="1150" d="M1036 377q0 -209 -116.5 -305.5t-319.5 -96.5q-432 0 -432 402v678q0 39 6 45t45 6h129q41 0 46 -6t5 -45v-672q0 -240 203 -240t203 240v672q0 39 5 45t46 6h129q39 0 45 -6t6 -45v-678zM614 1204h-49q-39 0 -43 5t10 42l52 140q14 37 21 42t48 5h105q39 0 42 -5.5 t-18 -37.5l-90 -148q-20 -33 -29.5 -38t-48.5 -5z" />
<glyph unicode="&#xdb;" horiz-adv-x="1150" d="M1036 377q0 -209 -116.5 -305.5t-319.5 -96.5q-432 0 -432 402v678q0 39 6 45t45 6h129q41 0 46 -6t5 -45v-672q0 -240 203 -240t203 240v672q0 39 5 45t46 6h129q39 0 45 -6t6 -45v-678zM457 1208h-86q-39 0 -41 4.5t24 32.5l123 135q27 27 38 32t48 5h76q37 0 48 -5 t38 -32l123 -135q27 -29 24.5 -33t-41.5 -4h-83q-39 0 -49.5 5.5t-34.5 33.5l-35 43q-20 25 -26.5 25t-27.5 -25l-34 -43q-25 -29 -35 -34t-49 -5z" />
<glyph unicode="&#xdc;" horiz-adv-x="1150" d="M1036 377q0 -209 -116.5 -305.5t-319.5 -96.5q-432 0 -432 402v678q0 39 6 45t45 6h129q41 0 46 -6t5 -45v-672q0 -240 203 -240t203 240v672q0 39 5 45t46 6h129q39 0 45 -6t6 -45v-678zM557 1333q0 -45 -35 -78.5t-82 -33.5q-51 0 -84.5 32.5t-33.5 79.5t33.5 81 t84.5 34q47 0 82 -34t35 -81zM885 1333q0 -45 -35 -78.5t-82 -33.5q-51 0 -85 32.5t-34 79.5t34 81t85 34q47 0 82 -34t35 -81z" />
<glyph unicode="&#xdd;" horiz-adv-x="1087" d="M635 0h-133q-39 0 -45 6t-6 45v301q0 41 -19 78l-321 631q-18 39 -13 43q6 2 41 2h148q41 0 49 -5t22 -42l193 -426q4 -10 16 -10h4q12 0 17 10l194 426q14 37 22.5 42t49.5 5h145q20 0 25.5 -1t14 -1t5 -8.5t-4.5 -11.5t-11 -23l-323 -631q-18 -37 -19 -78v-301 q0 -39 -5 -45t-46 -6zM592 1204h-49q-39 0 -43 5t10 42l51 140q14 37 21.5 42t48.5 5h104q39 0 42 -5.5t-17 -37.5l-90 -148q-20 -33 -29.5 -38t-48.5 -5z" />
<glyph unicode="&#xde;" horiz-adv-x="931" d="M276 -373h-114q-39 0 -45 6.5t-6 44.5v1135q0 39 6 45t45 6h86q41 0 47 -6t10 -45l8 -59q4 -31 9.5 -33t33.5 10q96 43 193 43q53 0 102 -12t99.5 -44t80 -98.5t29.5 -160.5q0 -80 -29.5 -147.5t-74.5 -113.5t-114 -85t-131 -62.5t-144 -46.5q-31 -8 -35 -13t-4 -38v-275 q0 -39 -6.5 -45t-45.5 -6zM324 549v-361q0 -33 4 -34.5t34 8.5q264 100 265 270q0 188 -160 189q-41 0 -105 -19q-31 -8 -34.5 -15t-3.5 -38z" />
<glyph unicode="&#xdf;" horiz-adv-x="1007" d="M977 274q0 -135 -98.5 -213.5t-223.5 -78.5q-102 0 -206 28q-37 12 -41.5 19.5t0.5 46.5l8 63q6 39 12 43t45 -8q109 -33 170 -33q121 0 121 92q0 37 -39 65t-93 51.5t-109.5 53t-94.5 84t-39 129.5q0 72 88 181.5t88 177.5q0 35 -33.5 69.5t-87.5 34.5q-127 0 -127 -227 v-801q0 -39 -5 -45t-46 -6h-112q-39 0 -45.5 6t-6.5 45v842q0 119 58.5 198.5t134.5 110.5t158 31q133 0 221 -83t88 -183q0 -57 -39 -115.5t-78 -110t-39 -92.5q0 -47 58.5 -83t127 -60.5t127 -84t58.5 -147.5z" />
<glyph unicode="&#xe0;" horiz-adv-x="905" d="M512 39q-90 -59 -195 -59q-102 0 -163.5 65.5t-61.5 173.5q0 123 88 179.5t217 56.5q49 0 95 -9q18 -6 26 -3t9 7.5t1 26.5v82q0 117 -151 117q-70 0 -172 -39q-37 -14 -43 -11t-12 42l-5 34q-6 39 -2 46.5t41 21.5q131 53 258 53q123 0 215.5 -64.5t92.5 -178.5v-430 q0 -29 4 -33t32 0l5 2q29 4 33.5 0t11.5 -33l4 -14q8 -33 5 -40t-36 -22q-74 -31 -139.5 -30.5t-104.5 51.5q-18 23 -23 22.5t-30 -14.5zM305 219q0 -92 107 -92q35 0 80 16q29 8 32.5 15.5t3.5 38.5v102q0 31 -4 36t-37 3q-182 -10 -182 -119zM516 907h-49q-39 0 -48 5.5 t-30 37.5l-90 148q-20 33 -17 38t42 5h104q41 0 48 -5.5t22 -41.5l51 -140q14 -37 10 -42t-43 -5z" />
<glyph unicode="&#xe1;" horiz-adv-x="905" d="M512 39q-90 -59 -195 -59q-102 0 -163.5 65.5t-61.5 173.5q0 123 88 179.5t217 56.5q49 0 95 -9q18 -6 26 -3t9 7.5t1 26.5v82q0 117 -151 117q-70 0 -172 -39q-37 -14 -43 -11t-12 42l-5 34q-6 39 -2 46.5t41 21.5q131 53 258 53q123 0 215.5 -64.5t92.5 -178.5v-430 q0 -29 4 -33t32 0l5 2q29 4 33.5 0t11.5 -33l4 -14q8 -33 5 -40t-36 -22q-74 -31 -139.5 -30.5t-104.5 51.5q-18 23 -23 22.5t-30 -14.5zM305 219q0 -92 107 -92q35 0 80 16q29 8 32.5 15.5t3.5 38.5v102q0 31 -4 36t-37 3q-182 -10 -182 -119zM461 907h-49q-39 0 -43 5.5 t10 41.5l51 140q14 37 21.5 42t48.5 5h104q39 0 42 -5.5t-17 -37.5l-90 -148q-20 -33 -29.5 -38t-48.5 -5z" />
<glyph unicode="&#xe2;" horiz-adv-x="905" d="M512 39q-90 -59 -195 -59q-102 0 -163.5 65.5t-61.5 173.5q0 123 88 179.5t217 56.5q49 0 95 -9q18 -6 26 -3t9 7.5t1 26.5v82q0 117 -151 117q-70 0 -172 -39q-37 -14 -43 -11t-12 42l-5 34q-6 39 -2 46.5t41 21.5q131 53 258 53q123 0 215.5 -64.5t92.5 -178.5v-430 q0 -29 4 -33t32 0l5 2q29 4 33.5 0t11.5 -33l4 -14q8 -33 5 -40t-36 -22q-74 -31 -139.5 -30.5t-104.5 51.5q-18 23 -23 22.5t-30 -14.5zM305 219q0 -92 107 -92q35 0 80 16q29 8 32.5 15.5t3.5 38.5v102q0 31 -4 36t-37 3q-182 -10 -182 -119zM301 911h-86q-39 0 -41 5.5 t25 31.5l123 135q27 27 38 32t48 5h75q37 0 48.5 -5t37.5 -32l123 -135q27 -27 25 -32t-41 -5h-84q-39 0 -49.5 5.5t-34.5 33.5l-35 43q-20 25 -26.5 25t-26.5 -25l-35 -43q-25 -29 -35 -34t-49 -5z" />
<glyph unicode="&#xe3;" horiz-adv-x="905" d="M512 39q-90 -59 -195 -59q-102 0 -163.5 65.5t-61.5 173.5q0 123 88 179.5t217 56.5q49 0 95 -9q18 -6 26 -3t9 7.5t1 26.5v82q0 117 -151 117q-70 0 -172 -39q-37 -14 -43 -11t-12 42l-5 34q-6 39 -2 46.5t41 21.5q131 53 258 53q123 0 215.5 -64.5t92.5 -178.5v-430 q0 -29 4 -33t32 0l5 2q29 4 33.5 0t11.5 -33l4 -14q8 -33 5 -40t-36 -22q-74 -31 -139.5 -30.5t-104.5 51.5q-18 23 -23 22.5t-30 -14.5zM305 219q0 -92 107 -92q35 0 80 16q29 8 32.5 15.5t3.5 38.5v102q0 31 -4 36t-37 3q-182 -10 -182 -119zM324 995q-31 0 -68 -41 q-25 -25 -31 -24.5t-22 31.5l-4 8q-16 29 -16.5 38t18.5 37q59 88 127 89q51 0 114.5 -40t89.5 -40q33 0 80 47q14 14 18.5 19t10.5 4t9 -6l14 -23l4 -7q16 -27 16 -35t-16 -36q-55 -100 -140 -101q-57 0 -119 40t-85 40z" />
<glyph unicode="&#xe4;" horiz-adv-x="905" d="M512 39q-90 -59 -195 -59q-102 0 -163.5 65.5t-61.5 173.5q0 123 88 179.5t217 56.5q49 0 95 -9q18 -6 26 -3t9 7.5t1 26.5v82q0 117 -151 117q-70 0 -172 -39q-37 -14 -43 -11t-12 42l-5 34q-6 39 -2 46.5t41 21.5q131 53 258 53q123 0 215.5 -64.5t92.5 -178.5v-430 q0 -29 4 -33t32 0l5 2q29 4 33.5 0t11.5 -33l4 -14q8 -33 5 -40t-36 -22q-74 -31 -139.5 -30.5t-104.5 51.5q-18 23 -23 22.5t-30 -14.5zM305 219q0 -92 107 -92q35 0 80 16q29 8 32.5 15.5t3.5 38.5v102q0 31 -4 36t-37 3q-182 -10 -182 -119zM397 1036q0 -45 -34.5 -78.5 t-81.5 -33.5q-51 0 -85 32.5t-34 79.5t33.5 81t85.5 34q47 0 81.5 -34t34.5 -81zM725 1036q0 -45 -35 -78.5t-82 -33.5q-51 0 -85 32.5t-34 79.5t34 81t85 34q47 0 82 -34t35 -81z" />
<glyph unicode="&#xe5;" horiz-adv-x="905" d="M512 39q-90 -59 -195 -59q-102 0 -163.5 65.5t-61.5 173.5q0 123 88 179.5t217 56.5q49 0 95 -9q18 -6 26 -3t9 7.5t1 26.5v82q0 117 -151 117q-70 0 -172 -39q-37 -14 -43 -11t-12 42l-5 34q-6 39 -2 46.5t41 21.5q131 53 258 53q123 0 215.5 -64.5t92.5 -178.5v-430 q0 -29 4 -33t32 0l5 2q29 4 33.5 0t11.5 -33l4 -14q8 -33 5 -40t-36 -22q-74 -31 -139.5 -30.5t-104.5 51.5q-18 23 -23 22.5t-30 -14.5zM305 219q0 -92 107 -92q35 0 80 16q29 8 32.5 15.5t3.5 38.5v102q0 31 -4 36t-37 3q-182 -10 -182 -119zM606 1042.5 q0 -61.5 -44 -103.5t-107.5 -42t-108.5 42t-45 103.5t45 103.5t108.5 42t107.5 -42t44 -103.5zM410 1044q0 -18 14 -32.5t32.5 -14.5t32 14.5t13.5 32.5q0 20 -13.5 34t-32 14t-32.5 -14t-14 -34z" />
<glyph unicode="&#xe6;" horiz-adv-x="1210" d="M575 53q-168 -78 -299 -78q-102 0 -163.5 65.5t-61.5 174.5q0 123 89 178.5t218 55.5q55 0 97 -9q33 -4 37 -1t4 36v80q0 115 -158 115q-72 0 -174 -39q-37 -14 -43 -11t-12 42l-5 34q-6 39 -2 47.5t41 22.5q131 53 263 53q102 0 184 -47q27 -14 34 -14t33 16 q66 45 172 45q162 0 253.5 -94t91.5 -274q0 -8 -1.5 -23.5t-1.5 -24.5q-4 -16 -8 -22l-2 -4q-6 -12 -18 -12h-395q-31 0 -35 -4.5t-2 -36.5q12 -104 53 -148.5t119 -44.5q86 0 186 31q29 8 37 8t11 -7t7 -38l4 -33q4 -39 0 -46t-41 -21q-123 -49 -258 -50q-111 0 -190 70 q-20 20 -28.5 21t-35.5 -13zM264 215q0 -45 31 -69.5t80 -24.5q41 0 84 16q29 10 33 16.5t4 36.5v127q0 10 -2 12.5t-13 2.5h-20q-197 0 -197 -117zM836 686q-27 0 -44.5 -5t-36 -20.5t-29.5 -51.5t-15 -93q-2 -33 2 -37t35 -2l163 6q33 2 37 6.5t0 36.5q-12 160 -112 160z " />
<glyph unicode="&#xe7;" horiz-adv-x="739" d="M571 -164q0 -53 -33.5 -81.5t-91.5 -28.5q-63 0 -114 34q-16 10 -18.5 15.5t-2.5 25.5v11q0 23 3 25.5t26 0.5h39q33 -2 36 2t-5 37q-12 43 -39 84q-16 20 -21 31q-123 23 -196.5 123t-73.5 276q0 215 105.5 322.5t289.5 107.5q43 0 137 -12q41 -8 45.5 -13t-4.5 -46 l-8 -39q-8 -39 -15 -44t-46 1t-76 6q-104 0 -155.5 -60.5t-51.5 -210.5q0 -270 203 -270q55 0 117 12q39 8 45 4t8 -43q2 -6 2 -18q4 -39 -1 -46t-40 -19q-61 -23 -148 -35q4 -4 23 -25q61 -70 61 -127z" />
<glyph unicode="&#xe8;" horiz-adv-x="827" d="M676 29q-117 -47 -270 -49q-152 -2 -253.5 111.5t-101.5 312t100.5 309t264.5 110.5t255 -94t91 -274q0 -8 -1 -23.5t-1 -23.5q-4 -16 -8 -23l-2 -4q-6 -12 -19 -12h-414q-33 0 -37 -4.5t1 -36.5q14 -193 188 -193q86 0 186 31q20 6 25.5 6t13.5 2t10.5 -6t3.5 -13l5 -26 l4 -33q4 -39 0 -46t-41 -21zM422 690q-29 0 -48.5 -5t-41 -21.5t-33.5 -52.5t-14 -91q-2 -33 2 -37t35 -2l176 6q33 2 37 6.5t0 36.5q-13 160 -113 160zM440 907h-49q-39 0 -48 5.5t-30 37.5l-90 148q-20 33 -17 38t42 5h104q41 0 48.5 -5.5t21.5 -41.5l51 -140 q14 -37 10 -42t-43 -5z" />
<glyph unicode="&#xe9;" horiz-adv-x="827" d="M676 29q-117 -47 -270 -49q-152 -2 -253.5 111.5t-101.5 312t100.5 309t264.5 110.5t255 -94t91 -274q0 -8 -1 -23.5t-1 -23.5q-4 -16 -8 -23l-2 -4q-6 -12 -19 -12h-414q-33 0 -37 -4.5t1 -36.5q14 -193 188 -193q86 0 186 31q20 6 25.5 6t13.5 2t10.5 -6t3.5 -13l5 -26 l4 -33q4 -39 0 -46t-41 -21zM422 690q-29 0 -48.5 -5t-41 -21.5t-33.5 -52.5t-14 -91q-2 -33 2 -37t35 -2l176 6q33 2 37 6.5t0 36.5q-13 160 -113 160zM463 907h-49q-39 0 -43 5.5t10 41.5l51 140q14 37 21.5 42t48.5 5h104q39 0 42 -5.5t-17 -37.5l-90 -148 q-20 -33 -29.5 -38t-48.5 -5z" />
<glyph unicode="&#xea;" horiz-adv-x="827" d="M676 29q-117 -47 -270 -49q-152 -2 -253.5 111.5t-101.5 312t100.5 309t264.5 110.5t255 -94t91 -274q0 -8 -1 -23.5t-1 -23.5q-4 -16 -8 -23l-2 -4q-6 -12 -19 -12h-414q-33 0 -37 -4.5t1 -36.5q14 -193 188 -193q86 0 186 31q20 6 25.5 6t13.5 2t10.5 -6t3.5 -13l5 -26 l4 -33q4 -39 0 -46t-41 -21zM422 690q-29 0 -48.5 -5t-41 -21.5t-33.5 -52.5t-14 -91q-2 -33 2 -37t35 -2l176 6q33 2 37 6.5t0 36.5q-13 160 -113 160zM270 911h-86q-39 0 -41 5.5t25 31.5l123 135q27 27 38 32t48 5h76q37 0 48 -5t38 -32l123 -135q27 -27 24.5 -32 t-41.5 -5h-84q-39 0 -49 5.5t-35 33.5l-35 43q-20 25 -26 25t-27 -25l-35 -43q-25 -29 -35 -34t-49 -5z" />
<glyph unicode="&#xeb;" horiz-adv-x="827" d="M676 29q-117 -47 -270 -49q-152 -2 -253.5 111.5t-101.5 312t100.5 309t264.5 110.5t255 -94t91 -274q0 -8 -1 -23.5t-1 -23.5q-4 -16 -8 -23l-2 -4q-6 -12 -19 -12h-414q-33 0 -37 -4.5t1 -36.5q14 -193 188 -193q86 0 186 31q20 6 25.5 6t13.5 2t10.5 -6t3.5 -13l5 -26 l4 -33q4 -39 0 -46t-41 -21zM422 690q-29 0 -48.5 -5t-41 -21.5t-33.5 -52.5t-14 -91q-2 -33 2 -37t35 -2l176 6q33 2 37 6.5t0 36.5q-13 160 -113 160zM367 1036q0 -45 -35 -78.5t-82 -33.5q-51 0 -85 32.5t-34 79.5t34 81t85 34q47 0 82 -34t35 -81zM694 1036 q0 -45 -34.5 -78.5t-81.5 -33.5q-51 0 -85 32.5t-34 79.5t33.5 81t85.5 34q47 0 81.5 -34t34.5 -81z" />
<glyph unicode="&#xec;" horiz-adv-x="444" d="M291 0h-111q-41 0 -46 6t-5 45v541q0 33 -4 38t-37 11l-8 2q-37 8 -42 14.5t-5 42.5v15q0 41 6 47t45 8l207 14q41 4 46 -2t5 -45v-686q0 -39 -5 -45t-46 -6zM262 907h-49q-39 0 -48 5.5t-30 37.5l-90 148q-20 33 -17 38t42 5h104q41 0 48 -5.5t22 -41.5l51 -140 q14 -37 10 -42t-43 -5z" />
<glyph unicode="&#xed;" horiz-adv-x="444" d="M307 0h-110q-41 0 -46.5 6t-5.5 45v541q0 33 -4 38t-37 11l-8 2q-37 8 -42 14.5t-5 42.5v15q0 41 6 47t45 8l207 14q41 4 46 -2t5 -45v-686q0 -39 -5 -45t-46 -6zM242 907h-49q-39 0 -43.5 5.5t10.5 41.5l51 140q14 37 21.5 42t48.5 5h104q39 0 42 -5.5t-17 -37.5 l-91 -148q-20 -33 -29 -38t-48 -5z" />
<glyph unicode="&#xee;" horiz-adv-x="444" d="M276 0h-110q-39 0 -45 6t-6 45v541q0 33 -4.5 38t-36.5 11l-8 2q-37 8 -42.5 14.5t-5.5 42.5v15q0 41 6.5 47t45.5 8l206 14q41 4 46.5 -2t5.5 -45v-686q0 -39 -6.5 -45t-45.5 -6zM49 911h-86q-39 0 -41 5.5t25 31.5l123 135q27 27 38 32t48 5h75q37 0 48.5 -5t37.5 -32 l123 -135q27 -27 25 -32t-41 -5h-84q-39 0 -49 5.5t-35 33.5l-35 43q-20 25 -26.5 25t-26.5 -25l-35 -43q-25 -29 -35 -34t-49 -5z" />
<glyph unicode="&#xef;" horiz-adv-x="444" d="M297 0h-111q-39 0 -45 6t-6 45v541q0 33 -4 38t-37 11l-8 2q-37 8 -42 14.5t-5 42.5v15q0 41 6 47t45 8l207 14q41 4 46 -2t5 -45v-686q0 -39 -6 -45t-45 -6zM162 1036q0 -45 -35 -78.5t-82 -33.5q-51 0 -85 32.5t-34 79.5t34 81t85 34q47 0 82 -34t35 -81zM489 1036 q0 -45 -34.5 -78.5t-81.5 -33.5q-51 0 -85 32.5t-34 79.5t34 81t85 34q47 0 81.5 -34t34.5 -81z" />
<glyph unicode="&#xf0;" horiz-adv-x="921" d="M850 487q0 -522 -399 -522q-188 0 -299 108.5t-111 293.5q0 160 106.5 270.5t235.5 110.5q92 0 176 -35q27 -12 31 -9t0 31q-14 109 -64 197q-16 29 -21 30t-32 -16l-149 -88q-33 -20 -38 -17t-5 42v75q0 39 5 48.5t38 29.5l41 25l21 13q5 3 5 9.5t-4 8.5t-20 14 q-80 53 -177 80q-25 8 -29.5 11t-0.5 8t26 18l95 51q33 16 45 17t45 -11q86 -33 153 -80q27 -18 34 -18t36 16l162 96q33 20 38 17.5t5 -41.5v-76q0 -39 -5.5 -48t-37.5 -30l-49 -29q-29 -16 -30 -22t17 -33q156 -213 156 -545zM274 375q0 -104 48.5 -173t140.5 -69 q76 2 111.5 79t35.5 202q0 55 -2 84q0 29 -4 36t-31 19q-45 25 -110 25q-189 0 -189 -203z" />
<glyph unicode="&#xf1;" horiz-adv-x="942" d="M299 0h-123q-41 0 -46 6t-5 45v705q0 41 6 47t45 10l60 6q31 4 40 0t31 -24l2 -2q23 -23 31 -25t37 12q104 43 196 43q119 0 194 -66.5t75 -213.5v-492q0 -39 -5.5 -45t-45.5 -6h-123q-41 0 -46.5 6t-5.5 45v481q0 86 -29.5 117t-97.5 31q-51 0 -100 -12 q-31 -8 -35 -14.5t-4 -37.5v-565q0 -39 -5 -45t-46 -6zM365 995q-31 0 -68 -41q-25 -25 -31 -24.5t-22 31.5l-4 8q-16 29 -16.5 38t18.5 37q59 88 127 89q51 0 114.5 -40t89.5 -40q33 0 80 47q14 14 18.5 19t10.5 4t9 -6l14 -23l4 -7q16 -27 16 -35t-16 -36 q-55 -100 -140 -101q-57 0 -119 40t-85 40z" />
<glyph unicode="&#xf2;" d="M842 403q0 -186 -107.5 -303.5t-288.5 -117.5q-178 0 -285.5 117.5t-107.5 303.5q0 184 107.5 302t286 118t287 -118t108.5 -302zM283 403q0 -283 163 -282q162 0 162 282q0 59 -6 104.5t-21.5 88.5t-49 65.5t-85.5 22.5q-163 0 -163 -281zM479 907h-49q-39 0 -48 5.5 t-30 37.5l-90 148q-20 33 -17 38t42 5h104q41 0 48 -5.5t22 -41.5l51 -140q14 -37 10 -42t-43 -5z" />
<glyph unicode="&#xf3;" d="M842 403q0 -186 -107.5 -303.5t-288.5 -117.5q-178 0 -285.5 117.5t-107.5 303.5q0 184 107.5 302t286 118t287 -118t108.5 -302zM283 403q0 -283 163 -282q162 0 162 282q0 59 -6 104.5t-21.5 88.5t-49 65.5t-85.5 22.5q-163 0 -163 -281zM477 907h-49q-39 0 -43 5.5 t10 41.5l51 140q14 37 21.5 42t48.5 5h105q39 0 42 -5.5t-18 -37.5l-90 -148q-20 -33 -29.5 -38t-48.5 -5z" />
<glyph unicode="&#xf4;" d="M842 403q0 -186 -107.5 -303.5t-288.5 -117.5q-178 0 -285.5 117.5t-107.5 303.5q0 184 107.5 302t286 118t287 -118t108.5 -302zM283 403q0 -283 163 -282q162 0 162 282q0 59 -6 104.5t-21.5 88.5t-49 65.5t-85.5 22.5q-163 0 -163 -281zM307 911h-86q-39 0 -41 5.5 t25 31.5l123 135q27 27 38 32t48 5h75q37 0 48.5 -5t37.5 -32l123 -135q27 -27 25 -32t-41 -5h-84q-39 0 -49 5.5t-35 33.5l-35 43q-20 25 -26.5 25t-26.5 -25l-35 -43q-25 -29 -35 -34t-49 -5z" />
<glyph unicode="&#xf5;" d="M842 403q0 -186 -107.5 -303.5t-288.5 -117.5q-178 0 -285.5 117.5t-107.5 303.5q0 184 107.5 302t286 118t287 -118t108.5 -302zM283 403q0 -283 163 -282q162 0 162 282q0 59 -6 104.5t-21.5 88.5t-49 65.5t-85.5 22.5q-163 0 -163 -281zM338 995q-31 0 -68 -41 q-25 -25 -31 -24.5t-22 31.5l-4 8q-16 29 -16 38t18 37q59 88 127 89q51 0 114.5 -40t90.5 -40q33 0 80 47q14 14 18 19t10.5 4t9.5 -6t13 -23l4 -7q16 -27 16 -35t-16 -36q-55 -100 -139 -101q-57 0 -119.5 40t-85.5 40z" />
<glyph unicode="&#xf6;" d="M842 403q0 -186 -107.5 -303.5t-288.5 -117.5q-178 0 -285.5 117.5t-107.5 303.5q0 184 107.5 302t286 118t287 -118t108.5 -302zM283 403q0 -283 163 -282q162 0 162 282q0 59 -6 104.5t-21.5 88.5t-49 65.5t-85.5 22.5q-163 0 -163 -281zM399 1036q0 -45 -34.5 -78.5 t-81.5 -33.5q-51 0 -85 32.5t-34 79.5t33.5 81t85.5 34q47 0 81.5 -34t34.5 -81zM727 1036q0 -45 -35 -78.5t-82 -33.5q-51 0 -84.5 32.5t-33.5 79.5t33.5 81t84.5 34q47 0 82 -34t35 -81z" />
<glyph unicode="&#xf7;" horiz-adv-x="819" d="M516 158q0 -45 -35 -79t-82 -34q-51 0 -84.5 33t-33.5 80t33.5 80.5t84.5 33.5q47 0 82 -33.5t35 -80.5zM516 666q0 -45 -35 -79t-82 -34q-51 0 -84.5 32.5t-33.5 80t33.5 81t84.5 33.5q47 0 82 -33.5t35 -80.5zM705 334h-594q-41 0 -46.5 5t-5.5 46v53q0 41 5.5 46 t46.5 5h594q41 0 46 -5t5 -46v-53q0 -41 -5 -46t-46 -5z" />
<glyph unicode="&#xf8;" d="M231 -322h-104q-39 0 -43 5.5t8 44.5l105 284q10 29 8 37t-25 31q-127 117 -127 323q0 184 107.5 302t285.5 118h25q16 -2 19.5 0t9.5 19l100 276q12 39 19.5 44t48.5 5h102q39 0 43 -5t-8 -44l-117 -319q-10 -29 -8 -36t27 -30q135 -123 135 -330q0 -186 -107.5 -303.5 t-288.5 -117.5h-28q-20 2 -23.5 -1.5t-9.5 -19.5l-86 -233q-12 -39 -19.5 -44.5t-48.5 -5.5zM573 514l-143 -387q-2 -6 6 -6h10q162 0 162 282q0 61 -8 109q-8 33 -11.5 33t-15.5 -31zM283 403q0 -55 8 -96q4 -31 6 -33t6 7q4 6 10 24l125 344q10 31 7 35t-35 -4 q-127 -29 -127 -277z" />
<glyph unicode="&#xf9;" horiz-adv-x="931" d="M557 29q-127 -51 -231 -52q-102 0 -167 75t-65 222v474q0 41 6 46t45 7l117 6q41 2 46 -4t5 -45v-473q0 -92 30 -126t95 -34q45 0 103 14q31 8 35 14.5t4 36.5v568q0 41 5 46t46 5h117q39 0 45 -5t6 -46v-707q0 -41 -6.5 -47t-44.5 -10l-52 -8q-33 -4 -41 -1t-30 27l-2 2 q-23 25 -30 27t-36 -12zM500 907h-49q-39 0 -48.5 5.5t-29.5 37.5l-90 148q-20 33 -17.5 38t41.5 5h105q41 0 48 -5.5t21 -41.5l51 -140q14 -37 10.5 -42t-42.5 -5z" />
<glyph unicode="&#xfa;" horiz-adv-x="931" d="M557 29q-127 -51 -231 -52q-102 0 -167 75t-65 222v474q0 41 6 46t45 7l117 6q41 2 46 -4t5 -45v-473q0 -92 30 -126t95 -34q45 0 103 14q31 8 35 14.5t4 36.5v568q0 41 5 46t46 5h117q39 0 45 -5t6 -46v-707q0 -41 -6.5 -47t-44.5 -10l-52 -8q-33 -4 -41 -1t-30 27l-2 2 q-23 25 -30 27t-36 -12zM479 907h-49q-39 0 -43 5.5t10 41.5l52 140q14 37 21 42t48 5h105q39 0 42 -5.5t-18 -37.5l-90 -148q-20 -33 -29.5 -38t-48.5 -5z" />
<glyph unicode="&#xfb;" horiz-adv-x="931" d="M557 29q-127 -51 -231 -52q-102 0 -167 75t-65 222v474q0 41 6 46t45 7l117 6q41 2 46 -4t5 -45v-473q0 -92 30 -126t95 -34q45 0 103 14q31 8 35 14.5t4 36.5v568q0 41 5 46t46 5h117q39 0 45 -5t6 -46v-707q0 -41 -6.5 -47t-44.5 -10l-52 -8q-33 -4 -41 -1t-30 27l-2 2 q-23 25 -30 27t-36 -12zM301 911h-86q-39 0 -41 5.5t25 31.5l123 135q27 27 38 32t48 5h75q37 0 48.5 -5t37.5 -32l123 -135q27 -27 25 -32t-41 -5h-84q-39 0 -49.5 5.5t-34.5 33.5l-35 43q-20 25 -26.5 25t-26.5 -25l-35 -43q-25 -29 -35 -34t-49 -5z" />
<glyph unicode="&#xfc;" horiz-adv-x="931" d="M557 29q-127 -51 -231 -52q-102 0 -167 75t-65 222v474q0 41 6 46t45 7l117 6q41 2 46 -4t5 -45v-473q0 -92 30 -126t95 -34q45 0 103 14q31 8 35 14.5t4 36.5v568q0 41 5 46t46 5h117q39 0 45 -5t6 -46v-707q0 -41 -6.5 -47t-44.5 -10l-52 -8q-33 -4 -41 -1t-30 27l-2 2 q-23 25 -30 27t-36 -12zM408 1036q0 -45 -35 -78.5t-82 -33.5q-51 0 -85 32.5t-34 79.5t34 81t85 34q47 0 82 -34t35 -81zM735 1036q0 -45 -34.5 -78.5t-82.5 -33.5q-51 0 -84.5 32.5t-33.5 79.5t33.5 81t84.5 34q47 0 82 -34t35 -81z" />
<glyph unicode="&#xfd;" horiz-adv-x="860" d="M322 -377l-107 6q-39 2 -43 7.5t10 41.5l140 371q6 16 -11 17h-4q-14 0 -17 2t-7 14l-279 680q-14 37 -10 42t43 5h115q41 0 48 -5t21 -42l166 -412q8 -20 11 -25.5t7.5 0t10.5 25.5l151 412q14 37 21.5 42t48.5 5h119q39 0 43 -5t-11 -42l-397 -1094q-14 -37 -21 -42 t-48 -3zM418 907h-49q-39 0 -43 5.5t10 41.5l51 140q14 37 21.5 42t48.5 5h104q39 0 42 -5.5t-17 -37.5l-90 -148q-20 -33 -29.5 -38t-48.5 -5z" />
<glyph unicode="&#xfe;" horiz-adv-x="931" d="M276 -373h-114q-39 0 -45 6.5t-6 44.5v1377q0 39 6 45t45 6h82q41 0 47 -6t8 -45l18 -299q2 -33 6.5 -35t32.5 10q96 43 193 43q53 0 102 -12t99.5 -44t80 -98.5t29.5 -160.5q0 -80 -29.5 -147.5t-74.5 -113.5t-114 -85t-131 -62.5t-144 -46.5q-31 -8 -35 -13t-4 -38 v-275q0 -39 -6.5 -45t-45.5 -6zM324 549v-361q0 -33 4 -34.5t34 8.5q264 100 265 270q0 188 -160 189q-45 0 -105 -19q-31 -8 -34.5 -14t-3.5 -39z" />
<glyph unicode="&#xff;" horiz-adv-x="860" d="M322 -377l-107 6q-39 2 -43 7.5t10 41.5l140 371q6 16 -11 17h-4q-14 0 -17 2t-7 14l-279 680q-14 37 -10 42t43 5h115q41 0 48 -5t21 -42l166 -412q8 -20 11 -25.5t7.5 0t10.5 25.5l151 412q14 37 21.5 42t48.5 5h119q39 0 43 -5t-11 -42l-397 -1094q-14 -37 -21 -42 t-48 -3zM362 1036q0 -45 -34.5 -78.5t-81.5 -33.5q-51 0 -85 32.5t-34 79.5t34 81t85 34q47 0 81.5 -34t34.5 -81zM690 1036q0 -45 -34.5 -78.5t-82.5 -33.5q-51 0 -84.5 32.5t-33.5 79.5t33.5 81t84.5 34q47 0 82 -34t35 -81z" />
<glyph unicode="&#x152;" horiz-adv-x="1599" d="M805 37q-100 -55 -223 -55q-242 0 -375 158.5t-133 414.5q0 254 133 411.5t375 157.5q125 0 223 -55q14 -8 16 -6t2 18l-2 2q0 16 3 19.5t20 3.5h596q39 0 45 -6t6 -45v-68q0 -41 -6 -46t-45 -5h-353q-33 0 -36.5 -4t-3.5 -37v-190q0 -33 4 -37t36 -4h310q41 0 46 -6.5 t5 -45.5v-71q0 -41 -5 -46.5t-46 -5.5h-310q-33 0 -36.5 -4t-3.5 -36v-234q0 -33 4 -37t36 -4h361q39 0 45 -5t6 -46v-72q0 -39 -6 -45t-45 -6h-604q-16 0 -19.5 3t-3.5 20l2 4q0 22 -18 10zM328 557q0 -397 256 -397q135 0 194.5 111.5t59.5 285.5q0 170 -60.5 281.5 t-193.5 111.5q-94 0 -153.5 -58t-81 -142t-21.5 -193z" />
<glyph unicode="&#x153;" horiz-adv-x="1378" d="M1212 27q-113 -47 -258 -47q-129 0 -223 81q-23 20 -30 20.5t-29 -20.5q-94 -80 -232 -79q-178 0 -285.5 117.5t-107.5 303.5q0 184 107.5 302t285.5 118q135 0 232 -80q25 -20 31 -20t28 20q90 80 221 80q162 0 253 -94t91 -274q0 -25 -6 -47q-6 -31 -11 -35t-38 -4 h-387q-33 0 -37 -4.5t0 -36.5q14 -193 189 -193q82 0 186 23q39 8 45 4t10 -43l4 -23q4 -41 0 -47t-39 -22zM276 403q0 -283 164 -282q162 0 162 282q0 281 -162 281q-66 0 -104.5 -43t-49 -99.5t-10.5 -138.5zM958 690q-59 0 -95 -33.5t-42 -146.5q-2 -33 2 -37t35 -2 l176 8q33 2 37 6t0 37q-13 168 -113 168z" />
<glyph unicode="&#x178;" horiz-adv-x="1087" d="M635 0h-133q-39 0 -45 6t-6 45v301q0 41 -19 78l-321 631q-18 39 -13 43q6 2 41 2h148q41 0 49 -5t22 -42l193 -426q4 -10 16 -10h4q12 0 17 10l194 426q14 37 22.5 42t49.5 5h145q20 0 25.5 -1t14 -1t5 -8.5t-4.5 -11.5t-11 -23l-323 -631q-18 -37 -19 -78v-301 q0 -39 -5 -45t-46 -6zM520 1333q0 -45 -34.5 -78.5t-82.5 -33.5q-51 0 -84.5 32.5t-33.5 79.5t33.5 81t84.5 34q47 0 82 -34t35 -81zM848 1333q0 -45 -35 -78.5t-82 -33.5q-51 0 -85 32.5t-34 79.5t34 81t85 34q47 0 82 -34t35 -81z" />
<glyph unicode="&#x2c6;" horiz-adv-x="884" d="M291 911h-86q-39 0 -41 5.5t24 31.5l123 135q27 27 38 32t48 5h76q37 0 48 -5t38 -32l123 -135q27 -27 25 -32t-41 -5h-84q-39 0 -49.5 5.5t-34.5 33.5l-35 43q-20 25 -26.5 25t-26.5 -25l-35 -43q-25 -29 -35 -34t-49 -5z" />
<glyph unicode="&#x2dc;" horiz-adv-x="884" d="M346 995q-31 0 -67 -41q-25 -25 -31 -24.5t-23 31.5l-4 8q-16 29 -16 38t18 37q59 88 127 89q51 0 114.5 -40t90.5 -40q33 0 80 47q14 14 18 19t10.5 4t9.5 -6t13 -23l4 -7q16 -27 16.5 -35t-16.5 -36q-55 -100 -139 -101q-57 0 -119.5 40t-85.5 40z" />
<glyph unicode="&#x2000;" horiz-adv-x="741" />
<glyph unicode="&#x2001;" horiz-adv-x="1484" />
<glyph unicode="&#x2002;" horiz-adv-x="741" />
<glyph unicode="&#x2003;" horiz-adv-x="1484" />
<glyph unicode="&#x2004;" horiz-adv-x="493" />
<glyph unicode="&#x2005;" horiz-adv-x="370" />
<glyph unicode="&#x2006;" horiz-adv-x="245" />
<glyph unicode="&#x2007;" horiz-adv-x="245" />
<glyph unicode="&#x2008;" horiz-adv-x="184" />
<glyph unicode="&#x2009;" horiz-adv-x="296" />
<glyph unicode="&#x200a;" horiz-adv-x="81" />
<glyph unicode="&#x2010;" horiz-adv-x="624" d="M455 338h-277q-39 0 -45 5t-6 46v62q0 41 6 46t45 5h277q41 0 46 -5t5 -46v-62q0 -41 -5 -46t-46 -5z" />
<glyph unicode="&#x2011;" horiz-adv-x="624" d="M455 338h-277q-39 0 -45 5t-6 46v62q0 41 6 46t45 5h277q41 0 46 -5t5 -46v-62q0 -41 -5 -46t-46 -5z" />
<glyph unicode="&#x2012;" horiz-adv-x="624" d="M455 338h-277q-39 0 -45 5t-6 46v62q0 41 6 46t45 5h277q41 0 46 -5t5 -46v-62q0 -41 -5 -46t-46 -5z" />
<glyph unicode="&#x2013;" horiz-adv-x="933" d="M760 322h-608q-41 0 -46.5 5t-5.5 46v69q0 41 5.5 46.5t46.5 5.5h608q39 0 45 -5.5t6 -46.5v-69q0 -41 -6 -46t-45 -5z" />
<glyph unicode="&#x2014;" horiz-adv-x="1320" d="M1149 322h-995q-39 0 -45.5 5t-6.5 46v69q0 41 6.5 46.5t45.5 5.5h995q39 0 45 -5.5t6 -46.5v-69q0 -41 -6 -46t-45 -5z" />
<glyph unicode="&#x2018;" horiz-adv-x="442" d="M334 870.5q0 -47.5 -33 -80t-80 -32.5q-61 0 -93 42t-32 107q0 94 55.5 172t151.5 86q12 4 17.5 2t6.5 -5t1 -17v-2q0 -18 -3 -21.5t-20 -7.5q-39 -8 -64.5 -42t-25.5 -64q0 -18 29.5 -30.5t59.5 -36t30 -71z" />
<glyph unicode="&#x2019;" horiz-adv-x="317" d="M303 1022q0 -94 -56.5 -172t-152.5 -86q-10 -4 -15 -2t-6 5t-1 17v2q0 18 3 21.5t19 7.5q39 8 63.5 41t24.5 66q0 18 -29.5 30.5t-59.5 36t-30 70.5t34 79.5t79 32.5q63 0 95 -41.5t32 -107.5z" />
<glyph unicode="&#x201a;" horiz-adv-x="317" d="M301 78q0 -96 -56.5 -186.5t-152.5 -92.5q-18 -2 -21 1t-3 22v2q0 18 3 21t21 8q61 10 86 75q18 57 -12 70q-4 2 -10 2q-37 0 -66 34t-29 75q0 47 33 79.5t80 32.5q57 0 92 -37.5t35 -105.5z" />
<glyph unicode="&#x201c;" horiz-adv-x="712" d="M334 870.5q0 -47.5 -33 -80t-80 -32.5q-61 0 -93 42t-32 107q0 94 55.5 172t151.5 86q12 4 17.5 2t6.5 -5t1 -17v-2q0 -18 -3 -21.5t-20 -7.5q-39 -8 -64.5 -42t-25.5 -64q0 -18 29.5 -30.5t59.5 -36t30 -71zM610 870.5q0 -47.5 -32.5 -80t-79.5 -32.5q-63 0 -95 42 t-32 107q0 94 56 172t153 86q10 4 15 2t6 -5t1 -17v-2q0 -18 -3 -21.5t-19 -7.5q-39 -8 -63.5 -41t-24.5 -65q0 -18 29.5 -30.5t59 -36t29.5 -71z" />
<glyph unicode="&#x201d;" horiz-adv-x="692" d="M336 1022q0 -94 -56.5 -172t-152.5 -86q-10 -4 -15.5 -2t-6.5 5t-1 17v2q0 18 3.5 21.5t19.5 7.5q39 8 63.5 41t24.5 66q0 18 -29.5 30.5t-59.5 36t-30 70.5t34 79.5t79 32.5q63 0 95 -41.5t32 -107.5zM612 1022q0 -94 -56 -172t-153 -86q-10 -4 -15 -2t-6 5t-1 17v2 q0 18 3 21.5t19 7.5q39 8 64 41t25 66q0 18 -30 30.5t-59.5 36t-29.5 70.5t32.5 79.5t79.5 32.5q63 0 95 -41.5t32 -107.5z" />
<glyph unicode="&#x201e;" horiz-adv-x="712" d="M348 78q0 -96 -56 -186.5t-153 -92.5q-18 -2 -21 1t-3 22v2q0 18 3 21t21 8q61 10 86 75q18 57 -12 70q-4 2 -10 2q-37 0 -65.5 34t-28.5 75q0 47 33.5 79.5t78.5 32.5q57 0 92 -37.5t35 -105.5zM629 78q0 -96 -57.5 -186.5t-153.5 -92.5q-18 -2 -21.5 1t-3.5 22v2 q0 18 3 21t22 8q61 10 86 75q20 57 -10 70q-6 2 -13 2q-35 0 -63.5 34t-28.5 75q0 47 33 79.5t80 32.5q57 0 92 -37.5t35 -105.5z" />
<glyph unicode="&#x2022;" horiz-adv-x="837" d="M580 383q0 -66 -50.5 -115t-117.5 -49q-74 0 -123 48t-49 116t49 115t123 47q68 0 118 -47t50 -115z" />
<glyph unicode="&#x2026;" horiz-adv-x="1468" d="M389 104.5q0 -47.5 -35 -81t-82 -33.5q-51 0 -84.5 33.5t-33.5 81t33.5 81t84.5 33.5q47 0 82 -33.5t35 -81zM854 104.5q0 -47.5 -35 -81t-82 -33.5q-51 0 -85 33.5t-34 81t34 81t85 33.5q47 0 82 -33.5t35 -81zM1315 104.5q0 -47.5 -35 -81t-82 -33.5q-51 0 -85 33.5 t-34 81t34 81t85 33.5q47 0 82 -33.5t35 -81z" />
<glyph unicode="&#x202f;" horiz-adv-x="296" />
<glyph unicode="&#x2039;" horiz-adv-x="614" d="M471 29h-4q-23 0 -39 14l-324 313q-29 29 -28.5 37t28.5 35l330 307q14 12 35 13h4q14 0 16.5 -2.5t2.5 -16.5v-55q0 -37 -5.5 -49.5t-27.5 -40.5l-127 -156q-20 -25 -20.5 -32t18.5 -31l131 -170q23 -29 27 -43.5t4 -49.5v-51q0 -16 -2.5 -19t-18.5 -3z" />
<glyph unicode="&#x203a;" horiz-adv-x="614" d="M147 29h-4q-16 0 -19 3t-3 19v51q0 35 5 49.5t26 43.5l131 170q18 25 18 31.5t-20 31.5l-127 156q-23 29 -28 41t-5 49v55q0 18 20 19h4q18 0 33 -13l330 -307q29 -27 29 -35t-29 -37l-324 -313q-17 -14 -37 -14z" />
<glyph unicode="&#x205f;" horiz-adv-x="370" />
<glyph unicode="&#x20ac;" horiz-adv-x="1224" d="M934 47q-152 -66 -318 -65q-137 0 -249.5 85t-157.5 265q-8 33 -13.5 37t-37.5 4h-33q-39 0 -45 6t-6 45v29q0 39 6 45t45 6h22q33 0 37 4t4 37v10q0 33 -4 37t-37 4h-22q-39 0 -45 5t-6 46v29q0 41 6 46t45 5h43q33 0 39 4t16 35q53 166 180 259t299 93q100 0 199 -24 q39 -10 43 -17.5t-4 -46.5l-8 -47q-8 -39 -15.5 -44t-46.5 1q-78 12 -151 12q-201 0 -260 -186q-10 -31 -7 -35t35 -4h271q41 0 46 -5t5 -46v-29q0 -41 -5 -46t-46 -5h-285q-33 0 -37 -4t-4 -37v-10q0 -33 4 -37t37 -4h285q41 0 46 -6t5 -45v-29q0 -39 -5 -45t-46 -6h-273 q-33 0 -36 -4t6 -35q29 -98 91 -140t169 -42q86 0 192 36q39 12 45 8.5t15 -42.5l6 -39q6 -39 2 -46.5t-41 -21.5z" />
<glyph unicode="&#x2122;" horiz-adv-x="1380" d="M684 530h-37q-41 0 -46 5.5t-5 46.5l10 471q0 41 6 46t45 5h119q41 0 48 -5t16 -44l80 -328q4 -18 7 -24.5t5 0t6 24.5l80 328q8 39 15 44t48 5h117q39 0 45 -5t6 -46l11 -471q0 -41 -5.5 -46.5t-46.5 -5.5h-34q-41 0 -46.5 6.5t-7.5 45.5l-6 305q0 47 -12 2l-80 -299 q-10 -39 -17.5 -44t-48.5 -5h-57q-41 0 -48 5t-17 44l-82 299q-12 45 -13 -2l-4 -305q0 -41 -5 -46.5t-46 -5.5zM315 530h-39q-39 0 -45 5.5t-6 46.5v370q0 33 -4 37t-37 4h-49q-41 0 -46 5.5t-5 45.5v9q0 41 5 46t46 5h330q39 0 45 -5t6 -46v-9q0 -41 -6 -46t-45 -5h-57 q-33 0 -37 -4t-4 -37v-370q0 -41 -5.5 -46.5t-46.5 -5.5z" />
<glyph unicode="&#xe000;" horiz-adv-x="810" d="M0 810h810v-810h-810v810z" />
<glyph unicode="&#xfb01;" horiz-adv-x="1159" d="M1010 1042.5q0 -51.5 -37 -87t-88 -35.5q-55 0 -92 35.5t-37 86.5q0 53 37 88t92 35q51 0 88 -35.5t37 -87zM953 0h-111q-39 0 -45 6t-6 45v551q0 33 -4 38t-37 11l-8 2q-37 8 -42 14.5t-5 43.5v14q0 41 6 47t45 8l207 15q16 2 27 1q16 0 19 -3q5 -6 5 -45v-697 q0 -39 -6 -45t-45 -6zM356 0h-118q-41 0 -46.5 6t-5.5 45v572q0 33 -4 37t-37 4h-45q-35 0 -39 4t-4 39v4q0 33 4.5 39t34.5 16l43 16q31 10 35 16.5t2 39.5q-12 143 -12 194q0 113 84 181.5t182 68.5q76 0 164 -18q39 -10 43 -17q1 -2 1 -5q0 -11 -9 -40l-6 -18 q-10 -39 -17.5 -44t-48.5 1q-37 4 -57 4q-72 0 -96.5 -40t-24.5 -112q0 -63 14 -159q4 -33 9.5 -37t37.5 -4h78q39 0 45 -5.5t6 -46.5v-26q0 -39 -6 -45t-45 -6h-69q-33 0 -37 -4.5t-4 -36.5v-572q0 -39 -5.5 -45t-46.5 -6z" />
<glyph unicode="&#xfb02;" horiz-adv-x="1116" d="M922 0h-125q-39 0 -45 6t-6 45v1118q0 41 6 47.5t45 8.5l125 12q16 2 27 2q16 0 19 -4q5 -6 5 -45v-1139q0 -39 -5 -45t-46 -6zM356 0h-118q-41 0 -46.5 6t-5.5 45v572q0 33 -4 37t-37 4h-45q-35 0 -39 4t-4 39v4q0 33 4.5 39t34.5 16l43 16q31 10 35 16.5t2 39.5 q-12 143 -12 194q0 113 84 181.5t182 68.5q76 0 164 -18q39 -10 43 -17q1 -2 1 -5q0 -11 -9 -40l-6 -18q-10 -39 -17.5 -44t-48.5 1q-37 4 -57 4q-72 0 -96.5 -40t-24.5 -112q0 -63 14 -159q4 -33 9.5 -37t37.5 -4h78q39 0 45 -5.5t6 -46.5v-26q0 -39 -6 -45t-45 -6h-69 q-33 0 -37 -4.5t-4 -36.5v-572q0 -39 -5.5 -45t-46.5 -6z" />
<glyph unicode="&#xfb03;" horiz-adv-x="1781" d="M1632 1042.5q0 -51.5 -37 -87t-88 -35.5q-55 0 -92 35.5t-37 86.5q0 53 37 88t92 35q51 0 88 -35.5t37 -87zM1575 0h-111q-39 0 -45 6t-6 45v551q0 33 -4 38t-37 11l-8 2q-37 8 -42 14.5t-5 43.5v14q0 41 6 47t45 8l207 15q16 2 27 1q16 0 19 -3q5 -6 5 -45v-697 q0 -39 -6 -45t-45 -6zM979 0h-118q-41 0 -46.5 6t-5.5 45v572q0 33 -4 37t-37 4h-45q-35 0 -39 4t-4 39v4q0 33 4.5 39t34.5 16l43 16q31 10 35 16.5t2 39.5q-12 143 -12 194q0 113 84 181.5t182 68.5q76 0 164 -18q39 -10 43 -17q1 -2 1 -5q0 -11 -9 -40l-6 -18 q-10 -39 -17.5 -44t-48.5 1q-37 4 -57 4q-72 0 -96.5 -40t-24.5 -112q0 -63 14 -159q4 -33 9.5 -37t37.5 -4h78q39 0 45 -5.5t6 -46.5v-26q0 -39 -6 -45t-45 -6h-69q-33 0 -37 -4.5t-4 -36.5v-572q0 -39 -5.5 -45t-46.5 -6zM356 0h-118q-41 0 -46.5 6t-5.5 45v572 q0 33 -4 37t-37 4h-45q-35 0 -39 4t-4 39v4q0 33 4.5 39t34.5 16l43 16q31 10 35 16.5t2 39.5q-12 143 -12 194q0 113 84 181.5t182 68.5q76 0 164 -18q39 -10 43 -17q1 -2 1 -5q0 -11 -9 -40l-6 -18q-10 -39 -17.5 -44t-48.5 1q-37 4 -57 4q-72 0 -96.5 -40t-24.5 -112 q0 -63 14 -159q4 -33 9.5 -37t37.5 -4h78q39 0 45 -5.5t6 -46.5v-26q0 -39 -6 -45t-45 -6h-69q-33 0 -37 -4.5t-4 -36.5v-572q0 -39 -5.5 -45t-46.5 -6z" />
<glyph unicode="&#xfb04;" horiz-adv-x="1738" d="M1544 0h-125q-39 0 -45 6t-6 45v1118q0 41 6 47.5t45 8.5l125 12q16 2 27 2q16 0 19 -4q5 -6 5 -45v-1139q0 -39 -5 -45t-46 -6zM979 0h-118q-41 0 -46.5 6t-5.5 45v572q0 33 -4 37t-37 4h-45q-35 0 -39 4t-4 39v4q0 33 4.5 39t34.5 16l43 16q31 10 35 16.5t2 39.5 q-12 143 -12 194q0 113 84 181.5t182 68.5q76 0 164 -18q39 -10 43 -17q1 -2 1 -5q0 -11 -9 -40l-6 -18q-10 -39 -17.5 -44t-48.5 1q-37 4 -57 4q-72 0 -96.5 -40t-24.5 -112q0 -63 14 -159q4 -33 9.5 -37t37.5 -4h78q39 0 45 -5.5t6 -46.5v-26q0 -39 -6 -45t-45 -6h-69 q-33 0 -37 -4.5t-4 -36.5v-572q0 -39 -5.5 -45t-46.5 -6zM356 0h-118q-41 0 -46.5 6t-5.5 45v572q0 33 -4 37t-37 4h-45q-35 0 -39 4t-4 39v4q0 33 4.5 39t34.5 16l43 16q31 10 35 16.5t2 39.5q-12 143 -12 194q0 113 84 181.5t182 68.5q76 0 164 -18q39 -10 43 -17 q1 -2 1 -5q0 -11 -9 -40l-6 -18q-10 -39 -17.5 -44t-48.5 1q-37 4 -57 4q-72 0 -96.5 -40t-24.5 -112q0 -63 14 -159q4 -33 9.5 -37t37.5 -4h78q39 0 45 -5.5t6 -46.5v-26q0 -39 -6 -45t-45 -6h-69q-33 0 -37 -4.5t-4 -36.5v-572q0 -39 -5.5 -45t-46.5 -6z" />
</font>
</defs>
</svg>
